<?xml version="1.0" encoding="utf-8"?>
<!-- Generator: Adobe Illustrator 24.0.0, SVG Export Plug-In . SVG Version: 6.00 Build 0)  -->
<svg version="1.1" id="Layer_1" xmlns="http://www.w3.org/2000/svg" xmlns:xlink="http://www.w3.org/1999/xlink" x="0px" y="0px"
	 viewBox="0 0 239 247" style="enable-background:new 0 0 239 247;" xml:space="preserve">
<style type="text/css">
	.st0{fill:#ffffff;}
	.st1{clip-path:url(#SVGID_2_);fill:#ffffff;}
</style>
<polygon class="st0" points="96.96,188.93 78.82,170.66 107.82,141.66 101.81,135.68 72.84,164.65 66.45,158.3 46.06,137.85 
	46.06,143.19 91.36,188.93 46.06,188.93 46.06,197.41 109.91,197.41 118.41,188.93 "/>
<polygon class="st0" points="164.55,84.89 170.93,91.32 191.28,111.74 191.28,106.4 145.99,60.66 191.28,60.66 191.28,52.18 
	127.48,52.18 118.97,60.66 140.38,60.66 158.62,78.87 129.6,107.89 135.57,113.87 "/>
<polygon class="st0" points="191.28,197.4 191.28,133.56 182.81,125.09 182.81,146.5 164.54,164.69 78.81,78.92 105.62,52.18 
	100.27,52.18 54.54,97.48 54.54,52.18 46.06,52.18 46.06,116.03 54.54,124.53 54.54,103.08 72.8,84.9 158.53,170.66 131.72,197.4 
	137.07,197.4 182.81,152.11 182.81,197.4 "/>
<g>
	<defs>
		<rect id="SVGID_1_" x="-179" y="-174.28" width="595.28" height="595.28"/>
	</defs>
	<clipPath id="SVGID_2_">
		<use xlink:href="#SVGID_1_"  style="overflow:visible;"/>
	</clipPath>
	<path class="st1" d="M165.01,236.61c-50.06,0-102.23-0.11-152.29,0.13c-6.17,0.03-7.48-1.87-7.46-7.11
		C5.41,158.58,5.41,87.52,5.28,16.46c-0.01-4.75,3.87-6.48,9.36-6.48c100.76,0.14,109.51,0.15,210.27-0.01
		c5.85-0.01,7.1,1.78,7.1,6.78c-0.14,71.06-0.14,142.12,0.01,213.18c0.01,5.01-1.24,6.8-7.12,6.78c-50.49-0.22-9.41-0.13-59.9-0.13
		V236.61z M165.41,11.97c-44.93,0-91.96-0.02-136.89,0.01C13.83,11.99,7.73,17.5,7.72,30.91C7.66,92.3,7.67,153.69,7.67,215.08
		c0,14.35,5.74,19.65,21.27,19.65c89.86,0.01,90.26,0.02,180.12,0.04c14.18,0,20.48-5.68,20.48-18.63
		c0.01-61.39,0.01-122.78-0.01-184.17c-0.01-14.78-5.63-19.99-21.53-19.99C163.28,11.95,210.13,11.96,165.41,11.97"/>
</g>
</svg>
