<svg xmlns="http://www.w3.org/2000/svg" width="15.811" height="18.992" viewBox="0 0 15.811 18.992">
  <g id="user_3_" data-name="user (3)" transform="translate(0.1 0.1)">
    <path id="Path_5" data-name="Path 5" d="M37.886,11.027l-.048-.022c-.115-.052-.23-.1-.348-.148s-.259-.1-.391-.144c-.1-.034-.21-.066-.316-.1-.162-.047-.326-.089-.494-.127l-.173-.034-.04-.008c-.1-.019-.2-.037-.3-.051l-.029,0h0l-.029,0c-.084-.013-.167-.024-.254-.034l-.3-.024a8,8,0,0,0-1.1,0l-.1.009-.049,0-.122.011c-.112.012-.224.027-.336.045l-.033,0c-.076.013-.153.027-.228.041s-.166.031-.248.049c-.159.036-.318.077-.471.121-.122.035-.242.074-.356.112l-.079.028c-.24.085-.479.183-.71.29l-.062.029v0a7.836,7.836,0,0,0-4.444,7.037c0,.069,0,.136.009.2l.02.474H42.405l.021-.469c0-.069.009-.138.009-.209A7.826,7.826,0,0,0,37.886,11.027Zm-10.3,7a7.065,7.065,0,0,1,4.039-6.28l.078-.03.009-.009c.189-.087.385-.165.583-.235l.063-.022c.108-.037.215-.072.327-.1.139-.041.281-.077.423-.109.074-.016.147-.03.223-.045.06-.011.12-.022.181-.032l.03-.005c.109-.017.218-.033.327-.045l.249-.022a6.692,6.692,0,0,1,1.017,0l.242.02.193.025.087.013c.091.013.182.029.274.046l.043.008.151.03c.15.033.3.072.444.114.1.028.193.057.287.088q.178.059.353.129t.331.141l.019.009a7.062,7.062,0,0,1,4.113,6.315H27.587ZM32.745,9.35c.057.024.116.045.175.066l.124.045c.048.018.1.036.144.051a4.832,4.832,0,0,0,1.413.22h.039a4.84,4.84,0,0,0,.491-.025c.055-.005.108-.014.162-.023l.119-.018c.067-.009.134-.019.2-.032.048-.01.095-.022.141-.035l.13-.033c.064-.016.129-.031.193-.051.04-.013.079-.027.117-.042l.1-.038c.075-.026.15-.053.226-.084.029-.013.058-.026.086-.04l.034-.017c.1-.046.206-.093.308-.148l.066-.04c.114-.065.228-.132.344-.211.06-.04.117-.086.173-.131l.2-.152A4.828,4.828,0,0,0,39.5,4.908l0-.04a4.863,4.863,0,0,0-9.717-.306l0,.063c-.006.08-.011.161-.011.243A4.856,4.856,0,0,0,32.745,9.35Zm-2.2-4.673,0-.069a4.1,4.1,0,0,1,8.2.224l0,.04a4.1,4.1,0,0,1-1.5,3.159l-.181.138c-.04.033-.081.066-.132.1-.091.062-.188.118-.287.174l-.055.033c-.082.044-.169.083-.259.123l-.1.049c-.058.024-.119.045-.179.066l-.126.045c-.024.009-.049.019-.073.026-.047.014-.095.026-.143.037l-.152.039c-.033.009-.065.018-.094.024-.051.01-.1.017-.154.024l-.145.022c-.035.006-.07.012-.109.016-.127.013-.255.021-.384.022h-.037a4.085,4.085,0,0,1-1.219-.185c-.034-.011-.067-.024-.1-.037L33.173,8.7c-.045-.016-.089-.031-.132-.049a4.1,4.1,0,0,1-2.505-3.781C30.536,4.8,30.541,4.74,30.545,4.677Z" transform="translate(-26.824 -0.002)" fill="#fff" stroke="#fff" stroke-width="0.2"/>
  </g>
</svg>
