<svg xmlns="http://www.w3.org/2000/svg" width="19" height="14.574" viewBox="0 0 19 14.574">
  <g id="tape" transform="translate(0 -0.5)">
    <path id="Path_12" data-name="Path 12" d="M18.629,12.536a.371.371,0,0,0-.371.371v1.425H16.043v-2.5a.371.371,0,1,0-.742,0v2.5H13.088v-2.5a.371.371,0,0,0-.742,0v2.5H10.133v-2.5a.371.371,0,0,0-.742,0v2.5H7.179v-2.5a.371.371,0,0,0-.742,0v2.477a9.94,9.94,0,0,1-1.727-.261V11.833a.371.371,0,1,0-.742,0v2a7.139,7.139,0,0,1-1.422-.661l-.062-.039V10.888a.371.371,0,1,0-.742,0v1.678a2.774,2.774,0,0,1-1-2.018V6.017l.022.028.029.036.05.06.027.032.065.073.015.017.084.09.024.025.063.064.033.032.059.057.035.033.061.056.035.031.072.062.027.023.1.083.021.016.085.065.038.028.071.052.043.03.072.05.043.029L2,7.142l.038.025.119.075A9.616,9.616,0,0,0,7.129,8.514H18.258V9.938a.371.371,0,1,0,.742,0v-1.8a.371.371,0,0,0-.371-.371h-7.75V3.987a3.037,3.037,0,0,0-1.661-2.52A7.306,7.306,0,0,0,5.439.5a7.305,7.305,0,0,0-3.778.968A3.037,3.037,0,0,0,0,3.987v6.56A3.932,3.932,0,0,0,2.156,13.8a9.451,9.451,0,0,0,4.581,1.265.344.344,0,0,0,.119,0c.091,0,.181,0,.273,0h11.5A.371.371,0,0,0,19,14.7v-1.8A.371.371,0,0,0,18.629,12.536ZM2.05,2.1a6.559,6.559,0,0,1,3.39-.858A6.559,6.559,0,0,1,8.829,2.1a2.335,2.335,0,0,1,1.308,1.888c0,.925-1.377,1.706-3.008,1.706-.106,0-.21,0-.313-.01V3.152a.371.371,0,0,0-.026-.136.377.377,0,0,0-.1-.142.41.41,0,0,0-.107-.066,2.82,2.82,0,0,0-1.144-.231c-1.155,0-2.06.619-2.06,1.41A2.142,2.142,0,0,0,4.545,5.772a4.994,4.994,0,0,0,2.584.664,5,5,0,0,0,2.584-.664,3.2,3.2,0,0,0,.424-.309V7.771H7.129A8.87,8.87,0,0,1,2.545,6.609,3.338,3.338,0,0,1,.75,4.17Q.742,4.079.742,3.987A2.335,2.335,0,0,1,2.05,2.1ZM6.073,5.581C4.945,5.332,4.121,4.7,4.121,3.987c0-.315.564-.668,1.318-.668a2.205,2.205,0,0,1,.634.089Zm0,0" fill-rule="evenodd"/>
    <path id="Path_13" data-name="Path 13" d="M492.41,284.836a.41.41,0,1,0,.41.41A.411.411,0,0,0,492.41,284.836Zm0,0" transform="translate(-473.82 -273.844)" fill-rule="evenodd"/>
  </g>
</svg>
