<?xml version="1.0" encoding="utf-8"?>
<!-- Generator: Adobe Illustrator 16.0.0, SVG Export Plug-In . SVG Version: 6.00 Build 0)  -->
<!DOCTYPE svg PUBLIC "-//W3C//DTD SVG 1.1//EN" "http://www.w3.org/Graphics/SVG/1.1/DTD/svg11.dtd">
<svg version="1.1" id="Layer_1" xmlns="http://www.w3.org/2000/svg" xmlns:xlink="http://www.w3.org/1999/xlink" x="0px" y="0px"
	 width="424.961px" height="81.75px" viewBox="5.789 7.75 424.961 81.75" enable-background="new 5.789 7.75 424.961 81.75"
	 xml:space="preserve">
<rect x="570" y="-307.941" fill="#FFFFFF" width="595.275" height="595.275"/>
<polygon points="51.326,89.104 25.975,57.064 14.357,67.275 14.357,89.104 5.789,89.104 5.789,8.946 14.357,8.946 14.357,61.055 
	48.51,31.597 54.964,31.597 31.725,52.02 61.183,89.104 "/>
<g>
	<g>
		<defs>
			<rect id="SVGID_1_" x="-79.25" y="-249.026" width="595.276" height="595.276"/>
		</defs>
		<clipPath id="SVGID_2_">
			<use xlink:href="#SVGID_1_"  overflow="visible"/>
		</clipPath>
		<path clip-path="url(#SVGID_2_)" d="M71.102,84.7c-3.875-3.052-5.811-7.394-5.811-13.028c0-6.021,2.367-10.62,7.102-13.789
			c4.731-3.17,11.636-4.754,20.714-4.754h17.721v-4.341c0-4.852-1.526-8.568-4.576-11.15c-3.053-2.581-7.474-3.872-13.263-3.872
			c-5.399,0-9.722,1.212-12.968,3.637c-3.249,2.427-5.185,5.829-5.81,10.211h-7.042c0.782-5.868,3.442-10.366,7.98-13.496
			c4.539-3.129,10.563-4.696,18.075-4.696c8.371,0,14.805,1.782,19.305,5.341c4.5,3.561,6.75,8.666,6.75,15.316v19.13
			c0,6.65,0.585,12.949,1.76,18.896h-8.098c-0.862-3.598-1.409-7.199-1.642-10.799c-4.854,7.98-12.638,11.973-23.357,11.973
			C80.587,89.277,74.974,87.752,71.102,84.7 M100.618,82.354c3.128-1.799,5.613-4.242,7.451-7.334
			c1.838-3.092,2.759-6.437,2.759-10.035v-7.512h-15.49c-7.356,0-12.795,1.135-16.316,3.403c-3.52,2.271-5.28,5.83-5.28,10.681
			c0,4.459,1.407,7.824,4.225,10.094c2.817,2.27,6.924,3.402,12.324,3.402C94.047,85.053,97.487,84.155,100.618,82.354"/>
	</g>
	<g>
		<defs>
			<rect id="SVGID_3_" x="-79.25" y="-249.026" width="595.276" height="595.276"/>
		</defs>
		<clipPath id="SVGID_4_">
			<use xlink:href="#SVGID_3_"  overflow="visible"/>
		</clipPath>
		<path clip-path="url(#SVGID_4_)" d="M144.1,85.111c-2.308-2.776-3.462-7.141-3.462-13.086V34.938h-10.327l1.524-4.341h8.919
			l4.227-16.196h4.224v16.196h16.197l-1.409,4.341h-14.788v38.847c0,3.757,0.665,6.535,1.996,8.333c1.329,1.802,3.363,2.7,6.102,2.7
			c2.738,0,5.437-0.744,8.099-2.229v4.576c-2.895,1.407-6.418,2.114-10.564,2.114C149.985,89.279,146.407,87.889,144.1,85.111"/>
	</g>
	<g>
		<defs>
			<rect id="SVGID_5_" x="-79.25" y="-249.026" width="595.276" height="595.276"/>
		</defs>
		<clipPath id="SVGID_6_">
			<use xlink:href="#SVGID_5_"  overflow="visible"/>
		</clipPath>
		<polygon clip-path="url(#SVGID_6_)" points="170.093,30.597 179.364,30.597 198.847,75.195 216.1,29.423 219.619,29.423 
			239.221,76.251 259.289,30.597 264.568,30.597 238.867,89.279 235.698,89.279 216.45,43.389 199.082,89.279 196.148,89.279 		"/>
	</g>
	<g>
		<defs>
			<rect id="SVGID_7_" x="-79.25" y="-249.026" width="595.276" height="595.276"/>
		</defs>
		<clipPath id="SVGID_8_">
			<use xlink:href="#SVGID_7_"  overflow="visible"/>
		</clipPath>
		<path clip-path="url(#SVGID_8_)" d="M278.359,84.7c-3.875-3.052-5.813-7.394-5.813-13.028c0-6.021,2.367-10.62,7.104-13.789
			c4.729-3.17,11.636-4.754,20.714-4.754h17.721v-4.341c0-4.852-1.525-8.568-4.576-11.15c-3.053-2.581-7.474-3.872-13.263-3.872
			c-5.398,0-9.723,1.212-12.969,3.637c-3.248,2.427-5.186,5.829-5.811,10.211h-7.042c0.782-5.868,3.442-10.366,7.98-13.496
			c4.538-3.129,10.563-4.696,18.075-4.696c8.369,0,14.805,1.782,19.305,5.341c4.5,3.561,6.75,8.666,6.75,15.316v19.13
			c0,6.65,0.585,12.949,1.76,18.896h-8.098c-0.862-3.598-1.409-7.199-1.644-10.799c-4.854,7.98-12.638,11.973-23.355,11.973
			C287.844,89.277,282.23,87.752,278.359,84.7 M307.875,82.354c3.129-1.799,5.613-4.242,7.451-7.334s2.759-6.437,2.759-10.035
			v-7.512h-15.49c-7.354,0-12.795,1.135-16.314,3.403c-3.521,2.271-5.28,5.83-5.28,10.681c0,4.459,1.407,7.824,4.225,10.094
			s6.926,3.402,12.324,3.402C301.304,85.053,304.744,84.155,307.875,82.354"/>
	</g>
	<g>
		<defs>
			<rect id="SVGID_9_" x="-79.25" y="-249.026" width="595.276" height="595.276"/>
		</defs>
		<clipPath id="SVGID_10_">
			<use xlink:href="#SVGID_9_"  overflow="visible"/>
		</clipPath>
		<rect x="347.308" y="7.946" clip-path="url(#SVGID_10_)" width="8.567" height="80.158"/>
	</g>
	<g>
		<defs>
			<rect id="SVGID_11_" x="-79.25" y="-249.026" width="595.276" height="595.276"/>
		</defs>
		<clipPath id="SVGID_12_">
			<use xlink:href="#SVGID_11_"  overflow="visible"/>
		</clipPath>
		<polygon clip-path="url(#SVGID_12_)" points="421.13,88.104 395.778,56.064 384.16,66.275 384.16,88.104 375.593,88.104 
			375.593,7.946 384.16,7.946 384.16,60.055 418.313,30.597 424.767,30.597 401.529,51.02 430.986,88.104 		"/>
	</g>
</g>
</svg>
