<svg id="Layer_1" data-name="Layer 1" xmlns="http://www.w3.org/2000/svg" width="424.96" height="81.75" viewBox="0 0 424.96 81.75"><defs><style>.cls-1{fill:#010101;}</style></defs><title>katwalk_logo</title><path class="cls-1" d="M9.05,60.79l-1.92,3H81.36V2.09c-.5.75-1,1.51-1.49,2.27V60.79H9.05"/><path class="cls-1" d="M57.15,28.08v1.21H47.64a3.63,3.63,0,0,0-1.56.81,4,4,0,0,0-1.21,2.31A4.79,4.79,0,0,0,44.92,35a5.08,5.08,0,0,0,1.71,2.42A7,7,0,0,0,49.85,39h7.21v1.16H39.13v-1h7.65l-.7-.8a18.94,18.94,0,0,1-1.26-1.46,6.7,6.7,0,0,1-.76-1.46,6.63,6.63,0,0,1-.35-2.92,5.43,5.43,0,0,1,.6-2.12,4.93,4.93,0,0,1,1.62-1.76A5.37,5.37,0,0,1,47.18,28l10,0"/><path class="cls-1" d="M121.5,54.78v1.69h-19a12.22,12.22,0,0,1-2.05-2.32,12.82,12.82,0,0,1-1.78-4,15,15,0,0,1-.36-6.06,13.31,13.31,0,0,1,1.61-4.9,13.53,13.53,0,0,1,4.1-4.37,14.61,14.61,0,0,1,7.13-2.4,14.9,14.9,0,0,1,6.33,1,12.34,12.34,0,0,1,7.48,7.3A15,15,0,0,1,126,44.62V62.53a18.5,18.5,0,0,1-1.25,5.26,19.37,19.37,0,0,1-3.74,5.88,20.94,20.94,0,0,1-4.19,3.48,17.59,17.59,0,0,1-5.44,2.58,15.67,15.67,0,0,1-5.16.45V78.93a12.77,12.77,0,0,0,2.58-.27,13.82,13.82,0,0,0,4.72-2A14.23,14.23,0,0,0,117,73.85a15.58,15.58,0,0,0,2-2.85,21.26,21.26,0,0,0,1.78-4.19,26.93,26.93,0,0,0,.9-3.57L121.41,43a7.64,7.64,0,0,0-1.34-2.67,8.56,8.56,0,0,0-3.39-2.5,10.72,10.72,0,0,0-2.4-.8H109.2a8.26,8.26,0,0,0-2.94,1.34,9.15,9.15,0,0,0-3.39,5.08,10.15,10.15,0,0,0-.27,4.63,9.63,9.63,0,0,0,4.9,6.77l14-.08"/><path class="cls-1" d="M156.7,54.78v1.69h-19a12.22,12.22,0,0,1-2.05-2.32,12.82,12.82,0,0,1-1.78-4,15.12,15.12,0,0,1-.35-6.06,13.25,13.25,0,0,1,1.6-4.9,13.66,13.66,0,0,1,4.1-4.37,14.61,14.61,0,0,1,7.13-2.4,14.9,14.9,0,0,1,6.33,1,12.8,12.8,0,0,1,4.1,2.4,13,13,0,0,1,3.38,4.9,14.63,14.63,0,0,1,1.07,3.93V62.53A18.78,18.78,0,0,1,160,67.79a19.7,19.7,0,0,1-3.75,5.88,20.94,20.94,0,0,1-4.19,3.48,17.63,17.63,0,0,1-5.43,2.58,15.72,15.72,0,0,1-5.17.45V78.93a12.77,12.77,0,0,0,2.58-.27,14,14,0,0,0,4.73-2,14.42,14.42,0,0,0,3.38-2.76,14.63,14.63,0,0,0,2-2.85,22.06,22.06,0,0,0,1.79-4.19,27.12,27.12,0,0,0,.89-3.57L156.61,43a7.64,7.64,0,0,0-1.34-2.67,8.61,8.61,0,0,0-3.38-2.5,10.94,10.94,0,0,0-2.41-.8H144.4a8.33,8.33,0,0,0-2.94,1.34,9.21,9.21,0,0,0-3.39,5.08,10.3,10.3,0,0,0-.27,4.63,9.63,9.63,0,0,0,4.9,6.77Z"/><path class="cls-1" d="M175,60.91l-1.92,3H247.3l.09-34.37-1.6,1.29q0,15.06,0,30.12H175"/><path class="cls-1" d="M208.3,32.55a3.4,3.4,0,1,1-3.4-3.4,3.4,3.4,0,0,1,3.4,3.4"/><path class="cls-1" d="M219,32.55a3.4,3.4,0,1,1-3.4-3.4,3.4,3.4,0,0,1,3.4,3.4"/><path class="cls-1" d="M261.51,8l-1.95,2.32V63.92H420.13V61.86H261.59q0-26.94-.08-53.89"/><path class="cls-1" d="M413.79,6.88h-4L385.69,28.05l26.84,33.82h7.6l-28-35.64,21.7-19.35"/></svg>