<svg xmlns="http://www.w3.org/2000/svg" xmlns:xlink="http://www.w3.org/1999/xlink" version="1.1" id="Layer_1" x="0px" y="0px" viewBox="0 0 20.2 18.8" style="fill: #c53a19;" xml:space="preserve">
<style type="text/css" fill="#c53a19">
	.st0{fill:#EC1E39;stroke:#EC1E39;stroke-width:0.25;stroke-miterlimit:10;}
	.st1{fill:none;stroke:#000000;stroke-width:2;stroke-miterlimit:10;}
	.st2{fill:none;stroke:#FFFFFF;stroke-width:2;stroke-miterlimit:10;}
	.st3{fill:#FFFFFF;}
	.st4{fill:#C53A19;}
	.st5{fill:#7D98A9;}
	.st6{fill:#010002;}
	.st7{fill:#030104;}
	.st8{fill-rule:evenodd;clip-rule:evenodd;fill:#EC1E39;}
	.st9{fill:#2F2F2F;}
	.st10{fill-rule:evenodd;clip-rule:evenodd;}
	.st11{fill-rule:evenodd;clip-rule:evenodd;fill:#FFFFFF;}
	.st12{fill:#F44336;}
	.st13{fill:#B1B1B1;}
</style>
<g id="like-6">
	<path id="Path_6-6" d="M19,7.1c-0.2-2.7-2.1-4.6-4.5-4.6c-1.6,0-3,0.8-3.8,2.2C9.9,3.3,8.5,2.5,6.9,2.5c-2.4,0-4.2,1.9-4.5,4.6   c-0.1,0.6,0,1.2,0.1,1.8c0.4,1.5,1.2,2.8,2.3,3.8l5.8,5.2l5.9-5.2c1.1-1,1.9-2.3,2.3-3.8C19,8.3,19.1,7.7,19,7.1z M18.2,8.7   c-0.3,1.4-1.1,2.6-2.1,3.5L10.7,17l-5.4-4.9c-1-0.9-1.8-2.2-2.1-3.5c-0.1-0.5-0.2-1-0.1-1.5l0,0c0-2.1,1.7-3.9,3.8-4   c1.5,0,2.9,1,3.4,2.4l0.3,0.7L11,5.6c0.6-1.4,2-2.4,3.5-2.4c2,0,3.7,1.7,3.9,4.1C18.4,7.7,18.4,8.2,18.2,8.7L18.2,8.7z"/>
</g>
</svg>