<?xml version="1.0" encoding="utf-8"?>
<!-- Generator: Adobe Illustrator 24.3.0, SVG Export Plug-In . SVG Version: 6.00 Build 0)  -->
<svg version="1.1" id="Layer_1" xmlns="http://www.w3.org/2000/svg" xmlns:xlink="http://www.w3.org/1999/xlink" x="0px" y="0px"
	 viewBox="0 0 17 17.9" style="enable-background:new 0 0 17 17.9;" xml:space="preserve">
<style type="text/css">
	.st0{fill:#EC1E39;stroke:#EC1E39;stroke-width:0.25;stroke-miterlimit:10;}
	.st1{fill:none;stroke:#000000;stroke-width:2;stroke-miterlimit:10;}
	.st2{fill:none;stroke:#FFFFFF;stroke-width:2;stroke-miterlimit:10;}
	.st3{fill:#FFFFFF;}
	.st4{fill:#C53A19;}
	.st5{fill:#7D98A9;}
	.st6{fill:#010002;}
	.st7{fill:#030104;}
	.st8{fill-rule:evenodd;clip-rule:evenodd;fill:#EC1E39;}
	.st9{fill:#2F2F2F;}
	.st10{fill-rule:evenodd;clip-rule:evenodd;}
	.st11{fill-rule:evenodd;clip-rule:evenodd;fill:#FFFFFF;}
	.st12{fill:#F44336;}
	.st13{fill:#B1B1B1;}
</style>
<g id="user">
	<path id="Path_5" d="M11.8,10.6L11.8,10.6l-0.3-0.1l-0.4-0.1l-0.3-0.1l-0.5-0.1h-0.2l0,0l-0.3-0.1H9.9H9.6H9.3c-0.3,0-0.7,0-1,0H8
		H7.7l0,0H7.5H7.3l-0.4,0.1l-0.3,0.1H6.4c-0.2,0.1-0.4,0.2-0.7,0.3H5.7l0,0c-2.6,1.2-4.2,3.8-4.2,6.7v0.2v0.4h14.7v-0.4
		c0-0.1,0-0.1,0-0.2C16.1,14.4,14.4,11.8,11.8,10.6z M2.1,17.3c0-2.6,1.5-4.9,3.8-6H6l0,0l0.6-0.2h0.1L6.9,11l0.4-0.1h0.2h0.2l0,0H8
		h0.2c0.3,0,0.7,0,1,0h0.2h0.2h0.1l0.3,0.1l0,0h0.1l0.4,0.1l0.3,0.1c0.1,0,0.2,0.1,0.3,0.1l0.3,0.1l0,0c2.4,1.1,3.9,3.4,3.9,6
		L2.1,17.3z M7,9l0.2,0.1h0.1l0.1,0.1c0.4,0.1,0.9,0.2,1.3,0.2l0,0c0.2,0,0.3,0,0.5,0h0.1h0.1h0.2h0.1h0.1h0.2h0.1h0.1l0.2-0.1h0.1
		l0,0l0.3-0.1H11c0.1-0.1,0.2-0.1,0.3-0.2l0.2-0.1l0.2-0.1c1.1-0.9,1.7-2.2,1.7-3.5l0,0c0.1-2.6-1.9-4.7-4.5-4.8
		C6.3,0.3,4.2,2.3,4.1,4.9v0.1c0,0.1,0,0.2,0,0.2C4.2,6.9,5.4,8.3,7,9L7,9z M4.9,4.6L4.9,4.6C5,2.4,6.9,0.8,9,0.9
		c2,0.1,3.6,1.8,3.6,3.8l0,0c0,1.2-0.5,2.3-1.4,3l-0.2,0.1L10.9,8l-0.3,0.2h-0.1l-0.2,0.1h-0.1l-0.2,0.1H10H9.9H9.8H9.6H9.5H9.4H9.3
		H9.2H8.8l0,0C8.4,8.3,8,8.2,7.6,8.1H7.5H7.4H7.3C5.8,7.5,4.9,6.1,4.9,4.6C4.9,4.6,4.9,4.6,4.9,4.6L4.9,4.6z"/>
</g>
</svg>
