<svg xmlns="http://www.w3.org/2000/svg" xmlns:xlink="http://www.w3.org/1999/xlink" version="1.1" id="Layer_1" x="0px" y="0px" viewBox="0 0 15.9 14.3" style="enable-background:new 0 0 15.9 14.3;" xml:space="preserve">
<style type="text/css">
	.st0{fill:#EC1E39;stroke:#EC1E39;stroke-width:0.25;stroke-miterlimit:10;}
	.st1{fill:none;stroke:#000000;stroke-width:2;stroke-miterlimit:10;}
	.st2{fill:none;stroke:#FFFFFF;stroke-width:2;stroke-miterlimit:10;}
	.st3{fill:#FFFFFF;}
	.st4{fill:#C53A19;}
	.st5{fill:#7D98A9;}
	.st6{fill:#010002;}
	.st7{fill:#030104;}
	.st8{fill-rule:evenodd;clip-rule:evenodd;fill:#EC1E39;}
	.st9{fill:#2F2F2F;}
	.st10{fill-rule:evenodd;clip-rule:evenodd;}
	.st11{fill-rule:evenodd;clip-rule:evenodd;fill:#FFFFFF;}
	.st12{fill:#F44336;}
	.st13{fill:#B1B1B1;}
</style>
<path class="st10" d="M10.2,7.8c-0.1-0.1-0.7-0.4-0.9-0.4S9.2,7.4,9.1,7.5L8.7,8C8.6,8.1,8.5,8.1,8.4,8c-0.4-0.2-0.7-0.4-1-0.6  C7.1,7.1,6.9,6.8,6.7,6.5c-0.1-0.1,0-0.2,0-0.2C6.8,6.1,6.9,6,7,5.8c0-0.1,0-0.2,0-0.2c0-0.1-0.3-0.7-0.4-0.9S6.5,4.5,6.4,4.5H6.1  C6,4.5,5.9,4.5,5.8,4.6c-0.3,0.3-0.4,0.6-0.4,1c0,0.5,0.2,0.9,0.5,1.3c0.5,0.8,1.2,1.5,2.1,2C8.2,9,8.5,9.1,8.7,9.1  c0.3,0.1,0.5,0.1,0.8,0c0.4-0.1,0.7-0.3,0.9-0.6c0.1-0.2,0.1-0.4,0.1-0.6C10.4,7.9,10.3,7.9,10.2,7.8z"/>
<path d="M8.1,1.2c-3.1,0-5.7,2.6-5.6,5.7c0,1,0.3,2.1,0.8,3c-0.2,0.8-0.6,2.3-0.6,2.3c0,0.1,0,0.2,0.1,0.2c0.1,0,0.1,0,0.2,0  l2.2-0.7c2.7,1.6,6.1,0.7,7.8-1.9C14.5,7.1,13.7,3.6,11,2C10.1,1.4,9.1,1.2,8.1,1.2L8.1,1.2z M8.1,12.1c-1,0-1.9-0.3-2.8-0.8  c0,0-0.1,0-0.1,0H5.1l-2,0.6l0.6-2c0-0.1,0-0.1,0-0.2C2.1,7.3,2.8,4.1,5.2,2.5c2.4-1.6,5.6-0.9,7.2,1.5c1.6,2.4,0.9,5.6-1.5,7.2  C10.1,11.8,9.1,12.1,8.1,12.1L8.1,12.1z"/>
</svg>