<?xml version="1.0" encoding="utf-8"?>
<!-- Generator: Adobe Illustrator 24.3.0, SVG Export Plug-In . SVG Version: 6.00 Build 0)  -->
<svg version="1.1" id="Layer_1" xmlns="http://www.w3.org/2000/svg" xmlns:xlink="http://www.w3.org/1999/xlink" x="0px" y="0px"
	 viewBox="0 0 14.7 19.5" style="enable-background:new 0 0 14.7 19.5;" xml:space="preserve">
<style type="text/css">
	.st0{fill:#EC1E39;stroke:#EC1E39;stroke-width:0.25;stroke-miterlimit:10;}
	.st1{fill:none;stroke:#000000;stroke-width:2;stroke-miterlimit:10;}
	.st2{fill:none;stroke:#FFFFFF;stroke-width:2;stroke-miterlimit:10;}
	.st3{fill:#FFFFFF;}
	.st4{fill:#C53A19;}
	.st5{fill:#7D98A9;}
	.st6{fill:#010002;}
	.st7{fill:#030104;}
	.st8{fill-rule:evenodd;clip-rule:evenodd;fill:#EC1E39;}
	.st9{fill:#2F2F2F;}
	.st10{fill-rule:evenodd;clip-rule:evenodd;}
	.st11{fill-rule:evenodd;clip-rule:evenodd;fill:#FFFFFF;}
	.st12{fill:#F44336;}
	.st13{fill:#B1B1B1;}
</style>
<g id="Group_3-2">
	<path id="Path_4-2" class="st4" d="M1.1,5.5v9.7l0,0l0,0c0.1,1.4,1.3,2.4,2.7,2.4h7.2c1.4,0.1,2.6-1,2.7-2.4V5.5
		c0-0.2-0.2-0.3-0.4-0.3h-2.3V5c0-2-1.6-3.5-3.6-3.5C5.4,1.4,3.8,3,3.8,5v0.1H1.5C1.2,5.1,1.1,5.3,1.1,5.5C1.1,5.5,1.1,5.5,1.1,5.5z
		 M10.9,16.9H3.7c-0.9,0.1-1.8-0.6-1.9-1.6V5.9h2v1.7C3.8,7.8,4,8,4.2,8c0.2,0,0.4-0.2,0.4-0.4l0,0V5.9h5.6v1.7
		c0,0.2,0.2,0.4,0.4,0.4c0,0,0,0,0,0c0.2,0,0.4-0.2,0.4-0.4c0,0,0,0,0,0l0,0V5.9h2v9.4C12.8,16.3,11.9,17,10.9,16.9
		C10.9,16.9,10.9,16.9,10.9,16.9z M10.1,5.2H4.5V5c0.1-1.5,1.4-2.7,3-2.6C8.9,2.5,10,3.6,10.1,5L10.1,5.2z"/>
</g>
</svg>
