<?xml version="1.0" encoding="utf-8"?>
<!-- Generator: Adobe Illustrator 24.3.0, SVG Export Plug-In . SVG Version: 6.00 Build 0)  -->
<svg version="1.1" id="Layer_1" xmlns="http://www.w3.org/2000/svg" xmlns:xlink="http://www.w3.org/1999/xlink" x="0px" y="0px"
	 viewBox="0 0 18 19.1" style="enable-background:new 0 0 18 19.1;" xml:space="preserve">
<style type="text/css">
	.st0{fill:#EC1E39;stroke:#EC1E39;stroke-width:0.25;stroke-miterlimit:10;}
	.st1{fill:none;stroke:#000000;stroke-width:2;stroke-miterlimit:10;}
	.st2{fill:none;stroke:#FFFFFF;stroke-width:2;stroke-miterlimit:10;}
	.st3{fill:#FFFFFF;}
	.st4{fill:#C53A19;}
	.st5{fill:#7D98A9;}
	.st6{fill:#010002;}
	.st7{fill:#030104;}
	.st8{fill-rule:evenodd;clip-rule:evenodd;fill:#EC1E39;}
	.st9{fill:#2F2F2F;}
	.st10{fill-rule:evenodd;clip-rule:evenodd;}
	.st11{fill-rule:evenodd;clip-rule:evenodd;fill:#FFFFFF;}
	.st12{fill:#F44336;}
	.st13{fill:#B1B1B1;}
</style>
<g id="user-3">
	<path id="Path_5-3" class="st3" d="M11.9,11.2L11.9,11.2L11.6,11l-0.4-0.1l-0.3-0.1l-0.5-0.1h-0.2l0,0L10,10.6H9.9H9.7H9.4
		c-0.3,0-0.7,0-1,0H8.1H7.8l0,0H7.6H7.3l-0.5,0.1l-0.3,0.1H6.5C6.2,10.9,6,11,5.8,11.1l0,0l0,0c-2.6,1.2-4.2,3.8-4.2,6.7
		c0,0.1,0,0.1,0,0.2v0.4h14.7V18v-0.2C16.2,14.9,14.5,12.4,11.9,11.2z M2.1,17.8c0-2.6,1.5-4.9,3.8-6H6l0,0c0.2-0.1,0.4-0.1,0.5-0.2
		h0.1L7,11.5l0.4-0.1h0.2h0.2l0,0h0.3h0.2c0.3,0,0.7,0,1,0h0.2h0.2h0.1l0.3,0.1l0,0h0.1l0.4,0.1l0.3,0.1c0.1,0,0.2,0.1,0.3,0.1
		l0.3,0.1l0,0c2.3,1.1,3.9,3.4,3.9,6L2.1,17.8L2.1,17.8z M7,9.6l0.2,0.1h0.1l0.1,0.1c0.4,0.1,0.9,0.2,1.3,0.2l0,0c0.2,0,0.3,0,0.5,0
		h0.2h0.1h0.2h0.1H10h0.2h0.1h0.1l0.2-0.1h0.1l0,0l0.3-0.1H11c0.1-0.1,0.2-0.1,0.3-0.2l0.2-0.1l0.2-0.1c1.2-0.9,1.9-2.4,1.8-3.9l0,0
		c0.1-2.6-1.9-4.7-4.5-4.8C6.5,0.4,4.3,2.5,4.2,5v0.1c0,0.1,0,0.2,0,0.2C4.3,7.1,5.3,8.8,7,9.6L7,9.6z M4.9,5.1L4.9,5.1
		c0.2-2.2,2-3.8,4.2-3.7c2,0.1,3.6,1.8,3.6,3.8l0,0c0,1.2-0.5,2.3-1.4,3l-0.2,0.1L11,8.5l-0.3,0.2h0l-0.2,0.1h-0.1l-0.2,0.1H10H10
		H9.8H9.7H9.6H9.5H9.3H9.2H8.9l0,0c-0.4,0-0.8-0.1-1.2-0.2H7.6H7.5H7.3C5.9,8,5,6.6,4.9,5.1C5,5.1,4.9,5.1,4.9,5.1L4.9,5.1z"/>
</g>
</svg>
