<?xml version="1.0" encoding="utf-8"?>
<!-- Generator: Adobe Illustrator 24.3.0, SVG Export Plug-In . SVG Version: 6.00 Build 0)  -->
<svg version="1.1" id="Layer_1" xmlns="http://www.w3.org/2000/svg" xmlns:xlink="http://www.w3.org/1999/xlink" x="0px" y="0px"
	 viewBox="0 0 23.2 18" style="enable-background:new 0 0 23.2 18;" xml:space="preserve">
<style type="text/css">
	.st0{fill:#EC1E39;stroke:#EC1E39;stroke-width:0.25;stroke-miterlimit:10;}
	.st1{fill:none;stroke:#000000;stroke-width:2;stroke-miterlimit:10;}
	.st2{fill:none;stroke:#FFFFFF;stroke-width:2;stroke-miterlimit:10;}
	.st3{fill:#FFFFFF;}
	.st4{fill:#C53A19;}
	.st5{fill:#7D98A9;}
	.st6{fill:#010002;}
	.st7{fill:#030104;}
	.st8{fill-rule:evenodd;clip-rule:evenodd;fill:#EC1E39;}
	.st9{fill:#2F2F2F;}
	.st10{fill-rule:evenodd;clip-rule:evenodd;}
	.st11{fill-rule:evenodd;clip-rule:evenodd;fill:#FFFFFF;}
	.st12{fill:#F44336;}
	.st13{fill:#B1B1B1;}
</style>
<path d="M21,9c-0.1-0.2-0.2-0.3-0.4-0.4l-2.5-0.7l-0.5-3.3c-0.3-1.1-1.2-2-2.4-2h-1.6V1.9c0-0.3-0.2-0.6-0.6-0.6c0,0,0,0,0,0h-2.7
	c-0.3,0-0.6,0.2-0.6,0.6c0,0,0,0,0,0v0.6H8.2C7,2.5,6,3.4,5.8,4.5L5.2,7.9L2.7,8.6C2.5,8.7,2.3,8.8,2.3,9c-0.1,0.2-0.1,0.3,0,0.5
	l3.8,7.3c0.1,0.2,0.4,0.3,0.6,0.3h10.1c0.2,0,0.5-0.1,0.6-0.3l3.8-7.3C21.2,9.4,21.1,9.2,21,9z M15.2,3.8c0.6,0.1,1,0.5,1.2,1
	l0.4,2.7l-4.5-1.3V3.8H15.2z M11.1,3.8v2.4L6.6,7.5l0.4-2.7c0.1-0.6,0.6-1,1.2-1H11.1z M3.8,9.6l7.3-2.1v8.3h-4L3.8,9.6z M16.4,15.9
	h-4V7.5l7.3,2.1L16.4,15.9z"/>
</svg>
