<?xml version="1.0" encoding="utf-8"?>
<!-- Generator: Adobe Illustrator 24.3.0, SVG Export Plug-In . SVG Version: 6.00 Build 0)  -->
<svg version="1.1" id="Layer_1" xmlns="http://www.w3.org/2000/svg" xmlns:xlink="http://www.w3.org/1999/xlink" x="0px" y="0px"
	 viewBox="0 0 18.1 19.7" style="enable-background:new 0 0 18.1 19.7;" xml:space="preserve">
<style type="text/css">
	.st0{fill:#EC1E39;stroke:#EC1E39;stroke-width:0.25;stroke-miterlimit:10;}
	.st1{fill:none;stroke:#000000;stroke-width:2;stroke-miterlimit:10;}
	.st2{fill:none;stroke:#FFFFFF;stroke-width:2;stroke-miterlimit:10;}
	.st3{fill:#FFFFFF;}
	.st4{fill:#C53A19;}
	.st5{fill:#7D98A9;}
	.st6{fill:#010002;}
	.st7{fill:#030104;}
	.st8{fill-rule:evenodd;clip-rule:evenodd;fill:#EC1E39;}
	.st9{fill:#2F2F2F;}
	.st10{fill-rule:evenodd;clip-rule:evenodd;}
	.st11{fill-rule:evenodd;clip-rule:evenodd;fill:#FFFFFF;}
	.st12{fill:#F44336;}
	.st13{fill:#B1B1B1;}
</style>
<path class="st3" d="M16.8,14.8c0-0.1-0.3-0.3-0.9-0.6c-0.2-0.1-0.4-0.2-0.6-0.3c-0.2-0.1-0.5-0.2-0.7-0.4c-0.2-0.1-0.4-0.2-0.6-0.4
	c-0.1-0.1-0.2-0.1-0.3-0.2c-0.2-0.1-0.3-0.2-0.4-0.2c-0.1-0.1-0.2-0.1-0.3-0.1c-0.2,0-0.3,0.1-0.6,0.3s-0.4,0.5-0.6,0.7
	c-0.2,0.3-0.4,0.5-0.6,0.7c-0.1,0.2-0.3,0.3-0.5,0.3c-0.1,0-0.2,0-0.3-0.1c-0.1,0-0.1,0-0.2-0.1c-0.1,0-0.1-0.1-0.3-0.2
	c-0.1-0.1-0.1-0.1-0.2-0.1c-1-0.6-1.9-1.2-2.7-2c-0.8-0.8-1.5-1.7-2-2.7c0-0.2-0.1-0.3-0.3-0.3C4.7,9,4.6,9,4.6,8.9S4.5,8.7,4.5,8.6
	c0-0.2,0.1-0.4,0.3-0.5C5,7.9,5.3,7.6,5.6,7.4c0.3-0.2,0.5-0.4,0.7-0.6c0.2-0.1,0.3-0.3,0.3-0.5c0-0.1,0-0.2-0.1-0.3
	c0-0.2-0.1-0.3-0.2-0.5S6.1,5.3,6.1,5.2C6,5,5.8,4.8,5.7,4.6C5.6,4.4,5.5,4.2,5.3,3.9C5.2,3.7,5.1,3.5,5,3.3C4.8,3,4.6,2.7,4.4,2.4
	H4.2c-0.3,0-0.5,0-0.8,0.1C3.1,2.6,2.9,2.7,2.6,2.8C2.2,2.9,1.8,3.4,1.4,4.1C1,4.8,0.8,5.6,0.8,6.3v0.6c0,0.2,0.1,0.4,0.1,0.7
	S1,8,1.1,8.1c0.1,0.2,0.1,0.4,0.2,0.6s0.1,0.4,0.2,0.6c0.3,0.7,0.6,1.4,0.9,2c0.7,1.1,1.5,2.1,2.4,3c0.9,0.9,1.9,1.8,3,2.4
	c0.6,0.4,1.3,0.7,2,0.9c0.2,0.1,0.4,0.1,0.6,0.2S10.8,18,11,18c0.2,0,0.3,0.1,0.5,0.2c0.2,0.1,0.5,0.1,0.7,0.1h0.6
	c0.7,0,1.5-0.2,2.1-0.6c0.6-0.2,1.1-0.7,1.4-1.2c0.1-0.2,0.2-0.5,0.2-0.8c0.1-0.3,0.1-0.5,0.1-0.8C16.8,14.9,16.8,14.9,16.8,14.8z"
	/>
</svg>
