<?xml version="1.0" encoding="utf-8"?>
<!-- Generator: Adobe Illustrator 24.3.0, SVG Export Plug-In . SVG Version: 6.00 Build 0)  -->
<svg version="1.1" id="Layer_1" xmlns="http://www.w3.org/2000/svg" xmlns:xlink="http://www.w3.org/1999/xlink" x="0px" y="0px"
	 viewBox="0 0 16.1 14.6" style="enable-background:new 0 0 16.1 14.6;" xml:space="preserve">
<style type="text/css">
	.st0{fill:#EC1E39;stroke:#EC1E39;stroke-width:0.25;stroke-miterlimit:10;}
	.st1{fill:none;stroke:#000000;stroke-width:2;stroke-miterlimit:10;}
	.st2{fill:none;stroke:#FFFFFF;stroke-width:2;stroke-miterlimit:10;}
	.st3{fill:#FFFFFF;}
	.st4{fill:#C53A19;}
	.st5{fill:#7D98A9;}
	.st6{fill:#010002;}
	.st7{fill:#030104;}
	.st8{fill-rule:evenodd;clip-rule:evenodd;fill:#EC1E39;}
	.st9{fill:#2F2F2F;}
	.st10{fill-rule:evenodd;clip-rule:evenodd;}
	.st11{fill-rule:evenodd;clip-rule:evenodd;fill:#FFFFFF;}
	.st12{fill:#F44336;}
	.st13{fill:#B1B1B1;}
</style>
<path d="M1.4,7.3l3.2,1.2l1.2,4c0.1,0.2,0.3,0.3,0.5,0.2c0,0,0.1,0,0.1,0l1.8-1.4c0.1-0.2,0.4-0.2,0.5-0.1c0,0,0,0,0.1,0.1l3.2,2.3
	c0.2,0.2,0.5,0,0.6-0.2l2.3-11.3c0.1-0.3-0.2-0.5-0.5-0.4l-13,5C1,6.7,1,7.1,1.4,7.3z M5.6,7.8L11.8,4c0.1-0.1,0.2,0.1,0.1,0.2
	L6.8,8.9C6.6,9.1,6.4,9.4,6.4,9.6l-0.1,1.2c0,0.1-0.1,0.2-0.2,0.2C6,11,6,10.9,6,10.8L5.3,8.5C5.2,8.2,5.3,8,5.6,7.8z"/>
</svg>
