<?xml version="1.0" encoding="utf-8"?>
<!-- Generator: Adobe Illustrator 24.3.0, SVG Export Plug-In . SVG Version: 6.00 Build 0)  -->
<svg version="1.1" id="Layer_1" xmlns="http://www.w3.org/2000/svg" xmlns:xlink="http://www.w3.org/1999/xlink" x="0px" y="0px"
	 viewBox="0 0 18.7 19.7" style="enable-background:new 0 0 18.7 19.7;" xml:space="preserve">
<style type="text/css">
	.st0{fill:#EC1E39;stroke:#EC1E39;stroke-width:0.25;stroke-miterlimit:10;}
	.st1{fill:none;stroke:#000000;stroke-width:2;stroke-miterlimit:10;}
	.st2{fill:none;stroke:#FFFFFF;stroke-width:2;stroke-miterlimit:10;}
	.st3{fill:#FFFFFF;}
	.st4{fill:#C53A19;}
	.st5{fill:#7D98A9;}
	.st6{fill:#010002;}
	.st7{fill:#030104;}
	.st8{fill-rule:evenodd;clip-rule:evenodd;fill:#EC1E39;}
	.st9{fill:#2F2F2F;}
	.st10{fill-rule:evenodd;clip-rule:evenodd;}
	.st11{fill-rule:evenodd;clip-rule:evenodd;fill:#FFFFFF;}
	.st12{fill:#F44336;}
	.st13{fill:#B1B1B1;}
</style>
<path d="M18,14.3c0-0.1-0.3-0.3-0.9-0.6c-0.2-0.1-0.4-0.2-0.6-0.3c-0.2-0.1-0.5-0.2-0.7-0.4c-0.2-0.1-0.4-0.2-0.6-0.4
	c-0.1-0.1-0.2-0.1-0.3-0.2c-0.2-0.1-0.3-0.2-0.4-0.2c-0.1-0.1-0.2-0.1-0.3-0.1c-0.2,0-0.3,0.1-0.6,0.3s-0.4,0.5-0.6,0.7
	c-0.2,0.3-0.4,0.5-0.6,0.7c-0.1,0.2-0.3,0.3-0.5,0.3c-0.1,0-0.2,0-0.3-0.1c-0.1,0-0.1,0-0.2-0.1c-0.1,0-0.1-0.1-0.3-0.2
	c-0.1-0.1-0.1-0.1-0.2-0.1c-1-0.6-1.9-1.2-2.7-2c-0.8-0.8-1.5-1.7-2-2.7C6.1,8.9,6.1,8.8,6.1,8.7C6,8.7,6,8.7,5.9,8.6
	c0-0.1-0.1-0.1-0.1-0.2S5.7,8.2,5.7,8.1c0-0.2,0.1-0.4,0.3-0.5c0.2-0.3,0.5-0.5,0.8-0.7c0.3-0.2,0.5-0.4,0.7-0.6
	C7.7,6.2,7.8,6,7.8,5.8c0-0.1,0-0.2-0.1-0.3c0-0.2-0.1-0.3-0.2-0.5S7.3,4.8,7.3,4.7C7.2,4.5,7,4.3,6.9,4.1C6.8,3.9,6.6,3.7,6.5,3.4
	C6.4,3.2,6.3,3,6.2,2.8C6,2.5,5.8,2.2,5.6,1.9H5.4C5.1,1.9,4.9,2,4.6,2C4.3,2.1,4.1,2.2,3.8,2.3C3.4,2.4,3,2.9,2.6,3.6
	C2.2,4.3,2,5.1,2,5.8v0.6c0,0.2,0.1,0.4,0.1,0.7s0.1,0.4,0.2,0.5C2.3,7.8,2.4,8,2.5,8.2s0.1,0.4,0.2,0.6c0.3,0.7,0.6,1.4,0.9,2
	c0.7,1.1,1.5,2.1,2.4,3c0.9,0.9,1.9,1.8,3,2.4c0.6,0.4,1.3,0.7,2,0.9c0.2,0.1,0.4,0.1,0.6,0.2s0.4,0.1,0.6,0.2
	c0.2,0,0.3,0.1,0.5,0.2c0.2,0.1,0.5,0.1,0.7,0.1H14c0.7,0,1.5-0.2,2.1-0.6c0.6-0.2,1.1-0.7,1.4-1.2c0.1-0.2,0.2-0.5,0.2-0.8
	c0.1-0.3,0.1-0.5,0.1-0.8C18,14.4,18,14.4,18,14.3z"/>
</svg>
