<?xml version="1.0" encoding="utf-8"?>
<!-- Generator: Adobe Illustrator 24.3.0, SVG Export Plug-In . SVG Version: 6.00 Build 0)  -->
<svg version="1.1" id="Layer_1" xmlns="http://www.w3.org/2000/svg" xmlns:xlink="http://www.w3.org/1999/xlink" x="0px" y="0px"
	 viewBox="0 0 20.4 19" style="enable-background:new 0 0 20.4 19;" xml:space="preserve">
<style type="text/css">
	.st0{fill:#EC1E39;stroke:#EC1E39;stroke-width:0.25;stroke-miterlimit:10;}
	.st1{fill:none;stroke:#000000;stroke-width:2;stroke-miterlimit:10;}
	.st2{fill:none;stroke:#FFFFFF;stroke-width:2;stroke-miterlimit:10;}
	.st3{fill:#FFFFFF;}
	.st4{fill:#C53A19;}
	.st5{fill:#7D98A9;}
	.st6{fill:#010002;}
	.st7{fill:#030104;}
	.st8{fill-rule:evenodd;clip-rule:evenodd;fill:#EC1E39;}
	.st9{fill:#2F2F2F;}
	.st10{fill-rule:evenodd;clip-rule:evenodd;}
	.st11{fill-rule:evenodd;clip-rule:evenodd;fill:#FFFFFF;}
	.st12{fill:#F44336;}
	.st13{fill:#B1B1B1;}
</style>
<path class="st11" d="M13.4,10.8c-0.2-0.1-1.1-0.5-1.3-0.6s-0.3-0.1-0.4,0.1S11.1,10.9,11,11s-0.2,0.1-0.4,0
	c-0.6-0.2-1.1-0.5-1.5-0.9C8.6,9.7,8.3,9.3,8,8.8C7.9,8.6,8,8.5,8.1,8.4C8.2,8.2,8.4,8,8.5,7.7c0.1-0.1,0.1-0.2,0-0.3
	c0-0.1-0.4-1-0.6-1.4C7.8,5.6,7.6,5.7,7.5,5.7H7.2C7,5.7,6.8,5.8,6.7,5.9C6.2,6.3,6,6.9,6,7.5c0.1,0.7,0.3,1.4,0.8,2
	c0.8,1.2,1.9,2.2,3.3,2.9c0.4,0.2,0.7,0.3,1.1,0.4c0.4,0.1,0.8,0.1,1.2,0.1c0.5-0.1,1-0.4,1.3-0.9c0.1-0.3,0.2-0.6,0.1-0.9
	C13.7,10.9,13.5,10.9,13.4,10.8z"/>
<path class="st3" d="M10.1,0.7c-4.8,0-8.6,3.9-8.6,8.6c0,1.6,0.5,3.2,1.3,4.6c-0.4,1.2-1,3.5-1,3.5c0,0.1,0,0.2,0.1,0.3
	c0.1,0.1,0.2,0.1,0.3,0.1l3.4-1c4.1,2.5,9.4,1.1,11.8-2.9c0.8-1.3,1.2-2.9,1.2-4.4C18.7,4.6,14.8,0.7,10.1,0.7z M10.1,17.2
	c-1.5,0-3-0.4-4.2-1.2c-0.1,0-0.1,0-0.2,0H5.6l-3,0.9c0.2-0.8,0.6-2.2,0.8-3c0-0.1,0-0.2,0-0.3C1,9.9,2,5,5.7,2.5s8.7-1.4,11.1,2.3
	c2.4,3.7,1.4,8.7-2.3,11.1C13.2,16.8,11.7,17.2,10.1,17.2L10.1,17.2z"/>
</svg>
