<?xml version="1.0" encoding="utf-8"?>
<!-- Generator: Adobe Illustrator 24.3.0, SVG Export Plug-In . SVG Version: 6.00 Build 0)  -->
<svg version="1.1" id="Layer_1" xmlns="http://www.w3.org/2000/svg" xmlns:xlink="http://www.w3.org/1999/xlink" x="0px" y="0px"
	 viewBox="0 0 29.1 26.2" style="enable-background:new 0 0 29.1 26.2;" xml:space="preserve">
<style type="text/css">
	.st0{fill:#EC1E39;stroke:#EC1E39;stroke-width:0.25;stroke-miterlimit:10;}
	.st1{fill:none;stroke:#000000;stroke-width:2;stroke-miterlimit:10;}
	.st2{fill:none;stroke:#FFFFFF;stroke-width:2;stroke-miterlimit:10;}
	.st3{fill:#FFFFFF;}
	.st4{fill:#C53A19;}
	.st5{fill:#7D98A9;}
	.st6{fill:#010002;}
	.st7{fill:#030104;}
	.st8{fill-rule:evenodd;clip-rule:evenodd;fill:#EC1E39;}
	.st9{fill:#2F2F2F;}
	.st10{fill-rule:evenodd;clip-rule:evenodd;}
	.st11{fill-rule:evenodd;clip-rule:evenodd;fill:#FFFFFF;}
	.st12{fill:#F44336;}
	.st13{fill:#B1B1B1;}
</style>
<path d="M20.4,0.2h-12c-3.9,0-7.1,3.2-7.1,7.1v12c0,3.9,3.2,7.1,7.1,7.1h12c3.9,0,7.1-3.2,7.1-7.1v-12C27.4,3.4,24.3,0.2,20.4,0.2z
	 M25.9,19.3c0,3.1-2.5,5.6-5.6,5.6h-12c-3.1,0-5.6-2.5-5.6-5.6v-12c0-3.1,2.5-5.6,5.6-5.6h12c3.1,0,5.6,2.5,5.6,5.6V19.3z"/>
<path d="M14.3,6.2c-4,0-7.2,3.2-7.2,7.2c0,4,3.2,7.2,7.2,7.2s7.2-3.2,7.2-7.2l0,0C21.5,9.4,18.3,6.2,14.3,6.2z M14.3,19
	c-3.1,0-5.6-2.5-5.6-5.6s2.5-5.6,5.6-5.6s5.6,2.5,5.6,5.6C20,16.5,17.4,19,14.3,19L14.3,19z"/>
<path d="M21.7,3.6c-1.2,0-2.1,0.9-2.1,2.1c0,1.2,0.9,2.1,2.1,2.1c1.2,0,2.1-0.9,2.1-2.1c0,0,0,0,0,0C23.8,4.6,22.8,3.6,21.7,3.6z
	 M21.7,6.3c-0.3,0-0.6-0.3-0.6-0.6c0-0.3,0.3-0.6,0.6-0.6c0.3,0,0.6,0.3,0.6,0.6c0,0,0,0,0,0C22.3,6.1,22,6.3,21.7,6.3z"/>
</svg>
