<?xml version="1.0" encoding="utf-8"?>
<!-- Generator: Adobe Illustrator 24.3.0, SVG Export Plug-In . SVG Version: 6.00 Build 0)  -->
<svg version="1.1" id="Layer_1" xmlns="http://www.w3.org/2000/svg" xmlns:xlink="http://www.w3.org/1999/xlink" x="0px" y="0px"
	 viewBox="0 0 22 17.6" style="enable-background:new 0 0 22 17.6;" xml:space="preserve">
<style type="text/css">
	.st0{fill:#EC1E39;stroke:#EC1E39;stroke-width:0.25;stroke-miterlimit:10;}
	.st1{fill:none;stroke:#000000;stroke-width:2;stroke-miterlimit:10;}
	.st2{fill:none;stroke:#FFFFFF;stroke-width:2;stroke-miterlimit:10;}
	.st3{fill:#FFFFFF;}
	.st4{fill:#C53A19;}
	.st5{fill:#7D98A9;}
	.st6{fill:#010002;}
	.st7{fill:#030104;}
	.st8{fill-rule:evenodd;clip-rule:evenodd;fill:#EC1E39;}
	.st9{fill:#2F2F2F;}
	.st10{fill-rule:evenodd;clip-rule:evenodd;}
	.st11{fill-rule:evenodd;clip-rule:evenodd;fill:#FFFFFF;}
	.st12{fill:#F44336;}
	.st13{fill:#B1B1B1;}
</style>
<g id="like">
	<path id="Path_6" d="M19.3,5.5c-0.2-2.8-2.2-4.8-4.7-4.8c-1.6,0-3.2,0.9-4,2.3C9.9,1.6,8.4,0.7,6.8,0.7c-2.4,0-4.4,2-4.7,4.8
		c-0.1,0.6,0,1.2,0.1,1.8c0.4,1.5,1.2,2.9,2.4,4l6,5.5l6.1-5.5c1.2-1.1,2-2.5,2.4-4C19.3,6.7,19.4,6.1,19.3,5.5z M18.6,7.2
		c-0.3,1.4-1.1,2.7-2.2,3.6l-5.7,5.1l-5.6-5.1C4,9.8,3.3,8.6,2.9,7.2c-0.1-0.5-0.2-1-0.1-1.6l0,0c0.2-2.4,1.9-4.2,4-4.2
		c1.6,0,3,1,3.6,2.5l0.3,0.7L11,3.9c0.6-1.5,2.1-2.5,3.7-2.5c2.1,0,3.8,1.8,4,4.2C18.7,6.1,18.7,6.6,18.6,7.2L18.6,7.2z"/>
</g>
</svg>
