<?xml version="1.0" encoding="utf-8"?>
<!-- Generator: Adobe Illustrator 24.3.0, SVG Export Plug-In . SVG Version: 6.00 Build 0)  -->
<svg version="1.1" id="Layer_1" xmlns="http://www.w3.org/2000/svg" xmlns:xlink="http://www.w3.org/1999/xlink" x="0px" y="0px"
	 viewBox="0 0 25.1 26.4" style="enable-background:new 0 0 25.1 26.4;" xml:space="preserve">
<style type="text/css">
	.st0{fill:#EC1E39;stroke:#EC1E39;stroke-width:0.25;stroke-miterlimit:10;}
	.st1{fill:none;stroke:#000000;stroke-width:2;stroke-miterlimit:10;}
	.st2{fill:none;stroke:#FFFFFF;stroke-width:2;stroke-miterlimit:10;}
	.st3{fill:#FFFFFF;}
	.st4{fill:#C53A19;}
	.st5{fill:#7D98A9;}
	.st6{fill:#010002;}
	.st7{fill:#030104;}
	.st8{fill-rule:evenodd;clip-rule:evenodd;fill:#EC1E39;}
	.st9{fill:#2F2F2F;}
	.st10{fill-rule:evenodd;clip-rule:evenodd;}
	.st11{fill-rule:evenodd;clip-rule:evenodd;fill:#FFFFFF;}
	.st12{fill:#F44336;}
	.st13{fill:#B1B1B1;}
</style>
<path d="M22.8,2.4c-0.6-0.6-1.4-0.9-2.2-0.9c-0.9,0-1.7,0.3-2.3,1l-3.2,3.4L4.3,2.6L2.2,4.7C2,4.9,1.9,5.2,1.9,5.6
	c0,0.3,0.1,0.6,0.3,0.8l0.1,0.1l8.1,4.5l-2.9,3.1c-0.2,0.2-0.4,0.4-0.6,0.7l-3.5-0.9L2,15.3c-0.4,0.4-0.4,1.1,0,1.5l0.1,0.1l4,2.1
	l0.2,0.2l2.1,4l0.1,0.1c0.2,0.1,0.5,0.2,0.7,0.2c0.3,0,0.5-0.1,0.7-0.3l1.4-1.4l-0.9-3.6c0.2-0.2,0.5-0.3,0.7-0.5l3.1-2.9l4.5,8.1
	V23l0.1,0.1c0.5,0.4,1.1,0.4,1.6,0l2.1-2.1l-3.2-11l3.4-3.2c0.6-0.6,1-1.4,1-2.2C23.8,3.7,23.4,2.9,22.8,2.4z M21.7,5.9l-3.9,3.7
	l3.3,10.9l-1.4,1.4l-5.1-9.3l-4.4,4.1c-0.2,0.2-0.5,0.4-0.8,0.6l-0.5,0.2l1,3.9L9.3,22l-1.9-3.7l-0.5-0.5l-3.7-1.9l0.6-0.6l3.8,1
	l0.2-0.5C8,15.4,8.2,15.1,8.5,15l4.1-4.4L3.3,5.5l1.4-1.4l10.9,3.3l3.7-4c0.4-0.4,0.9-0.6,1.4-0.6c0.5,0,0.9,0.2,1.2,0.5
	c0.3,0.3,0.5,0.8,0.5,1.2C22.4,5,22.1,5.5,21.7,5.9z"/>
</svg>
