<?xml version="1.0" encoding="utf-8"?>
<!-- Generator: Adobe Illustrator 24.3.0, SVG Export Plug-In . SVG Version: 6.00 Build 0)  -->
<svg version="1.1" id="Layer_1" xmlns="http://www.w3.org/2000/svg" xmlns:xlink="http://www.w3.org/1999/xlink" x="0px" y="0px"
	 viewBox="0 0 12.3 12.5" style="enable-background:new 0 0 12.3 12.5;" xml:space="preserve">
<style type="text/css">
	.st0{fill:#EC1E39;stroke:#EC1E39;stroke-width:0.25;stroke-miterlimit:10;}
	.st1{fill:none;stroke:#000000;stroke-width:2;stroke-miterlimit:10;}
	.st2{fill:none;stroke:#FFFFFF;stroke-width:2;stroke-miterlimit:10;}
	.st3{fill:#FFFFFF;}
	.st4{fill:#C53A19;}
	.st5{fill:#7D98A9;}
	.st6{fill:#010002;}
	.st7{fill:#030104;}
	.st8{fill-rule:evenodd;clip-rule:evenodd;fill:#EC1E39;}
	.st9{fill:#2F2F2F;}
	.st10{fill-rule:evenodd;clip-rule:evenodd;}
	.st11{fill-rule:evenodd;clip-rule:evenodd;fill:#FFFFFF;}
	.st12{fill:#F44336;}
	.st13{fill:#B1B1B1;}
</style>
<path class="st7" d="M5.2,8.4c-0.3,1.7-0.7,3.3-1.8,4.1C3,10,3.9,8.1,4.3,6.1C3.6,5,4.4,2.6,5.8,3.2C7.6,3.9,4.3,7.5,6.5,8
	c2.4,0.4,3.3-4.1,1.9-5.5c-2.1-2.1-6.1,0-5.6,3c0.1,0.7,0.9,1,0.3,2C1.8,7.1,1.4,6.1,1.4,4.7c0.2-2.2,1.9-3.9,4.1-4.2
	c2.5-0.2,4.9,1,5.2,3.3C11,6.5,9.5,9.4,6.8,9.2C6.2,9,5.6,8.8,5.2,8.4z"/>
</svg>
