<?xml version="1.0" encoding="utf-8"?>
<!-- Generator: Adobe Illustrator 24.3.0, SVG Export Plug-In . SVG Version: 6.00 Build 0)  -->
<svg version="1.1" id="Layer_1" xmlns="http://www.w3.org/2000/svg" xmlns:xlink="http://www.w3.org/1999/xlink" x="0px" y="0px"
	 viewBox="0 0 19.3 19.1" style="enable-background:new 0 0 19.3 19.1;" xml:space="preserve">
<style type="text/css">
	.st0{fill:#EC1E39;stroke:#EC1E39;stroke-width:0.25;stroke-miterlimit:10;}
	.st1{fill:none;stroke:#000000;stroke-width:2;stroke-miterlimit:10;}
	.st2{fill:none;stroke:#FFFFFF;stroke-width:2;stroke-miterlimit:10;}
	.st3{fill:#FFFFFF;}
	.st4{fill:#C53A19;}
	.st5{fill:#7D98A9;}
	.st6{fill:#010002;}
	.st7{fill:#030104;}
	.st8{fill-rule:evenodd;clip-rule:evenodd;fill:#EC1E39;}
	.st9{fill:#2F2F2F;}
	.st10{fill-rule:evenodd;clip-rule:evenodd;}
	.st11{fill-rule:evenodd;clip-rule:evenodd;fill:#FFFFFF;}
	.st12{fill:#F44336;}
	.st13{fill:#B1B1B1;}
</style>
<g id="Page-1">
	<g id="_022---Tape-Measure">
		<path id="Shape" d="M12.2,1.5C11.1,1.3,10,1.3,8.9,1.3c-4,0-7.1,1.6-7.1,3.6v4.8c0,1.6,2,3,5,3.4c-0.8,0.6-1.7,1.2-2.6,1.8
			C4,15,3.9,15.1,3.8,15.3c0,0.2,0.1,0.4,0.2,0.5l4,3.2c0.2,0.2,0.5,0.2,0.7,0c0.7-0.5,1.3-1,2-1.5s1.2-1,1.8-1.6l0,0
			c0.6-0.5,1.1-1,1.6-1.6l0,0l0,0c0.4-0.4,0.8-0.8,1.1-1.2c1-1.1,2.2-2.5,2.5-4.3c0.4-2.2-0.3-4.4-1.8-6C14.8,2,13.6,1.5,12.2,1.5z
			 M8.9,1.9c3.5,0,6.5,1.4,6.5,3c0,1.9-3.8,3-6.5,3c-3.5,0-6.5-1.4-6.5-3S5.3,1.9,8.9,1.9L8.9,1.9z M2.3,9.6V6.3
			c1.1,1.3,3.6,2.1,6.5,2.1c1.6,0,3.1-0.2,4.6-0.8c-1.8,1.7-3.7,3.3-5.8,4.7v-1.5c0-0.2-0.1-0.3-0.3-0.3c-0.2,0-0.3,0.1-0.3,0.3v1.7
			c-0.5-0.1-1-0.2-1.5-0.3v-1.7c0-0.2-0.1-0.3-0.3-0.3c-0.2,0-0.3,0.1-0.3,0.3V12c-0.4-0.1-0.8-0.3-1.2-0.5V9.6
			c0-0.2-0.1-0.3-0.2-0.3c-0.2,0-0.3,0.1-0.3,0.2c0,0,0,0.1,0,0.1v1.5C2.7,10.7,2.4,10.2,2.3,9.6L2.3,9.6z M8.4,18.5l-4-3.2
			c0.5-0.3,0.9-0.6,1.4-1c0.3,0.2,0.6,0.2,0.9,0.2c0.4-0.1,0.7,0.1,0.8,0.5c0,0,0,0.1,0,0.1c0.1,0.7,0.8,1.2,1.5,1.1
			c0.2,0,0.4,0,0.5,0.1c0.2,0.1,0.3,0.3,0.3,0.5c0,0.2,0.1,0.3,0.2,0.5C9.5,17.6,8.9,18.1,8.4,18.5L8.4,18.5z M17.1,8.7
			c-0.1,0.5-0.2,0.9-0.4,1.4l-0.4-0.6c-0.1-0.1-0.3-0.2-0.4-0.1c-0.1,0.1-0.2,0.3-0.1,0.4c0,0,0,0,0,0l0.6,0.8
			c-0.3,0.5-0.6,0.9-1,1.3L14.5,11c-0.1-0.1-0.2-0.1-0.3-0.1c-0.1,0-0.2,0.1-0.2,0.2c0,0.1,0,0.2,0.1,0.3l0.9,1
			c-0.1,0.1-0.1,0.2-0.2,0.3c-0.3,0.3-0.6,0.7-0.9,1l-1.2-1.1c-0.1-0.1-0.2-0.1-0.3-0.1c-0.1,0-0.2,0.1-0.2,0.2c0,0.1,0,0.2,0.1,0.3
			l1.2,1c-0.4,0.4-0.8,0.8-1.2,1.2L10.8,14c-0.1-0.1-0.2-0.1-0.3,0c-0.1,0-0.2,0.1-0.2,0.2c0,0.1,0,0.2,0.1,0.3l1.4,1.2
			c-0.4,0.4-0.8,0.8-1.3,1.1c0-0.1-0.1-0.1-0.1-0.2c-0.1-0.7-0.8-1.1-1.4-1c-0.4,0.1-0.8-0.2-0.8-0.6c0,0,0,0,0,0
			c-0.1-0.7-0.8-1.1-1.5-1H6.4c3.4-2.4,7.4-5.5,9-7.6C15.8,6,16,5.4,16,4.9C16,4,15.4,3.2,14.6,2.7c0.3,0.2,0.6,0.4,0.9,0.6
			C16.8,4.8,17.4,6.8,17.1,8.7L17.1,8.7z"/>
		<path id="Shape-2" d="M8.9,6.6c1.2,0,3.2-0.3,3.8-1.5c0.4-0.8-0.3-1.5-1-2C11,2.8,10.3,2.5,9.5,2.3c-0.2-0.1-0.5,0-0.7,0.1
			C8.8,2.5,8.7,2.6,8.6,2.7C6.5,2.8,5,3.6,5,4.7C5,6.1,7.3,6.6,8.9,6.6L8.9,6.6z M11,5.7l0.1-2.1c0.1,0,0.1,0.1,0.2,0.1
			C12.5,4.4,12.4,5.1,11,5.7L11,5.7z M9.1,3.1L9.1,3.1c0-0.1,0-0.1,0.1-0.2c0.1,0,0.1,0,0.2,0c0.4,0.1,0.8,0.2,1.2,0.4l-0.1,2.6
			C9.9,6,9.4,6.1,8.9,6.1L9.1,3.1z M8.5,3.4L8.3,6C6.7,5.9,5.6,5.2,5.6,4.7S6.8,3.5,8.5,3.4z"/>
		<path id="Shape-3" d="M9.8,4.2c-0.2,0-0.3,0.1-0.3,0.3c0,0,0,0,0,0v0.3c0,0.2,0.2,0.3,0.3,0.2C9.9,5,10,5,10.1,4.8V4.5
			C10.1,4.4,9.9,4.2,9.8,4.2C9.8,4.2,9.8,4.2,9.8,4.2z"/>
		<path id="Shape-4" d="M6.7,15.6c-0.1-0.1-0.3-0.1-0.4,0c-0.1,0.1-0.1,0.3,0,0.4c0,0,0,0,0,0l1.5,1.2c0.1,0.1,0.3,0.1,0.4,0
			c0.1-0.1,0.1-0.3,0-0.4c0,0-0.1,0-0.1-0.1L6.7,15.6z"/>
	</g>
</g>
</svg>
