<?xml version="1.0" encoding="utf-8"?>
<!-- Generator: Adobe Illustrator 24.3.0, SVG Export Plug-In . SVG Version: 6.00 Build 0)  -->
<svg version="1.1" id="Layer_1" xmlns="http://www.w3.org/2000/svg" xmlns:xlink="http://www.w3.org/1999/xlink" x="0px" y="0px"
	 viewBox="0 0 16.5 17.9" style="enable-background:new 0 0 16.5 17.9;" xml:space="preserve">
<style type="text/css">
	.st0{fill:#EC1E39;stroke:#EC1E39;stroke-width:0.25;stroke-miterlimit:10;}
	.st1{fill:none;stroke:#000000;stroke-width:2;stroke-miterlimit:10;}
	.st2{fill:none;stroke:#FFFFFF;stroke-width:2;stroke-miterlimit:10;}
	.st3{fill:#FFFFFF;}
	.st4{fill:#C53A19;}
	.st5{fill:#7D98A9;}
	.st6{fill:#010002;}
	.st7{fill:#030104;}
	.st8{fill-rule:evenodd;clip-rule:evenodd;fill:#EC1E39;}
	.st9{fill:#2F2F2F;}
	.st10{fill-rule:evenodd;clip-rule:evenodd;}
	.st11{fill-rule:evenodd;clip-rule:evenodd;fill:#FFFFFF;}
	.st12{fill:#F44336;}
	.st13{fill:#B1B1B1;}
</style>
<path d="M13.6,4.2h-2.3V4.1c-0.3-1.9-2-3.3-4-3c-1.6,0.2-2.8,1.5-3,3v0.1H2c-0.2,0-0.4,0.1-0.4,0.3v9.7l0,0c0.1,1.4,1.2,2.4,2.6,2.4
	c0,0,0,0,0,0h7.1c1.4,0.1,2.6-1,2.6-2.3l0,0V4.6C14,4.4,13.8,4.2,13.6,4.2C13.6,4.2,13.6,4.2,13.6,4.2z M5,4.1
	C5.1,2.5,6.4,1.4,8,1.5c1.4,0.1,2.5,1.2,2.6,2.6v0.1H5V4.1z"/>
</svg>
