<?xml version="1.0" encoding="utf-8"?>
<!-- Generator: Adobe Illustrator 24.3.0, SVG Export Plug-In . SVG Version: 6.00 Build 0)  -->
<svg version="1.1" id="Layer_1" xmlns="http://www.w3.org/2000/svg" xmlns:xlink="http://www.w3.org/1999/xlink" x="0px" y="0px"
	 viewBox="0 0 13.9 12" style="enable-background:new 0 0 13.9 12;" xml:space="preserve">
<style type="text/css">
	.st0{fill:#EC1E39;stroke:#EC1E39;stroke-width:0.25;stroke-miterlimit:10;}
	.st1{fill:none;stroke:#000000;stroke-width:2;stroke-miterlimit:10;}
	.st2{fill:none;stroke:#FFFFFF;stroke-width:2;stroke-miterlimit:10;}
	.st3{fill:#FFFFFF;}
	.st4{fill:#C53A19;}
	.st5{fill:#7D98A9;}
	.st6{fill:#010002;}
	.st7{fill:#030104;}
	.st8{fill-rule:evenodd;clip-rule:evenodd;fill:#EC1E39;}
	.st9{fill:#2F2F2F;}
	.st10{fill-rule:evenodd;clip-rule:evenodd;}
	.st11{fill-rule:evenodd;clip-rule:evenodd;fill:#FFFFFF;}
	.st12{fill:#F44336;}
	.st13{fill:#B1B1B1;}
</style>
<g id="Page-1-2">
	<g id="_022---Tape-Measure-2">
		<path id="Shape-5" d="M8.7,0.1C7.9,0,7.2,0,6.4,0C3.7,0,1.6,1.1,1.6,2.4v3.2c0,1.1,1.4,2,3.4,2.3L3.2,9.1C3.1,9.2,3,9.3,3,9.5
			c0,0.1,0,0.3,0.1,0.3l2.7,2.1C6,12,6.2,12,6.3,11.9c0.4-0.3,0.9-0.7,1.3-1c0.4-0.3,0.8-0.7,1.2-1l0,0c0.4-0.3,0.7-0.7,1.1-1.1l0,0
			c0.2-0.3,0.5-0.5,0.7-0.8c0.8-0.8,1.4-1.8,1.6-2.9c0.2-1.5-0.2-2.9-1.2-4C10.4,0.6,9.5,0.3,8.7,0.1L8.7,0.1z M6.4,0.4
			c2.4,0,4.4,0.9,4.4,2c0,1.3-2.6,2-4.4,2C4,4.4,2,3.5,2,2.4S4,0.4,6.4,0.4L6.4,0.4z M2,5.6V3.4c1.2,1,2.8,1.5,4.4,1.4
			c1,0,2.1-0.2,3.1-0.5C8.3,5.4,7,6.4,5.6,7.4v-1c0-0.1-0.1-0.2-0.2-0.2c-0.1,0-0.2,0.1-0.2,0.2v1.1c-0.3,0-0.7-0.1-1-0.2V6.2
			C4.2,6.1,4.1,6,4,6C3.9,6,3.8,6.1,3.8,6.2c0,0,0,0,0,0v1C3.5,7.1,3.3,7,3,6.9V5.6c0-0.1-0.1-0.2-0.2-0.2c-0.1,0-0.2,0.1-0.2,0.2v1
			C2.3,6.4,2.1,6,2,5.6L2,5.6z M6.1,11.6L3.4,9.5l1-0.7C4.6,8.9,4.8,9,5,8.9c0.1,0,0.3,0,0.4,0.1c0.1,0.1,0.2,0.2,0.2,0.3
			c0.1,0.5,0.5,0.8,1,0.7c0.3-0.1,0.5,0.1,0.6,0.4c0,0,0,0,0,0c0,0.1,0.1,0.2,0.1,0.3C6.9,11,6.5,11.3,6.1,11.6L6.1,11.6z M12,5
			c0,0.3-0.1,0.6-0.3,0.9l-0.3-0.4c-0.1-0.1-0.2-0.1-0.3,0C11,5.6,11,5.7,11.1,5.8c0,0,0,0,0,0l0.4,0.6c-0.2,0.3-0.4,0.6-0.6,0.9
			l-0.6-0.6c0-0.1-0.1-0.1-0.2-0.1C10,6.6,10,6.6,9.9,6.7c0,0.1,0,0.1,0,0.2l0.6,0.7l-0.1,0.2C10.2,8,10,8.2,9.8,8.4L8.9,7.7
			c-0.1,0-0.1,0-0.2,0c-0.1,0-0.1,0.1-0.1,0.2c0,0.1,0,0.1,0.1,0.2l0.8,0.7C9.2,9,9,9.3,8.7,9.6L7.7,8.7c-0.1,0-0.1,0-0.2,0
			c-0.1,0-0.1,0.1-0.1,0.2c0,0.1,0,0.1,0.1,0.2l0.9,0.8c-0.3,0.3-0.6,0.5-0.9,0.8c0,0,0-0.1,0-0.1C7.4,10,7,9.7,6.5,9.8
			c-0.1,0-0.3,0-0.4-0.1C6,9.6,6,9.5,5.9,9.4C5.9,8.9,5.4,8.6,5,8.6c0,0,0,0,0,0H4.8c2.3-1.6,5-3.7,6-5.1c0.3-0.3,0.4-0.6,0.4-1
			c-0.1-0.6-0.4-1.2-1-1.5c0.2,0.1,0.4,0.2,0.6,0.4C11.7,2.4,12.1,3.7,12,5z"/>
		<path id="Shape-6" d="M6.4,3.6c0.8,0,2.2-0.2,2.5-1c0.2-0.5-0.2-1-0.6-1.3C7.9,1,7.4,0.8,6.9,0.7c-0.2,0-0.3,0-0.4,0.1
			C6.3,0.8,6.3,0.9,6.2,1C4.9,1,3.8,1.6,3.8,2.3C3.8,3.2,5.4,3.6,6.4,3.6L6.4,3.6z M7.9,3L8,1.5l0.1,0.1C8.8,2.1,8.8,2.6,7.9,3
			L7.9,3z M6.6,1.2L6.6,1.2c0,0,0-0.1,0.1-0.1c0,0,0.1,0,0.1,0C7,1.2,7.3,1.3,7.6,1.4L7.5,3.1c-0.3,0.1-0.7,0.1-1,0.1L6.6,1.2z
			 M6.2,1.4L6.1,3.2C4.9,3.1,4.2,2.7,4.2,2.3S5,1.5,6.2,1.4z"/>
		<path id="Shape-7" d="M7,2C6.9,2,6.8,2.1,6.8,2.2l0,0v0.2c0,0.1,0.1,0.2,0.2,0.2c0.1,0,0.2-0.1,0.2-0.2c0,0,0,0,0,0V2.2
			C7.2,2.1,7.1,2,7,2C7,2,7,2,7,2z"/>
		<path id="Shape-8" d="M5,9.7c-0.1-0.1-0.2-0.1-0.3,0s-0.1,0.2,0,0.3c0,0,0,0,0,0l1,0.8c0.1,0.1,0.2,0.1,0.3,0
			c0.1-0.1,0.1-0.2,0-0.3c0,0,0,0,0,0L5,9.7z"/>
	</g>
</g>
</svg>
