<?xml version="1.0" encoding="utf-8"?>
<!-- Generator: Adobe Illustrator 24.3.0, SVG Export Plug-In . SVG Version: 6.00 Build 0)  -->
<svg version="1.1" id="Layer_1" xmlns="http://www.w3.org/2000/svg" xmlns:xlink="http://www.w3.org/1999/xlink" x="0px" y="0px"
	 viewBox="0 0 16.1 14.2" style="enable-background:new 0 0 16.1 14.2;" xml:space="preserve">
<style type="text/css">
	.st0{fill:#EC1E39;stroke:#EC1E39;stroke-width:0.25;stroke-miterlimit:10;}
	.st1{fill:none;stroke:#000000;stroke-width:2;stroke-miterlimit:10;}
	.st2{fill:none;stroke:#FFFFFF;stroke-width:2;stroke-miterlimit:10;}
	.st3{fill:#FFFFFF;}
	.st4{fill:#C53A19;}
	.st5{fill:#7D98A9;}
	.st6{fill:#010002;}
	.st7{fill:#030104;}
	.st8{fill-rule:evenodd;clip-rule:evenodd;fill:#EC1E39;}
	.st9{fill:#2F2F2F;}
	.st10{fill-rule:evenodd;clip-rule:evenodd;}
	.st11{fill-rule:evenodd;clip-rule:evenodd;fill:#FFFFFF;}
	.st12{fill:#F44336;}
	.st13{fill:#B1B1B1;}
</style>
<path class="st6" d="M15,3c-0.5,0.2-1.1,0.4-1.6,0.5c0.6-0.4,1-0.9,1.3-1.6c-0.6,0.3-1.2,0.6-1.8,0.7c-0.5-0.6-1.3-0.9-2.1-0.9
	c-1.6-0.1-2.9,1.1-3,2.7c0,0,0,0.1,0,0.1c0,0.2,0,0.5,0.1,0.7C5.6,5.1,3.4,4,2,2.2C1.7,2.6,1.6,3.1,1.6,3.6c0,1,0.5,1.9,1.3,2.4
	C2.4,6,1.9,5.9,1.6,5.6c0,1.4,1,2.5,2.3,2.8C3.6,8.6,3.4,8.6,3.1,8.6c-0.2,0-0.4,0-0.5-0.1c0.3,1.2,1.4,2,2.6,2
	c-1,0.8-2.3,1.2-3.6,1.2H0.9C2.2,12.5,3.7,13,5.3,13c4.4,0.1,8-3.5,8.1-7.9c0-0.1,0-0.1,0-0.2V4.5C14,4.1,14.6,3.6,15,3z"/>
</svg>
