<?xml version="1.0" encoding="utf-8"?>
<!-- Generator: Adobe Illustrator 24.3.0, SVG Export Plug-In . SVG Version: 6.00 Build 0)  -->
<svg version="1.1" id="Layer_1" xmlns="http://www.w3.org/2000/svg" xmlns:xlink="http://www.w3.org/1999/xlink" x="0px" y="0px"
	 viewBox="0 0 17.9 18.6" style="enable-background:new 0 0 17.9 18.6;" xml:space="preserve">
<style type="text/css">
	.st0{fill:#EC1E39;stroke:#EC1E39;stroke-width:0.25;stroke-miterlimit:10;}
	.st1{fill:none;stroke:#000000;stroke-width:2;stroke-miterlimit:10;}
	.st2{fill:none;stroke:#FFFFFF;stroke-width:2;stroke-miterlimit:10;}
	.st3{fill:#FFFFFF;}
	.st4{fill:#C53A19;}
	.st5{fill:#7D98A9;}
	.st6{fill:#010002;}
	.st7{fill:#030104;}
	.st8{fill-rule:evenodd;clip-rule:evenodd;fill:#EC1E39;}
	.st9{fill:#2F2F2F;}
	.st10{fill-rule:evenodd;clip-rule:evenodd;}
	.st11{fill-rule:evenodd;clip-rule:evenodd;fill:#FFFFFF;}
	.st12{fill:#F44336;}
	.st13{fill:#B1B1B1;}
</style>
<g id="user-2">
	<path id="Path_5-2" class="st4" d="M12.5,10.6L12.5,10.6l-0.3-0.1l-0.4-0.1l-0.3-0.1l-0.5-0.1h-0.2l0,0l-0.3-0.1h-0.1h-0.2H10
		c-0.3,0-0.7,0-1,0H8.8H8.5l0,0H8.3H8l-0.5,0.1l-0.3,0.1H7.1c-0.2,0.1-0.5,0.2-0.7,0.3H6.4l0,0c-2.6,1.2-4.2,3.8-4.2,6.7v0.2v0.4
		h14.6v-0.4c0-0.1,0-0.1,0-0.2C16.8,14.4,15.1,11.8,12.5,10.6z M2.8,17.3c0-2.6,1.5-4.9,3.8-6h0.1l0,0l0.5-0.2h0.1L7.6,11L8,10.9
		h0.2h0.2l0,0h0.3h0.2c0.3,0,0.7,0,1,0h0.2h0.2h0.1l0.3,0.1l0,0h0.1l0.4,0.1l0.3,0.1c0.1,0,0.2,0.1,0.3,0.1l0.3,0.1l0,0
		c2.4,1.1,3.9,3.4,3.9,6L2.8,17.3z M7.7,9l0.2,0.1h0.1l0.1,0.1C8.5,9.3,9,9.3,9.4,9.4l0,0c0.2,0,0.3,0,0.5,0H10h0.1h0.2h0.1h0.1h0.2
		h0.1H11l0.2-0.1h0.1l0,0l0.3-0.1h0.1C11.7,9.1,11.9,9,12,8.9l0.2-0.1l0.2-0.1C13.4,7.8,14,6.5,14,5.1l0,0c0.1-2.6-1.9-4.7-4.5-4.8
		C7,0.3,4.8,2.3,4.8,4.9v0.1c0,0.1,0,0.2,0,0.2C4.9,6.9,6,8.3,7.7,9L7.7,9z M5.6,4.6L5.6,4.6c0.2-2.2,2-3.8,4.2-3.7
		c2,0.1,3.6,1.8,3.6,3.8l0,0c0,1.2-0.5,2.3-1.4,3l-0.2,0.1L11.6,8l-0.3,0.2h-0.1l-0.2,0.1H11l-0.2,0.1h-0.1h-0.1h-0.1h-0.2h-0.1
		h-0.1H10H9.9H9.5l0,0c-0.4,0-0.8-0.1-1.2-0.2H8.2H8.1H8C6.5,7.5,5.6,6.1,5.6,4.6C5.6,4.6,5.6,4.6,5.6,4.6L5.6,4.6z"/>
</g>
</svg>
