<?xml version="1.0" encoding="utf-8"?>
<!-- Generator: Adobe Illustrator 24.3.0, SVG Export Plug-In . SVG Version: 6.00 Build 0)  -->
<svg version="1.1" id="Layer_1" xmlns="http://www.w3.org/2000/svg" xmlns:xlink="http://www.w3.org/1999/xlink" x="0px" y="0px"
	 viewBox="0 0 42.1 54.7" style="enable-background:new 0 0 42.1 54.7;" xml:space="preserve">
<style type="text/css">
	.st0{fill:#EC1E39;stroke:#EC1E39;stroke-width:0.25;stroke-miterlimit:10;}
	.st1{fill:none;stroke:#000000;stroke-width:2;stroke-miterlimit:10;}
	.st2{fill:none;stroke:#FFFFFF;stroke-width:2;stroke-miterlimit:10;}
	.st3{fill:#FFFFFF;}
	.st4{fill:#C53A19;}
	.st5{fill:#7D98A9;}
	.st6{fill:#010002;}
	.st7{fill:#030104;}
	.st8{fill-rule:evenodd;clip-rule:evenodd;fill:#EC1E39;}
	.st9{fill:#2F2F2F;}
	.st10{fill-rule:evenodd;clip-rule:evenodd;}
	.st11{fill-rule:evenodd;clip-rule:evenodd;fill:#FFFFFF;}
	.st12{fill:#F44336;}
	.st13{fill:#B1B1B1;}
</style>
<path class="st12" d="M11.6,0.4C11.1-0.1,10.3,0,9.9,0.5C9.5,0.9,9.5,1.6,9.9,2l25.3,25.3L9.8,52.7c-0.5,0.5-0.5,1.2,0,1.7
	c0.5,0.5,1.2,0.5,1.7,0l0,0l26.2-26.2c0.5-0.5,0.5-1.2,0-1.7L11.6,0.4z"/>
<path class="st13" d="M10.7,54.7c-0.7,0-1.2-0.6-1.2-1.2c0-0.3,0.1-0.6,0.3-0.8l25.3-25.4L9.8,2c-0.5-0.5-0.5-1.2,0-1.7
	c0.5-0.5,1.2-0.5,1.7,0l0,0l26.2,26.2c0.5,0.5,0.5,1.2,0,1.7c0,0,0,0,0,0L11.6,54.4C11.3,54.6,11,54.8,10.7,54.7z"/>
</svg>
