<?xml version="1.0" encoding="utf-8"?>
<!-- Generator: Adobe Illustrator 24.3.0, SVG Export Plug-In . SVG Version: 6.00 Build 0)  -->
<svg version="1.1" id="Layer_1" xmlns="http://www.w3.org/2000/svg" xmlns:xlink="http://www.w3.org/1999/xlink" x="0px" y="0px"
	 viewBox="0 0 20.4 18.4" style="enable-background:new 0 0 20.4 18.4;" xml:space="preserve">
<style type="text/css">
	.st0{fill:#EC1E39;stroke:#EC1E39;stroke-width:0.25;stroke-miterlimit:10;}
	.st1{fill:none;stroke:#000000;stroke-width:2;stroke-miterlimit:10;}
	.st2{fill:none;stroke:#FFFFFF;stroke-width:2;stroke-miterlimit:10;}
	.st3{fill:#FFFFFF;}
	.st4{fill:#C53A19;}
	.st5{fill:#7D98A9;}
	.st6{fill:#010002;}
	.st7{fill:#030104;}
	.st8{fill-rule:evenodd;clip-rule:evenodd;fill:#EC1E39;}
	.st9{fill:#2F2F2F;}
	.st10{fill-rule:evenodd;clip-rule:evenodd;}
	.st11{fill-rule:evenodd;clip-rule:evenodd;fill:#FFFFFF;}
	.st12{fill:#F44336;}
	.st13{fill:#B1B1B1;}
</style>
<path class="st3" d="M14.2,1H6.4C3.9,1,1.9,3,1.9,5.6v7.7c0,2.5,2,4.6,4.6,4.6h7.7c2.5,0,4.6-2,4.6-4.6V5.6C18.7,3,16.7,1,14.2,1z
	 M17.7,13.3c0,2-1.6,3.6-3.6,3.6H6.4c-2,0-3.6-1.6-3.6-3.6c0,0,0,0,0,0V5.6c0-2,1.6-3.6,3.6-3.6c0,0,0,0,0,0h7.7
	c2,0,3.6,1.6,3.6,3.6V13.3z"/>
<path class="st3" d="M10.3,4.8c-2.5,0-4.6,2.1-4.6,4.6c0,2.5,2.1,4.6,4.6,4.6c2.5,0,4.6-2.1,4.6-4.6c0,0,0,0,0,0
	C14.9,6.9,12.8,4.8,10.3,4.8z M10.3,13c-2,0-3.6-1.6-3.6-3.6c0-2,1.6-3.6,3.6-3.6s3.6,1.6,3.6,3.6l0,0C13.9,11.4,12.3,13,10.3,13z"
	/>
<path class="st3" d="M15,3.2c-0.8,0-1.4,0.6-1.4,1.4c0,0.8,0.6,1.4,1.4,1.4c0.8,0,1.4-0.6,1.4-1.4l0,0C16.3,3.8,15.7,3.2,15,3.2z
	 M15,4.9c-0.2,0-0.4-0.2-0.4-0.4c0,0,0,0,0,0c0-0.2,0.2-0.3,0.4-0.3c0.2,0,0.3,0.2,0.3,0.3C15.3,4.7,15.2,4.9,15,4.9z"/>
</svg>
