<?xml version="1.0" encoding="utf-8"?>
<!-- Generator: Adobe Illustrator 24.3.0, SVG Export Plug-In . SVG Version: 6.00 Build 0)  -->
<svg version="1.1" id="Layer_1" xmlns="http://www.w3.org/2000/svg" xmlns:xlink="http://www.w3.org/1999/xlink" x="0px" y="0px"
	 viewBox="0 0 28 24" style="enable-background:new 0 0 28 24;" xml:space="preserve">
<style type="text/css">
	.st0{fill:#EC1E39;stroke:#EC1E39;stroke-width:0.25;stroke-miterlimit:10;}
	.st1{fill:none;stroke:#000000;stroke-width:2;stroke-miterlimit:10;}
	.st2{fill:none;stroke:#FFFFFF;stroke-width:2;stroke-miterlimit:10;}
	.st3{fill:#FFFFFF;}
	.st4{fill:#C53A19;}
	.st5{fill:#7D98A9;}
	.st6{fill:#010002;}
	.st7{fill:#030104;}
	.st8{fill-rule:evenodd;clip-rule:evenodd;fill:#EC1E39;}
	.st9{fill:#2F2F2F;}
	.st10{fill-rule:evenodd;clip-rule:evenodd;}
	.st11{fill-rule:evenodd;clip-rule:evenodd;fill:#FFFFFF;}
	.st12{fill:#F44336;}
	.st13{fill:#B1B1B1;}
</style>
<g id="like-3">
	<path id="Path_6-3" class="st4" d="M25.7,8.7c-0.3-3.8-3-6.5-6.3-6.5c-2.2,0-4.3,1.2-5.4,3.1c-1.1-1.9-3.1-3.1-5.3-3.1
		c-3.4,0-6,2.7-6.4,6.5c-0.1,0.8,0,1.7,0.2,2.5c0.5,2.1,1.6,4,3.2,5.4L14,24l8.3-7.4c1.6-1.4,2.7-3.3,3.2-5.4
		C25.7,10.3,25.8,9.5,25.7,8.7z M24.6,10.9c-0.5,1.9-1.5,3.7-3,5l-7.7,6.9l-7.5-6.9c-1.5-1.3-2.5-3.1-3-5c-0.2-0.7-0.3-1.4-0.2-2.1
		V8.7C3.5,5.4,5.8,3,8.7,3c2.2,0,4.1,1.4,4.9,3.4l0.4,1l0.4-1c0.8-2,2.8-3.4,5-3.4c2.9,0,5.2,2.4,5.5,5.8
		C24.9,9.5,24.8,10.2,24.6,10.9z"/>
</g>
</svg>
