<?xml version="1.0" encoding="utf-8"?>
<!-- Generator: Adobe Illustrator 24.3.0, SVG Export Plug-In . SVG Version: 6.00 Build 0)  -->
<svg version="1.1" id="Layer_1" xmlns="http://www.w3.org/2000/svg" xmlns:xlink="http://www.w3.org/1999/xlink" x="0px" y="0px"
	 viewBox="0 0 14.4 15.3" style="enable-background:new 0 0 14.4 15.3;" xml:space="preserve">
<style type="text/css">
	.st0{fill:#EC1E39;stroke:#EC1E39;stroke-width:0.25;stroke-miterlimit:10;}
	.st1{fill:none;stroke:#000000;stroke-width:2;stroke-miterlimit:10;}
	.st2{fill:none;stroke:#FFFFFF;stroke-width:2;stroke-miterlimit:10;}
	.st3{fill:#FFFFFF;}
	.st4{fill:#C53A19;}
	.st5{fill:#7D98A9;}
	.st6{fill:#010002;}
	.st7{fill:#030104;}
	.st8{fill-rule:evenodd;clip-rule:evenodd;fill:#EC1E39;}
	.st9{fill:#2F2F2F;}
	.st10{fill-rule:evenodd;clip-rule:evenodd;}
	.st11{fill-rule:evenodd;clip-rule:evenodd;fill:#FFFFFF;}
	.st12{fill:#F44336;}
	.st13{fill:#B1B1B1;}
</style>
<path d="M12.5,4.3c-0.2-0.7-0.7-1.4-1.2-1.8C10.5,2,9.6,1.7,8.7,1.6c-1-0.2-2-0.2-3-0.1C4.9,1.6,4.2,1.8,3.5,2.1
	C2.4,2.5,1.6,3.5,1.4,4.7c0,0.5-0.1,1.1-0.2,1.6c-0.1,1,0,2.1,0.3,3.1c0.2,0.8,0.7,1.5,1.4,2l0.6,0.3c0.1,0,0.3,0.1,0.4,0.1
	c0.1,0,0.1,0,0.1,0.1l0,0v2.2h0.5L4.6,14l1.7-1.7l0.1-0.1c0.1-0.1,0.1-0.1,0.2-0.1c0.6,0,1.2,0,1.7-0.1c0.8,0,1.6-0.1,2.3-0.5
	c0.7-0.3,1.2-0.8,1.5-1.4c0.3-0.7,0.5-1.4,0.6-2.2C12.9,6.7,12.8,5.5,12.5,4.3z M9.9,9.9c-0.2,0.3-0.5,0.5-0.8,0.7
	c-0.2,0.1-0.5,0.1-0.7,0C6.5,9.8,4.9,8.4,4,6.6C3.8,6.1,3.6,5.8,3.4,5.4V5.1c0-0.7,0.5-1,1-1.1c0.2,0,0.4,0,0.5,0.2
	c0.4,0.4,0.7,0.8,1,1.2C6,5.6,5.9,5.8,5.8,5.9C5.8,6,5.7,6,5.7,6c0,0,0,0,0,0C5.3,6.3,5.2,6.5,5.4,7c0.4,0.7,1,1.3,1.7,1.6
	c0.2,0.1,0.4,0,0.6-0.1l0.1-0.1C8,8.1,8.4,8,8.8,8.2c0.1,0,0.1,0.1,0.2,0.1c0.3,0.2,0.5,0.4,0.8,0.6C10,9.1,10.1,9.6,9.9,9.9z
	 M7.3,4.8H7c-0.2,0-0.3-0.1-0.3-0.2s0.1-0.3,0.2-0.3h0.4c1.2,0,2.1,1,2.1,2.1v0.4C9.4,6.9,9.3,7,9.2,7C9,6.9,8.9,6.8,8.9,6.6V6.3
	C8.9,5.4,8.1,4.8,7.3,4.8z M8.6,6.4c0,0.2-0.1,0.3-0.3,0.3C8.2,6.7,8,6.6,8,6.4c0-0.5-0.4-0.9-0.9-0.9c0,0,0,0,0,0
	C7.1,5.6,7,5.5,7,5.4c0-0.1,0.1-0.3,0.2-0.3c0,0,0,0,0.1,0C8,5.1,8.6,5.6,8.6,6.4C8.6,6.4,8.6,6.4,8.6,6.4z M10.2,7
	c0,0.1-0.1,0.2-0.3,0.2H9.8C9.6,7.2,9.5,7,9.6,6.9s0.1-0.4,0.1-0.6c0-1.3-1-2.4-2.4-2.4c0,0,0,0,0,0c-0.2,0-0.4,0-0.6,0.1
	C6.5,4,6.4,3.9,6.4,3.8s0.1-0.3,0.2-0.3C6.8,3.5,7,3.4,7.3,3.4c1.7,0,3,1.3,3,3C10.3,6.6,10.2,6.8,10.2,7L10.2,7z"/>
</svg>
