<?xml version="1.0" encoding="utf-8"?>
<!-- Generator: Adobe Illustrator 24.3.0, SVG Export Plug-In . SVG Version: 6.00 Build 0)  -->
<svg version="1.1" id="Layer_1" xmlns="http://www.w3.org/2000/svg" xmlns:xlink="http://www.w3.org/1999/xlink" x="0px" y="0px"
	 viewBox="0 0 19.7 18.8" style="enable-background:new 0 0 19.7 18.8;" xml:space="preserve">
<style type="text/css">
	.st0{fill:#EC1E39;stroke:#EC1E39;stroke-width:0.25;stroke-miterlimit:10;}
	.st1{fill:none;stroke:#000000;stroke-width:2;stroke-miterlimit:10;}
	.st2{fill:none;stroke:#FFFFFF;stroke-width:2;stroke-miterlimit:10;}
	.st3{fill:#FFFFFF;}
	.st4{fill:#C53A19;}
	.st5{fill:#7D98A9;}
	.st6{fill:#010002;}
	.st7{fill:#030104;}
	.st8{fill-rule:evenodd;clip-rule:evenodd;fill:#EC1E39;}
	.st9{fill:#2F2F2F;}
	.st10{fill-rule:evenodd;clip-rule:evenodd;}
	.st11{fill-rule:evenodd;clip-rule:evenodd;fill:#FFFFFF;}
	.st12{fill:#F44336;}
	.st13{fill:#B1B1B1;}
</style>
<g id="like-5">
	<path id="Path_6-5" class="st3" d="M18.1,7.1c-0.2-2.7-2.1-4.6-4.5-4.6c-1.6,0-3,0.8-3.8,2.2C9,3.3,7.6,2.5,6,2.5
		c-2.4,0-4.2,1.9-4.5,4.6c-0.1,0.6,0,1.2,0.1,1.8C2,10.3,2.8,11.7,4,12.7l5.8,5.2l5.9-5.2c1.1-1,1.9-2.3,2.3-3.8
		C18.1,8.3,18.1,7.7,18.1,7.1z M17.3,8.7c-0.3,1.4-1.1,2.6-2.1,3.5L9.8,17l-5.4-4.9c-1-0.9-1.8-2.2-2.1-3.5c-0.1-0.5-0.2-1-0.1-1.5
		l0,0c0.2-2.3,1.8-4,3.9-4c1.5,0,2.9,1,3.4,2.4l0.3,0.7l0.3-0.7c0.6-1.4,2-2.4,3.5-2.4c2,0,3.7,1.7,3.9,4.1
		C17.5,7.7,17.4,8.2,17.3,8.7L17.3,8.7z"/>
</g>
</svg>
