<?xml version="1.0" encoding="utf-8"?>
<!-- Generator: Adobe Illustrator 24.3.0, SVG Export Plug-In . SVG Version: 6.00 Build 0)  -->
<svg version="1.1" id="Layer_1" xmlns="http://www.w3.org/2000/svg" xmlns:xlink="http://www.w3.org/1999/xlink" x="0px" y="0px"
	 viewBox="0 0 22.9 17" style="enable-background:new 0 0 22.9 17;" xml:space="preserve">
<style type="text/css">
	.st0{fill:#EC1E39;stroke:#EC1E39;stroke-width:0.25;stroke-miterlimit:10;}
	.st1{fill:none;stroke:#000000;stroke-width:2;stroke-miterlimit:10;}
	.st2{fill:none;stroke:#FFFFFF;stroke-width:2;stroke-miterlimit:10;}
	.st3{fill:#FFFFFF;}
	.st4{fill:#C53A19;}
	.st5{fill:#7D98A9;}
	.st6{fill:#010002;}
	.st7{fill:#030104;}
	.st8{fill-rule:evenodd;clip-rule:evenodd;fill:#EC1E39;}
	.st9{fill:#2F2F2F;}
	.st10{fill-rule:evenodd;clip-rule:evenodd;}
	.st11{fill-rule:evenodd;clip-rule:evenodd;fill:#FFFFFF;}
	.st12{fill:#F44336;}
	.st13{fill:#B1B1B1;}
</style>
<path class="st10" d="M15.9,10c-0.2-0.1-1.1-0.5-1.3-0.6s-0.3-0.1-0.4,0.1s-0.5,0.6-0.6,0.7s-0.2,0.1-0.4,0
	c-0.6-0.2-1.1-0.5-1.5-0.9c-0.4-0.4-0.8-0.8-1.1-1.3c-0.1-0.2,0-0.3,0.1-0.4c0.2-0.2,0.3-0.4,0.5-0.6c0.1-0.1,0.1-0.2,0-0.3
	c-0.1-0.1-0.4-1-0.6-1.4s-0.3-0.3-0.4-0.3H9.8C9.6,4.9,9.4,5,9.3,5.1c-0.4,0.4-0.7,1-0.7,1.6c0.1,0.7,0.3,1.4,0.8,2
	c0.8,1.2,1.9,2.2,3.2,2.8c0.3,0.2,0.7,0.3,1.1,0.4c0.4,0.1,0.8,0.1,1.2,0.1c0.5-0.1,1-0.4,1.3-0.9c0.1-0.3,0.2-0.6,0.1-0.9
	C16.2,10.1,16.1,10.1,15.9,10z"/>
<path d="M12.7,0C8,0,4.2,3.8,4.2,8.5c0,1.6,0.4,3.2,1.3,4.5c-0.3,1.2-1,3.4-1,3.4c0,0.1,0,0.2,0.1,0.3c0.1,0.1,0.2,0.1,0.3,0.1
	l3.4-1c4,2.4,9.2,1.1,11.6-2.9S21,3.7,17,1.2C15.7,0.5,14.1,0,12.7,0L12.7,0z M12.7,16.3c-1.5,0-2.9-0.4-4.2-1.2c0,0-0.1-0.1-0.2,0
	H8.2L5.3,16c0.2-0.8,0.6-2.2,0.8-3c0-0.1,0-0.2,0-0.3C3.8,9.1,4.8,4.2,8.4,1.9s8.5-1.3,10.8,2.3c2.4,3.6,1.3,8.5-2.3,10.8
	C15.7,15.9,14.2,16.3,12.7,16.3L12.7,16.3z"/>
</svg>
