<?xml version="1.0" encoding="utf-8"?>
<!-- Generator: Adobe Illustrator 24.3.0, SVG Export Plug-In . SVG Version: 6.00 Build 0)  -->
<svg version="1.1" id="Layer_1" xmlns="http://www.w3.org/2000/svg" xmlns:xlink="http://www.w3.org/1999/xlink" x="0px" y="0px"
	 viewBox="0 0 82.5 23" style="enable-background:new 0 0 82.5 23;" xml:space="preserve">
<style type="text/css">
	.st0{fill:#EC1E39;stroke:#EC1E39;stroke-width:0.25;stroke-miterlimit:10;}
	.st1{fill:none;stroke:#000000;stroke-width:2;stroke-miterlimit:10;}
	.st2{fill:none;stroke:#FFFFFF;stroke-width:2;stroke-miterlimit:10;}
	.st3{fill:#FFFFFF;}
	.st4{fill:#C53A19;}
	.st5{fill:#7D98A9;}
	.st6{fill:#010002;}
	.st7{fill:#030104;}
	.st8{fill-rule:evenodd;clip-rule:evenodd;fill:#EC1E39;}
	.st9{fill:#2F2F2F;}
	.st10{fill-rule:evenodd;clip-rule:evenodd;}
	.st11{fill-rule:evenodd;clip-rule:evenodd;fill:#FFFFFF;}
	.st12{fill:#F44336;}
	.st13{fill:#B1B1B1;}
</style>
<path class="st0" d="M1.9,9.1v1.1H1V2h0.9v3.6c0.5-0.8,1.3-1.3,2.2-1.3C5.7,4.3,7,5.6,7,7.1c0,0,0,0.1,0,0.1c0.1,1.6-1.2,2.9-2.7,3
	c0,0-0.1,0-0.1,0C3.3,10.3,2.4,9.9,1.9,9.1z M5.9,7.3C6,6.2,5.2,5.2,4,5.1c-0.1,0-0.1,0-0.2,0c-1.2,0-2.1,1-2,2.2c0,0,0,0,0,0
	C1.8,8.5,2.7,9.5,3.9,9.6c1.1,0,2-0.8,2.1-1.9C6,7.6,6,7.4,5.9,7.3L5.9,7.3z M7.8,11.7l0.3-0.7c0.3,0.2,0.6,0.2,0.9,0.2
	c0.6,0,0.9-0.3,1.2-1.1L7.6,4.4h0.9l2.2,4.9l1.9-4.9h0.9l-2.4,6c-0.5,1.2-1,1.7-2,1.7C8.7,12.1,8.2,12,7.8,11.7L7.8,11.7z"/>
<path class="st8" d="M37.4,19.1l-0.3,0.3c-0.2,0.2-0.6,0.4-0.9,0.4c-0.3,0-0.7,0-1,0c-0.5-0.1-1-0.3-1.3-0.6
	c-0.4-0.3-0.6-0.7-0.8-1.1c-0.2-0.5-0.3-1.1-0.2-1.7c0.1-0.9,0.7-1.6,1.5-2.1c0.3-0.2,0.6-0.3,0.9-0.3c0.3-0.1,0.6-0.1,0.9,0
	c0.4,0.1,0.8,0.2,1.1,0.5l0.1,0.1h0.1c0-0.1,0-0.3,0-0.4s0-0.1,0.2-0.1h1.2c0.2,0,0.2,0,0.2,0.2v2.4c0,1,0,2,0,3
	c0,0.6-0.1,1.2-0.5,1.8c-0.2,0.4-0.6,0.6-1,0.8c-0.3,0.2-0.7,0.2-1,0.3c-0.3,0-0.7,0-1,0c-0.3,0-0.7-0.1-1-0.2
	c-0.4-0.1-0.7-0.3-1-0.5c-0.1-0.1-0.1-0.1,0-0.2c0.2-0.3,0.4-0.6,0.6-0.9c0-0.1,0.1-0.1,0.2,0c0.2,0.2,0.5,0.3,0.8,0.4
	c0.3,0.1,0.6,0.1,0.8,0.1c0.4,0,0.8-0.1,1.2-0.4c0.2-0.2,0.3-0.5,0.4-0.7C37.5,19.7,37.4,19.4,37.4,19.1z M35.9,18.4
	c0.9,0,1.6-0.7,1.6-1.6c0-0.9-0.7-1.6-1.6-1.6c-0.9,0-1.6,0.7-1.6,1.5c-0.1,0.8,0.6,1.6,1.4,1.6C35.8,18.4,35.9,18.4,35.9,18.4z"/>
<path class="st8" d="M37.6,9.3c-0.2,0.1-0.3,0.3-0.5,0.4c-0.2,0.2-0.5,0.3-0.8,0.3c-0.2,0-0.3,0-0.5,0.1c-0.5,0-1.1-0.2-1.5-0.5
	c-0.5-0.4-0.9-0.9-1.1-1.5c-0.1-0.5-0.2-1-0.1-1.5c0.1-0.4,0.2-0.8,0.5-1.2c0.3-0.4,0.6-0.7,1-0.9c0.2-0.1,0.4-0.2,0.6-0.2
	c0.3-0.1,0.6-0.1,0.9-0.1c0.5,0,1,0.2,1.4,0.6l0.2,0.1V4.2h1.5c0,0,0,0.1,0,0.1c0,1.1,0,2.2,0,3.3c0,0.2,0,0.3,0,0.5
	c0,0.7,0,1.5,0,2.2c0,0.3-0.1,0.5-0.2,0.8c-0.2,0.5-0.5,0.8-0.9,1.1c-0.3,0.2-0.7,0.4-1.1,0.4c-0.3,0-0.5,0.1-0.8,0.1
	c-0.5,0-1-0.1-1.5-0.2c-0.3-0.1-0.7-0.3-0.9-0.5c-0.1-0.1-0.1-0.1,0-0.2c0.2-0.3,0.4-0.6,0.6-0.9c0-0.1,0.1-0.1,0.2,0
	c0.3,0.2,0.7,0.4,1.1,0.4c0.3,0,0.7,0,1,0c0.3,0,0.5-0.2,0.7-0.4c0.3-0.3,0.4-0.6,0.4-1C37.6,9.7,37.6,9.5,37.6,9.3z M34.5,7
	c0,0.1,0,0.3,0.1,0.4c0,0.1,0.1,0.2,0.1,0.3C35,8.3,35.4,8.6,36,8.6c0.2,0,0.5,0,0.7-0.1c0.5-0.2,0.9-0.8,0.9-1.4
	c0-0.3,0-0.5-0.1-0.8c-0.3-0.7-1.1-1.1-1.9-0.8C34.9,5.8,34.5,6.4,34.5,7z"/>
<path class="st8" d="M28.4,10.1H27c0,0-0.1-0.1-0.1-0.1s0-0.2,0-0.3c0-0.1,0-0.1,0-0.2c-0.2,0.1-0.3,0.3-0.5,0.4
	c-0.2,0.2-0.5,0.3-0.7,0.3c-0.2,0-0.4,0-0.6,0.1c-0.3,0-0.7-0.1-1-0.2c-0.5-0.2-0.9-0.6-1.2-1c-0.2-0.3-0.3-0.6-0.4-1
	c0-0.3-0.1-0.6-0.1-0.8c0-0.4,0.1-0.8,0.2-1.2c0.1-0.4,0.3-0.8,0.6-1.1c0.3-0.3,0.7-0.6,1.1-0.7c0.3-0.1,0.6-0.2,0.9-0.2
	c0.3,0,0.7,0.1,1,0.2c0.3,0.1,0.5,0.3,0.8,0.4c0-0.1,0-0.1,0-0.2V1.9c0-0.2,0-0.2,0.2-0.2h1.1c0.2,0,0.2,0,0.2,0.2
	c0,2.3,0,4.6,0,6.9L28.4,10.1L28.4,10.1z M25.4,8.9c0.3,0,0.5-0.1,0.8-0.2c0.4-0.2,0.6-0.6,0.7-1.1c0.1-0.5,0-1.1-0.3-1.5
	c-0.4-0.5-1-0.7-1.6-0.6c-0.6,0.2-1,0.6-1.1,1.2c-0.1,0.4-0.1,0.8,0.1,1.2C24.2,8.5,24.8,8.9,25.4,8.9L25.4,8.9z"/>
<path class="st8" d="M54.1,19.3c0,0.1,0,0.2,0,0.2v2.5c0,0.1,0,0.2-0.2,0.2h-1.2c0,0-0.1-0.1-0.1-0.1c0,0,0-0.1,0-0.1v-7.8
	c0-0.2,0-0.2,0.2-0.2h1c0.2,0,0.2,0,0.2,0.2v0.4l0,0c0.1,0,0.1-0.1,0.1-0.1c0.4-0.4,0.9-0.6,1.4-0.6c0.5,0,1,0,1.4,0.3
	c0.6,0.3,1,0.7,1.3,1.3c0.3,0.6,0.4,1.2,0.4,1.8c0,0.5-0.1,1-0.4,1.4c-0.3,0.5-0.7,1-1.3,1.2c-0.4,0.2-0.8,0.3-1.3,0.2
	c-0.4,0-0.8-0.1-1.2-0.3c-0.1-0.1-0.2-0.2-0.4-0.3L54.1,19.3z M57.2,17c0-0.5-0.2-1-0.6-1.3c-0.5-0.4-1.2-0.5-1.7-0.2
	c-0.4,0.2-0.7,0.6-0.8,1c-0.1,0.5-0.1,0.9,0.2,1.4c0.3,0.5,0.8,0.8,1.4,0.8c0.3,0,0.7-0.1,0.9-0.4C57.1,18,57.3,17.5,57.2,17z"/>
<path class="st8" d="M49.3,14.6v-0.4c0-0.1,0-0.1,0.1-0.1h1.3c0.1,0,0.2,0,0.2,0.1c0,1.9,0,3.7,0,5.6c0,0.1,0,0.1-0.1,0.1h-1.2
	c-0.1,0-0.2-0.1-0.2-0.2s0-0.2,0-0.4l0,0l-0.3,0.2c-0.3,0.2-0.6,0.4-0.9,0.5c-0.3,0.1-0.7,0.1-1,0c-0.5-0.1-1-0.3-1.4-0.7
	c-0.3-0.3-0.6-0.7-0.7-1.1c-0.1-0.2-0.1-0.4-0.2-0.6c0-0.3-0.1-0.5-0.1-0.8c0-0.6,0.1-1.1,0.4-1.6c0.3-0.5,0.7-0.9,1.2-1.2
	c0.4-0.2,0.8-0.2,1.2-0.2c0.6,0,1.2,0.2,1.6,0.6L49.3,14.6z M49.3,16.8c0-0.9-0.7-1.6-1.6-1.6c-0.2,0-0.5,0.1-0.7,0.2
	c-0.4,0.3-0.7,0.7-0.7,1.2c-0.1,0.4-0.1,0.8,0.1,1.1c0.2,0.4,0.5,0.8,1,0.9c0.3,0.1,0.7,0.1,1-0.1C49.1,18.3,49.4,17.6,49.3,16.8
	L49.3,16.8z"/>
<path class="st8" d="M60.1,11.5h1.5v3c0.2-0.1,0.3-0.3,0.4-0.4c0.4-0.2,0.8-0.3,1.2-0.3c0.7,0,1.3,0.3,1.7,0.8
	c0.2,0.2,0.3,0.5,0.4,0.8c0.1,0.5,0.1,1,0.1,1.4v2.8c0,0.1,0,0.1,0,0.2H65c-0.3,0-0.5,0-0.8,0c-0.3,0-0.2,0-0.2-0.2
	c0-1.1,0-2.2,0-3.3c0-0.6-0.5-1.1-1.1-1.2c-0.1,0-0.2,0-0.3,0c-0.4,0.1-0.7,0.3-0.9,0.7c-0.1,0.1-0.1,0.3-0.1,0.4v3.3
	c0,0.1,0,0.2-0.2,0.2c-0.4,0-0.8,0-1.2,0c-0.1,0-0.2,0-0.2-0.1v-8.1C60.1,11.6,60.1,11.6,60.1,11.5z"/>
<path class="st8" d="M53.1,4.2h1.4v5.8h-1.3c-0.1,0-0.2-0.1-0.2-0.2s0-0.3,0-0.4l-0.4,0.3c-0.3,0.2-0.6,0.3-0.9,0.4
	c-0.2,0-0.5,0.1-0.7,0.1c-0.4,0-0.9-0.2-1.2-0.4c-0.5-0.3-0.9-0.8-1.1-1.4c-0.2-0.5-0.3-1.1-0.2-1.7c0.1-0.3,0.1-0.6,0.3-0.9
	c0.2-0.4,0.4-0.8,0.8-1.1c0.3-0.3,0.6-0.4,1-0.5c0.3-0.1,0.5-0.1,0.8-0.1c0.6,0,1.2,0.2,1.6,0.6c0,0,0.1,0,0.1,0.1c0,0,0-0.1,0-0.1
	C53.1,4.5,53.1,4.4,53.1,4.2L53.1,4.2z M51.5,8.9c0.3,0,0.6-0.1,0.9-0.3c0.4-0.3,0.7-0.9,0.7-1.4c0-0.3-0.1-0.6-0.2-0.9
	c-0.3-0.7-1.1-1-1.8-0.7c-0.6,0.2-1,0.7-1.1,1.2c-0.1,0.5,0,0.9,0.2,1.3C50.5,8.6,51,8.9,51.5,8.9z"/>
<path class="st8" d="M76,14l-0.5,0.6l-0.6,0.9c-0.3,0.4-0.5,0.7-0.8,1c-0.1,0.1-0.1,0.2,0,0.3c0,0,0,0,0,0l0.9,1.3
	c0.3,0.5,0.7,1,1,1.5v0.1h-0.2h-1.5c-0.1,0-0.2,0-0.2-0.1l-1.1-1.6c-0.1-0.2-0.2-0.4-0.4-0.6c0-0.1-0.1-0.1-0.2-0.1
	c-0.1,0-0.3,0-0.4,0s-0.2,0-0.2,0.2v2c0,0.1,0,0.2-0.2,0.2c-0.4,0-0.8,0-1.1,0c-0.2,0-0.2,0-0.2-0.2v-8.2h1.3c0.1,0,0.2,0,0.2,0.2
	v4.3c0,0.2,0,0.2,0.2,0.2s0.2,0,0.3,0c0.2,0,0.3-0.1,0.4-0.2l0.8-1.1l0.4-0.6c0.1-0.1,0.2-0.2,0.3-0.1c0.5,0,1,0,1.5,0L76,14z"/>
<path class="st8" d="M78.9,20.1c-0.7,0-1.4-0.2-2-0.6c-0.1-0.1-0.3-0.2-0.4-0.3c-0.1-0.1-0.1-0.1,0-0.2c0.2-0.2,0.4-0.5,0.7-0.8
	c0.1-0.1,0.1-0.1,0.2,0c0.3,0.3,0.6,0.5,0.9,0.6c0.1,0,0.2,0.1,0.3,0.1c0.3,0,0.6,0,0.9,0c0.2,0,0.4-0.2,0.4-0.5
	c0-0.2-0.1-0.5-0.3-0.5c-0.3-0.1-0.6-0.2-0.9-0.3c-0.5-0.1-0.9-0.3-1.3-0.6c-0.3-0.2-0.5-0.6-0.5-0.9c0-0.1-0.1-0.2-0.1-0.3
	c0-0.6,0.3-1.1,0.8-1.4c0.3-0.2,0.7-0.3,1.1-0.4c0.1,0,0.3,0,0.4,0c0.6,0,1.3,0.2,1.8,0.5c0.1,0.1,0.3,0.2,0.4,0.4
	c0,0,0.1,0.1,0,0.2c0,0,0,0,0,0c-0.2,0.2-0.4,0.5-0.7,0.7c-0.1,0-0.1,0-0.2,0c-0.2-0.2-0.4-0.3-0.7-0.4c-0.2-0.1-0.5-0.1-0.7-0.1
	c-0.2,0-0.3,0-0.4,0.1c-0.2,0.1-0.4,0.3-0.3,0.5c0,0.2,0.1,0.3,0.3,0.4c0.3,0.1,0.6,0.2,0.8,0.3s0.8,0.3,1.2,0.5
	c0.3,0.2,0.6,0.4,0.7,0.8c0.1,0.2,0.1,0.4,0.1,0.6c0,0.7-0.4,1.3-1,1.5c-0.3,0.2-0.7,0.3-1.1,0.3C79.2,20.1,79.1,20.1,78.9,20.1z"/>
<path class="st8" d="M44.5,2.7h1.4C46,2.7,46,2.8,46,2.8V4c0,0.2,0,0.2,0.2,0.2h1.2c0.1,0,0.2,0,0.2,0.2c0,0.3,0,0.7,0,1
	c0,0.1,0,0.2-0.2,0.2h-1.2c-0.1,0-0.2,0-0.2,0.2c0,0.8,0,1.7,0,2.5c0,0.4,0.3,0.6,0.6,0.7c0.1,0,0.2,0,0.2,0l0.4-0.2
	c0.1-0.1,0.2-0.1,0.2,0s0.3,0.5,0.5,0.8c0.1,0.1,0.1,0.2,0,0.3c-0.3,0.2-0.6,0.3-0.9,0.4c-0.3,0.1-0.7,0.1-1,0
	c-0.5,0-0.9-0.2-1.2-0.6c-0.2-0.2-0.3-0.5-0.3-0.8c-0.1-0.4-0.1-0.7-0.1-1.1c0-0.6,0-1.3,0-1.9c0-0.2,0-0.2-0.2-0.2h-0.7
	c-0.1,0-0.2,0-0.2-0.1V4.3c0-0.1,0-0.1,0.1-0.1h0.8c0.1,0,0.1,0,0.1-0.1c0-0.4,0-0.8,0-1.2C44.5,2.9,44.5,2.8,44.5,2.7z"/>
<path class="st8" d="M22.6,13.5h8.9v1.4h-8.9V13.5z"/>
<path class="st8" d="M56.3,10.1V1.7h1.3c0.1,0,0.2,0,0.2,0.2v8c0,0.1,0,0.2-0.2,0.2L56.3,10.1z"/>
<path class="st8" d="M42.2,14.6c0.2-0.2,0.4-0.4,0.6-0.5c0.2-0.2,0.5-0.2,0.7-0.2c0.3,0,0.7,0,1,0.2c0.1,0,0.1,0.1,0.1,0.2
	c-0.2,0.4-0.4,0.8-0.6,1.3l-0.4-0.1c-0.5-0.2-1,0-1.2,0.4c0,0,0,0.1,0,0.1c-0.1,0.2-0.1,0.4-0.1,0.6c0,1.1,0,2.1,0,3.2
	c0,0.2,0,0.2-0.2,0.2h-1.1c-0.2,0-0.2,0-0.2-0.2v-5.1c0-0.1,0-0.2,0-0.4s0-0.2,0.2-0.2H42c0.1,0,0.2,0.1,0.2,0.2L42.2,14.6z"/>
<path class="st8" d="M40.9,4.2h1.5c0,0.1,0,0.1,0,0.2c0,1.8,0,3.7,0,5.5c0,0.1,0,0.2-0.2,0.2H41c-0.1,0-0.2,0-0.2-0.1
	c0-1.9,0-3.7,0-5.5C40.8,4.3,40.9,4.3,40.9,4.2z"/>
<path class="st8" d="M31.7,10.1h-1.4V4.3h1.4L31.7,10.1z"/>
<path class="st8" d="M67.2,14h1.4c0,0.1,0,0.1,0,0.2c0,1.8,0,3.7,0,5.5c0,0.1,0,0.2-0.2,0.2c-0.4,0-0.8,0-1.1,0
	c-0.1,0-0.1,0-0.1-0.1v-5.6C67.2,14.2,67.2,14.1,67.2,14z"/>
<path class="st8" d="M68.8,12.4c0,0.5-0.4,0.9-0.9,0.9c-0.5,0-0.9-0.4-0.9-0.9s0.4-0.9,0.9-0.9c0,0,0,0,0,0
	C68.4,11.5,68.8,11.9,68.8,12.4z"/>
<path class="st8" d="M41.6,1.7c0.5,0,0.9,0.4,0.9,0.9c0,0,0,0,0,0c0,0.5-0.4,0.8-0.8,0.9c0,0-0.1,0-0.1,0c-0.5,0-0.9-0.4-0.9-0.8
	c0,0,0-0.1,0-0.1C40.8,2,41.1,1.7,41.6,1.7z"/>
<path class="st8" d="M30.1,2.6c0-0.5,0.3-0.8,0.8-0.9c0,0,0,0,0.1,0c0.5,0,0.9,0.4,0.8,0.9c0,0.5-0.4,0.8-0.9,0.8
	C30.5,3.5,30.1,3.1,30.1,2.6C30.1,2.7,30.1,2.6,30.1,2.6z"/>
</svg>
