<?xml version="1.0" encoding="utf-8"?>
<!-- Generator: Adobe Illustrator 24.3.0, SVG Export Plug-In . SVG Version: 6.00 Build 0)  -->
<svg version="1.1" id="Layer_1" xmlns="http://www.w3.org/2000/svg" xmlns:xlink="http://www.w3.org/1999/xlink" x="0px" y="0px"
	 viewBox="0 0 38.6 20.7" style="enable-background:new 0 0 38.6 20.7;" xml:space="preserve">
<style type="text/css">
	.st0{fill:#EC1E39;stroke:#EC1E39;stroke-width:0.25;stroke-miterlimit:10;}
	.st1{fill:none;stroke:#000000;stroke-width:2;stroke-miterlimit:10;}
	.st2{fill:none;stroke:#FFFFFF;stroke-width:2;stroke-miterlimit:10;}
	.st3{fill:#FFFFFF;}
	.st4{fill:#C53A19;}
	.st5{fill:#7D98A9;}
	.st6{fill:#010002;}
	.st7{fill:#030104;}
	.st8{fill-rule:evenodd;clip-rule:evenodd;fill:#EC1E39;}
	.st9{fill:#2F2F2F;}
	.st10{fill-rule:evenodd;clip-rule:evenodd;}
	.st11{fill-rule:evenodd;clip-rule:evenodd;fill:#FFFFFF;}
	.st12{fill:#F44336;}
	.st13{fill:#B1B1B1;}
</style>
<path d="M37.3,11.3l-4.3-5C32.9,6.1,32.6,6,32.4,6h-3.6V3c0-0.4-0.4-0.7-0.8-0.7H12.6c-0.4,0-0.7,0.3-0.7,0.7c0,0,0,0,0,0v1H4.7
	C4.3,4,4,4.3,4,4.7c0,0.4,0.3,0.7,0.7,0.7c0,0,0,0,0,0h7.2v9.7H7.5c-0.4,0-0.7,0.3-0.7,0.7s0.3,0.7,0.7,0.7c0,0,0,0,0,0h4.3v0.8
	c0,0.4,0.3,0.7,0.7,0.7c0,0,0,0,0,0h1.6c0.4,1.5,1.9,2.4,3.4,2c1-0.3,1.7-1,2-2h10c0.4,1.5,1.9,2.4,3.4,2c1-0.3,1.7-1,2-2h1.7
	c0.4,0,0.7-0.3,0.7-0.7c0,0,0,0,0,0v-5.5C37.5,11.6,37.4,11.5,37.3,11.3z M16.9,18.8c-0.7,0-1.3-0.6-1.3-1.3s0.6-1.3,1.3-1.3
	s1.3,0.6,1.3,1.3C18.2,18.2,17.6,18.8,16.9,18.8z M19.6,16.7c-0.4-1.5-1.9-2.4-3.4-2c-1,0.3-1.7,1-2,2h-0.8V3.8h13.9v12.9H19.6z
	 M32.3,18.8c-0.7,0-1.3-0.6-1.3-1.3s0.6-1.3,1.3-1.3c0.7,0,1.3,0.6,1.3,1.3C33.6,18.2,33,18.8,32.3,18.8z M36,16.7h-1
	c-0.4-1.5-1.9-2.4-3.4-2c-1,0.3-1.7,1-2,2h-0.8V7.6H32l4,4.5V16.7z M5.1,15.2H4.7c-0.4,0-0.7,0.3-0.7,0.7c0,0.4,0.3,0.7,0.7,0.7
	c0,0,0,0,0,0h0.4c0.4,0,0.7-0.3,0.7-0.7c0,0,0,0,0,0C5.8,15.5,5.5,15.2,5.1,15.2z"/>
<path d="M8.7,9.6h-8C0.3,9.6,0,9.9,0,10.3S0.3,11,0.7,11c0,0,0,0,0,0h8c0.4,0,0.7-0.3,0.7-0.7c0,0,0,0,0,0C9.5,9.9,9.2,9.6,8.7,9.6z
	"/>
</svg>
