<?xml version="1.0" encoding="utf-8"?>
<!-- Generator: Adobe Illustrator 24.3.0, SVG Export Plug-In . SVG Version: 6.00 Build 0)  -->
<svg version="1.1" id="Layer_1" xmlns="http://www.w3.org/2000/svg" xmlns:xlink="http://www.w3.org/1999/xlink" x="0px" y="0px"
	 viewBox="0 0 18.4 17.9" style="enable-background:new 0 0 18.4 17.9;" xml:space="preserve">
<style type="text/css">
	.st0{fill:#EC1E39;stroke:#EC1E39;stroke-width:0.25;stroke-miterlimit:10;}
	.st1{fill:none;stroke:#000000;stroke-width:2;stroke-miterlimit:10;}
	.st2{fill:none;stroke:#FFFFFF;stroke-width:2;stroke-miterlimit:10;}
	.st3{fill:#FFFFFF;}
	.st4{fill:#C53A19;}
	.st5{fill:#7D98A9;}
	.st6{fill:#010002;}
	.st7{fill:#030104;}
	.st8{fill-rule:evenodd;clip-rule:evenodd;fill:#EC1E39;}
	.st9{fill:#2F2F2F;}
	.st10{fill-rule:evenodd;clip-rule:evenodd;}
	.st11{fill-rule:evenodd;clip-rule:evenodd;fill:#FFFFFF;}
	.st12{fill:#F44336;}
	.st13{fill:#B1B1B1;}
</style>
<path id="Path_1" class="st9" d="M17.1,16l-3.8-3.8c2.4-2.8,2-6.9-0.7-9.3s-6.9-2-9.3,0.7s-2,6.9,0.7,9.3c2.5,2.1,6.2,2.1,8.6-0.1
	l3.8,3.8c0.1,0.1,0.2,0.1,0.3,0.1c0.3,0,0.5-0.2,0.5-0.5C17.3,16.2,17.2,16,17.1,16L17.1,16z M2.7,7.8c0-3.1,2.5-5.7,5.7-5.7
	s5.7,2.5,5.7,5.7c0,3.1-2.5,5.7-5.7,5.7S2.7,11,2.7,7.8C2.7,7.8,2.7,7.8,2.7,7.8z"/>
</svg>
