<?xml version="1.0" encoding="utf-8"?>
<!-- Generator: Adobe Illustrator 24.3.0, SVG Export Plug-In . SVG Version: 6.00 Build 0)  -->
<svg version="1.1" id="Layer_1" xmlns="http://www.w3.org/2000/svg" xmlns:xlink="http://www.w3.org/1999/xlink" x="0px" y="0px"
	 viewBox="0 0 17.7 12.8" style="enable-background:new 0 0 17.7 12.8;" xml:space="preserve">
<style type="text/css">
	.st0{fill:#EC1E39;stroke:#EC1E39;stroke-width:0.25;stroke-miterlimit:10;}
	.st1{fill:none;stroke:#000000;stroke-width:2;stroke-miterlimit:10;}
	.st2{fill:none;stroke:#FFFFFF;stroke-width:2;stroke-miterlimit:10;}
	.st3{fill:#FFFFFF;}
	.st4{fill:#C53A19;}
	.st5{fill:#7D98A9;}
	.st6{fill:#010002;}
	.st7{fill:#030104;}
	.st8{fill-rule:evenodd;clip-rule:evenodd;fill:#EC1E39;}
	.st9{fill:#2F2F2F;}
	.st10{fill-rule:evenodd;clip-rule:evenodd;}
	.st11{fill-rule:evenodd;clip-rule:evenodd;fill:#FFFFFF;}
	.st12{fill:#F44336;}
	.st13{fill:#B1B1B1;}
</style>
<path d="M16.4,5.5h-1.3V4.2h-1.3v1.3h-1.3v1.3h1.3v1.3h1.3V6.8h1.3 M6.7,5.5v1.6h2.7C9,8.3,7.9,9.1,6.7,9C5.1,9,3.8,7.8,3.8,6.2
	s1.3-2.9,2.9-2.9C7.3,3.3,8,3.6,8.5,4.1L9.7,3C9,2,7.9,1.5,6.7,1.5C4.1,1.4,1.9,3.4,1.8,6c-0.1,2.6,1.9,4.8,4.4,4.9
	c0.1,0,0.3,0,0.4,0c2.3,0.1,4.2-1.7,4.3-4c0-0.1,0-0.3,0-0.4c0-0.3,0-0.5-0.1-0.8H6.7L6.7,5.5z"/>
</svg>
