<?xml version="1.0" encoding="utf-8"?>
<!-- Generator: Adobe Illustrator 24.3.0, SVG Export Plug-In . SVG Version: 6.00 Build 0)  -->
<svg version="1.1" id="Layer_1" xmlns="http://www.w3.org/2000/svg" xmlns:xlink="http://www.w3.org/1999/xlink" x="0px" y="0px"
	 viewBox="0 0 27.3 21.7" style="enable-background:new 0 0 27.3 21.7;" xml:space="preserve">
<style type="text/css">
	.st0{fill:#EC1E39;stroke:#EC1E39;stroke-width:0.25;stroke-miterlimit:10;}
	.st1{fill:none;stroke:#000000;stroke-width:2;stroke-miterlimit:10;}
	.st2{fill:none;stroke:#FFFFFF;stroke-width:2;stroke-miterlimit:10;}
	.st3{fill:#FFFFFF;}
	.st4{fill:#C53A19;}
	.st5{fill:#7D98A9;}
	.st6{fill:#010002;}
	.st7{fill:#030104;}
	.st8{fill-rule:evenodd;clip-rule:evenodd;fill:#EC1E39;}
	.st9{fill:#2F2F2F;}
	.st10{fill-rule:evenodd;clip-rule:evenodd;}
	.st11{fill-rule:evenodd;clip-rule:evenodd;fill:#FFFFFF;}
	.st12{fill:#F44336;}
	.st13{fill:#B1B1B1;}
</style>
<path class="st4" d="M16.3,12.8L16.3,12.8L16,12.7l-0.4-0.1l-0.3-0.1l-0.5-0.1h-0.1l0,0h-0.3h0h-0.2H14c-0.3,0-0.7,0-1,0h-0.3h-0.3
	l0,0h-0.2h-0.2l-0.4,0.1l-0.3,0.1h-0.1l-0.6,0.3h-0.1c-2.4,1.2-4,3.7-4,6.4v0.2v0.4h14v-0.4c0-0.1,0-0.1,0-0.2
	C20.4,16.4,18.8,14,16.3,12.8z"/>
<path class="st4" d="M11.7,11.3l0.2,0.1H12l0.1,0c0.4,0.1,0.8,0.2,1.3,0.2l0,0c0.1,0,0.3,0,0.4,0H14h0.1h0.2h0.1h0.1h0.2h0.1h0.1
	l0.2-0.1h0.1l0,0l0.3-0.1h0.1l0.3-0.2l0.2-0.1l0.2-0.1c1-0.8,1.6-2.1,1.6-3.4l0,0c0.1-2.4-1.8-4.5-4.3-4.5S9,4.9,8.9,7.3l0,0V7
	c0,0.1,0,0.1,0,0.2C8.9,9,10,10.6,11.7,11.3z"/>
</svg>
