<svg id="Layer_1" data-name="Layer 1" xmlns="http://www.w3.org/2000/svg" width="85.04" height="655.62" viewBox="0 0 85.04 655.62"><defs><style>.cls-1,.cls-8{fill:#ec1e39;}.cls-1{stroke:#ec1e39;stroke-width:0.25px;}.cls-1,.cls-11,.cls-2{stroke-miterlimit:10;}.cls-2{fill:none;stroke:#000;stroke-width:2px;}.cls-11,.cls-3{fill:#c53a19;}.cls-10,.cls-4{fill:#fff;}.cls-5{fill:#7d98a9;}.cls-6{fill:#010002;}.cls-7{fill:#030104;}.cls-10,.cls-8,.cls-9{fill-rule:evenodd;}.cls-11{stroke:#c53a19;stroke-width:0.5px;}</style></defs><title>sprite-</title><path class="cls-1" d="M9.57,11.51v1.12H8.63V4.38h.94V7.94a2.68,2.68,0,0,1,2.25-1.31,2.87,2.87,0,0,1,2.82,3,2.87,2.87,0,0,1-2.82,3A2.26,2.26,0,0,1,9.57,11.51Zm4-1.79a2.07,2.07,0,0,0-2.06-2.25A2.12,2.12,0,0,0,9.48,9.72,2.19,2.19,0,0,0,11.54,12,2,2,0,0,0,13.6,9.72Zm1.88,4.42.28-.66a1.54,1.54,0,0,0,.94.19c.56,0,.85-.29,1.22-1.13L15.29,6.82h.94l2.16,4.88,1.88-4.88h.94l-2.44,6c-.47,1.22-1,1.69-2,1.69A3.16,3.16,0,0,1,15.48,14.14Z" transform="translate(-4 -4.08)"/><path class="cls-2" d="M26.1,43,41.9,59M42,43.1,26,58.9" transform="translate(-4 -4.08)"/><path d="M34.2,156.2a.77.77,0,0,0-.8-.7H29.3v-1.6a4.85,4.85,0,1,0-9.7,0v1.6h-4a.77.77,0,0,0-.8.7l-1.7,17.9a1.07,1.07,0,0,0,.2.6.86.86,0,0,0,.6.3H35a.86.86,0,0,0,.6-.3.73.73,0,0,0,.2-.6Zm-12.9-2.3a3.22,3.22,0,0,1,3.2-3.2,3.29,3.29,0,0,1,3.2,3.2v1.6H21.3Zm-6.5,19.5,1.5-16.3h3.3V159a1.6,1.6,0,0,0-.8,1.4,1.6,1.6,0,0,0,3.2,0,1.6,1.6,0,0,0-.8-1.4v-1.9h6.5V159a1.6,1.6,0,0,0-.8,1.4,1.6,1.6,0,0,0,3.2,0,1.6,1.6,0,0,0-.8-1.4v-1.9h3.3l1.5,16.2H14.8Z" transform="translate(-4 -4.08)"/><path d="M33.1,179.9a3.1,3.1,0,0,0-2.2-.9,2.9,2.9,0,0,0-2.3,1l-3.2,3.4-10.8-3.3-2.1,2.1a1.22,1.22,0,0,0-.3.9,1.14,1.14,0,0,0,.3.8l.1.1,8.1,4.5-2.9,3.1a4.35,4.35,0,0,0-.6.7l-3.5-.9-1.4,1.4a1.09,1.09,0,0,0,0,1.5l.1.1,4,2.1.2.2,2.1,4,.1.1a1.45,1.45,0,0,0,.7.2.91.91,0,0,0,.7-.3l1.4-1.4-.9-3.6c.2-.2.5-.3.7-.5l3.1-2.9,4.5,8.1v.1l.1.1a1.22,1.22,0,0,0,1.6,0l2.1-2.1-3.2-11,3.4-3.2a3.21,3.21,0,0,0,1-2.2A3.1,3.1,0,0,0,33.1,179.9ZM32,183.4l-3.9,3.7L31.4,198,30,199.4l-5.1-9.3-4.4,4.1a5.55,5.55,0,0,1-.8.6l-.5.2,1,3.9-.6.6-1.9-3.7-.5-.5-3.7-1.9.6-.6,3.8,1,.2-.5a1.56,1.56,0,0,1,.6-.8l4.1-4.4L13.6,183l1.4-1.4,10.9,3.3,3.7-4a2,2,0,0,1,1.4-.6,1.66,1.66,0,0,1,1.2.5,1.85,1.85,0,0,1,.5,1.2A2.35,2.35,0,0,1,32,183.4Z" transform="translate(-4 -4.08)"/><path d="M31.9,213.9a.78.78,0,0,0-.4-.4l-2.5-.7-.5-3.3a2.56,2.56,0,0,0-2.4-2H24.5v-.7a.58.58,0,0,0-.6-.6H21.2a.58.58,0,0,0-.6.6v.6H19a2.47,2.47,0,0,0-2.4,2l-.6,3.4-2.5.7c-.2.1-.4.2-.4.4a.45.45,0,0,0,0,.5l3.8,7.3a.6.6,0,0,0,.6.3H27.6a.71.71,0,0,0,.6-.3l3.8-7.3A1.09,1.09,0,0,0,31.9,213.9ZM26,208.7a1.39,1.39,0,0,1,1.2,1l.4,2.7-4.5-1.3v-2.4Zm-4.1,0v2.4l-4.5,1.3.4-2.7a1.29,1.29,0,0,1,1.2-1Zm-7.3,5.8,7.3-2.1v8.3h-4Zm12.6,6.3h-4v-8.4l7.3,2.1Z" transform="translate(-4 -4.08)"/><path d="M41.3,238,37,233a.6.6,0,0,0-.6-.3H32.8v-3a.77.77,0,0,0-.8-.7H16.6a.68.68,0,0,0-.7.7v1H8.7a.7.7,0,1,0,0,1.4h7.2v9.7H11.5a.7.7,0,1,0,0,1.4h4.3v.8a.68.68,0,0,0,.7.7h1.6a2.79,2.79,0,0,0,5.4,0h10a2.79,2.79,0,0,0,5.4,0h1.7a.68.68,0,0,0,.7-.7v-5.5C41.5,238.3,41.4,238.2,41.3,238Zm-20.4,7.5a1.3,1.3,0,1,1,1.3-1.3A1.32,1.32,0,0,1,20.9,245.5Zm2.7-2.1a2.79,2.79,0,0,0-5.4,0h-.8V230.5H31.3v12.9Zm12.7,2.1a1.3,1.3,0,1,1,1.3-1.3A1.32,1.32,0,0,1,36.3,245.5Zm3.7-2.1H39a2.79,2.79,0,0,0-5.4,0h-.8v-9.1H36l4,4.5ZM9.1,241.9H8.7a.7.7,0,1,0,0,1.4h.4a.68.68,0,0,0,.7-.7A.75.75,0,0,0,9.1,241.9Z" transform="translate(-4 -4.08)"/><path d="M12.7,236.3h-8a.7.7,0,1,0,0,1.4h8a.68.68,0,0,0,.7-.7C13.5,236.6,13.2,236.3,12.7,236.3Z" transform="translate(-4 -4.08)"/><path d="M26.3,290.5a7.89,7.89,0,0,0-5.8,2.5,8.08,8.08,0,0,0-5.8-2.5c-3.9,0-6.7,3.5-6.7,7.7,0,6.4,6.4,11.3,12.1,14.2a1.39,1.39,0,0,0,.9,0c5.6-2.9,12-7.8,12-14.2C33,294,30.2,290.5,26.3,290.5Zm-5.8,19.9c-4.8-2.5-10.5-6.9-10.5-12.2,0-3,1.9-5.7,4.8-5.7a6.09,6.09,0,0,1,4.9,2.6.91.91,0,0,0,.8.4,1,1,0,0,0,.8-.5,6.21,6.21,0,0,1,4.9-2.6c2.9,0,4.8,2.7,4.8,5.7C31,303.5,25.3,307.9,20.5,310.4Z" transform="translate(-4 -4.08)"/><path d="M26.3,317.5a7.89,7.89,0,0,0-5.8,2.5,8.08,8.08,0,0,0-5.8-2.5c-3.9,0-6.7,3.5-6.7,7.7,0,6.4,6.4,11.3,12.1,14.2a1.39,1.39,0,0,0,.9,0c5.6-2.9,12-7.8,12-14.2C33,321,30.2,317.5,26.3,317.5Z" transform="translate(-4 -4.08)"/><path class="cls-3" d="M26.09,70.41a7.89,7.89,0,0,0-5.8,2.5,8.08,8.08,0,0,0-5.8-2.5c-3.9,0-6.7,3.5-6.7,7.7,0,6.4,6.4,11.3,12.1,14.2a1.39,1.39,0,0,0,.9,0c5.6-2.9,12-7.8,12-14.2C32.79,73.91,30,70.41,26.09,70.41Zm-5.8,19.9c-4.8-2.5-10.5-6.9-10.5-12.2,0-3,1.9-5.7,4.8-5.7a6.09,6.09,0,0,1,4.9,2.6.91.91,0,0,0,.8.4,1,1,0,0,0,.8-.5,6.21,6.21,0,0,1,4.9-2.6c2.9,0,4.8,2.7,4.8,5.7C30.79,83.41,25.09,87.81,20.29,90.31Z" transform="translate(-4 -4.08)"/><path class="cls-3" d="M26.09,97.41a7.89,7.89,0,0,0-5.8,2.5,8.08,8.08,0,0,0-5.8-2.5c-3.9,0-6.7,3.5-6.7,7.7,0,6.4,6.4,11.3,12.1,14.2a1.39,1.39,0,0,0,.9,0c5.6-2.9,12-7.8,12-14.2C32.79,100.91,30,97.41,26.09,97.41Z" transform="translate(-4 -4.08)"/><path d="M16,383.5v-9l6,4.5m4-7.6a55.36,55.36,0,0,0-8-.4,55.36,55.36,0,0,0-8,.4c-1.6.5-2,4-2,7.6s.4,7.1,2,7.6a55.36,55.36,0,0,0,8,.4,55.36,55.36,0,0,0,8-.4c1.6-.5,2-4,2-7.6S27.6,371.9,26,371.4Z" transform="translate(-4 -4.08)"/><path d="M21.18,391A5.63,5.63,0,0,0,17,392.82,5.82,5.82,0,0,0,12.82,391C10,391,8,393.55,8,396.61c0,4.66,4.61,8.23,8.71,10.34a1,1,0,0,0,.65,0c4-2.11,8.64-5.68,8.64-10.34C26,393.55,24,391,21.18,391ZM17,405.49c-3.46-1.82-7.56-5-7.56-8.88,0-2.18,1.37-4.15,3.46-4.15a4.38,4.38,0,0,1,3.52,1.89.67.67,0,0,0,.58.29.73.73,0,0,0,.58-.36,4.46,4.46,0,0,1,3.52-1.9c2.09,0,3.46,2,3.46,4.15C24.56,400.47,20.46,403.67,17,405.49Z" transform="translate(-4 -4.08)"/><path d="M20.3,411H12.7A4.69,4.69,0,0,0,8,415.7v7.6a4.69,4.69,0,0,0,4.7,4.7h7.6a4.69,4.69,0,0,0,4.7-4.7v-7.6A4.69,4.69,0,0,0,20.3,411Zm3.2,12.3a3.16,3.16,0,0,1-3.2,3.2H12.7a3.16,3.16,0,0,1-3.2-3.2v-7.6a3.16,3.16,0,0,1,3.2-3.2h7.6a3.16,3.16,0,0,1,3.2,3.2Z" transform="translate(-4 -4.08)"/><path d="M16.5,415.1a4.4,4.4,0,1,0,4.4,4.4A4.44,4.44,0,0,0,16.5,415.1Zm0,7.3a2.9,2.9,0,1,1,2.9-2.9A2.9,2.9,0,0,1,16.5,422.4Zm4.6-8.6a1.14,1.14,0,0,0-.8.3,1.6,1.6,0,0,0-.3.8,1.1,1.1,0,1,0,1.9-.8C21.6,414,21.4,413.8,21.1,413.8Z" transform="translate(-4 -4.08)"/><path class="cls-4" d="M21,622.06h-7.6a4.69,4.69,0,0,0-4.7,4.7v7.6a4.69,4.69,0,0,0,4.7,4.7H21a4.69,4.69,0,0,0,4.7-4.7v-7.6A4.69,4.69,0,0,0,21,622.06Zm3.2,12.3a3.16,3.16,0,0,1-3.2,3.2h-7.6a3.16,3.16,0,0,1-3.2-3.2v-7.6a3.16,3.16,0,0,1,3.2-3.2H21a3.16,3.16,0,0,1,3.2,3.2Z" transform="translate(-4 -4.08)"/><path class="cls-4" d="M17.18,626.16a4.4,4.4,0,1,0,4.4,4.4A4.44,4.44,0,0,0,17.18,626.16Zm0,7.3a2.9,2.9,0,1,1,2.9-2.9A2.9,2.9,0,0,1,17.18,633.46Zm4.6-8.6a1.14,1.14,0,0,0-.8.3,1.6,1.6,0,0,0-.3.8,1.1,1.1,0,1,0,1.9-.8C22.28,625.06,22.08,624.86,21.78,624.86Z" transform="translate(-4 -4.08)"/><path d="M24,444.4q0-.15-.9-.6a1.63,1.63,0,0,0-.6-.3,4.35,4.35,0,0,1-.7-.4,2.09,2.09,0,0,1-.6-.4,1.24,1.24,0,0,0-.3-.2c-.2-.1-.3-.2-.4-.2a.37.37,0,0,0-.3-.1c-.2,0-.3.1-.6.3s-.4.5-.6.7a4.35,4.35,0,0,1-.6.7.91.91,0,0,1-.5.3.37.37,0,0,1-.3-.1.35.35,0,0,1-.2-.1c-.1,0-.1-.1-.3-.2a.31.31,0,0,0-.2-.1,13.5,13.5,0,0,1-2.7-2,11.84,11.84,0,0,1-2-2.7.35.35,0,0,1-.1-.2.35.35,0,0,1-.2-.1c0-.1-.1-.1-.1-.2s-.1-.2-.1-.3a.91.91,0,0,1,.3-.5,5,5,0,0,1,.8-.7,3.74,3.74,0,0,0,.7-.6.91.91,0,0,0,.3-.5.37.37,0,0,0-.1-.3c0-.2-.1-.3-.2-.5s-.2-.2-.2-.3a6.13,6.13,0,0,0-.4-.6,5.74,5.74,0,0,0-.4-.7,1.63,1.63,0,0,0-.3-.6,6.38,6.38,0,0,0-.6-.9h-.2a2.49,2.49,0,0,0-.8.1,3.39,3.39,0,0,0-.8.3c-.4.1-.8.6-1.2,1.3a4.87,4.87,0,0,0-.6,2.2v.6c0,.2.1.4.1.7s.1.4.2.5a3.93,3.93,0,0,0,.2.6,3.93,3.93,0,0,1,.2.6c.3.7.6,1.4.9,2a15.77,15.77,0,0,0,2.4,3,12.63,12.63,0,0,0,3,2.4,6.11,6.11,0,0,0,2,.9,3.93,3.93,0,0,1,.6.2,3.93,3.93,0,0,0,.6.2,1.69,1.69,0,0,1,.5.2,1.7,1.7,0,0,0,.7.1H20a4.2,4.2,0,0,0,2.1-.6,2.88,2.88,0,0,0,1.4-1.2,1.55,1.55,0,0,0,.2-.8,2.49,2.49,0,0,0,.1-.8C24,444.5,24,444.5,24,444.4Z" transform="translate(-4 -4.08)"/><path d="M21.3,455h-2v-1.1a2.11,2.11,0,0,0-.5-1.3,1.43,1.43,0,0,0-1.2-.6H14.5a1.76,1.76,0,0,0-1.3.6,1.76,1.76,0,0,0-.6,1.3V455h-2L8.5,468h15Zm-3.1,0H13.7v-1.1a.55.55,0,0,1,.3-.5.55.55,0,0,1,.5-.2h3.1a.52.52,0,0,1,.4.2c.1.2.2.3.2.5Z" transform="translate(-4 -4.08)"/><path d="M19.49,477a3.55,3.55,0,0,0-1.25-1.82,5.64,5.64,0,0,0-2.51-.87,11,11,0,0,0-3-.1,7.45,7.45,0,0,0-2.21.58,3.56,3.56,0,0,0-2.12,2.6A10.18,10.18,0,0,1,8.23,479a8.14,8.14,0,0,0,.28,3.08,3.56,3.56,0,0,0,1.45,2l.58.29c.09,0,.28.09.38.09a.1.1,0,0,1,.1.1v2.21h.48l.09-.09L13.33,485l.09-.09c.1-.1.1-.1.2-.1a10.1,10.1,0,0,0,1.73-.1,5.18,5.18,0,0,0,2.31-.48,2.86,2.86,0,0,0,1.54-1.44,7.53,7.53,0,0,0,.58-2.21A10.89,10.89,0,0,0,19.49,477Zm-2.6,5.59a2.49,2.49,0,0,1-.77.67.81.81,0,0,1-.68,0A8.46,8.46,0,0,1,11,479.31c-.2-.48-.39-.86-.58-1.25v-.29c0-.67.48-1,1-1.15.19,0,.39,0,.48.19a6.24,6.24,0,0,1,1,1.25.47.47,0,0,1-.1.58.1.1,0,0,1-.1.1c-.38.29-.48.48-.29,1a3.65,3.65,0,0,0,1.74,1.64.63.63,0,0,0,.57-.1l.1-.1a.74.74,0,0,1,1.16-.19,6.43,6.43,0,0,1,.77.58A.78.78,0,0,1,16.89,482.59Zm-2.6-5.1H14c-.19,0-.29-.1-.29-.2s.1-.29.19-.29h.39a2.15,2.15,0,0,1,2.12,2.12v.39a.21.21,0,0,1-.2.19c-.19-.1-.28-.19-.28-.39V479A1.6,1.6,0,0,0,14.29,477.49Zm1.35,1.63a.29.29,0,0,1-.58,0,.86.86,0,0,0-.87-.86.21.21,0,0,1-.19-.2.26.26,0,0,1,.29-.29A1.32,1.32,0,0,1,15.64,479.12Zm1.54.58c0,.1-.1.19-.29.19h-.1c-.19,0-.29-.19-.19-.29s.1-.38.1-.57a2.39,2.39,0,0,0-2.41-2.41,1.19,1.19,0,0,0-.58.1c-.19,0-.29-.1-.29-.2s.1-.29.2-.29a1.72,1.72,0,0,1,.67-.09,3,3,0,0,1,3,3A1.31,1.31,0,0,1,17.18,479.7Z" transform="translate(-4 -4.08)"/><path d="M22.44,496.09H21.11v-1.33H19.78v1.33H18.45v1.33h1.33v1.33h1.33v-1.42h1.33m-9.78-1.24v1.62h2.66a2.7,2.7,0,0,1-2.66,1.9,2.85,2.85,0,1,1,0-5.7,2.14,2.14,0,0,1,1.8.76l1.24-1.14a3.75,3.75,0,0,0-3-1.43,4.66,4.66,0,1,0,0,9.31A4.16,4.16,0,0,0,17,497a1.75,1.75,0,0,0-.1-.76H12.66Z" transform="translate(-4 -4.08)"/><path class="cls-5" d="M14.72,520.6a1,1,0,0,0,1-1v-3.88l5.68-3.6v-1.42l-5.68,1.8v-3.88l1.42-1v-1.05l-2.46.67-2.46-.76v1l1.42,1.14v3.88L8,510.66v1.42l5.68,3.5v3.88A1.07,1.07,0,0,0,14.72,520.6Z" transform="translate(-4 -4.08)"/><path class="cls-6" d="M22,526.5a9.83,9.83,0,0,1-1.6.5,3.44,3.44,0,0,0,1.3-1.6,6.7,6.7,0,0,1-1.8.7,2.72,2.72,0,0,0-2.1-.9,2.85,2.85,0,0,0-3,2.8,2,2,0,0,0,.1.7,8.12,8.12,0,0,1-5.9-3,2.3,2.3,0,0,0-.4,1.4,2.81,2.81,0,0,0,1.3,2.4,2,2,0,0,1-1.3-.4,2.89,2.89,0,0,0,2.3,2.8,1.2,1.2,0,0,1-.8.2.75.75,0,0,1-.5-.1,2.67,2.67,0,0,0,2.6,2,5.58,5.58,0,0,1-3.6,1.2H7.9a8.39,8.39,0,0,0,4.4,1.3,8,8,0,0,0,8.1-8.1V528A4.63,4.63,0,0,0,22,526.5Z" transform="translate(-4 -4.08)"/><path d="M8.4,546.8l3.2,1.2,1.2,4a.4.4,0,0,0,.6.2l1.8-1.4a.38.38,0,0,1,.6,0l3.2,2.3c.2.2.5,0,.6-.2l2.3-11.3c.1-.3-.2-.5-.5-.4l-13,5C8,546.2,8,546.6,8.4,546.8Zm4.2.5,6.2-3.8c.1-.1.2.1.1.2l-5.1,4.7a1.61,1.61,0,0,0-.4.7l-.1,1.2a.15.15,0,1,1-.3,0l-.7-2.3C12.2,547.7,12.3,547.5,12.6,547.3Z" transform="translate(-4 -4.08)"/><path d="M14,557a5.46,5.46,0,0,0-5.63,5.26,5.39,5.39,0,0,0,2,4v2.16l2.06-1.13a4.38,4.38,0,0,0,1.6.19A5.27,5.27,0,1,0,14,557Zm.56,7-1.4-1.6-2.63,1.5,2.91-3.09,1.4,1.41,2.54-1.41Z" transform="translate(-4 -4.08)"/><path d="M18,575.68A5.54,5.54,0,0,0,14,574a5.6,5.6,0,0,0-5.58,5.58,6.58,6.58,0,0,0,.65,2.7l-.65,2.61a.35.35,0,0,0,.09.28c.09.09.09.09.18.09h.1l2.7-.74a5.92,5.92,0,0,0,2.51.65,5.6,5.6,0,0,0,5.58-5.59A5.45,5.45,0,0,0,18,575.68Zm-1.39,5.77c-.1.28-.66.55-.93.65a2.18,2.18,0,0,1-.75-.1,1.84,1.84,0,0,1-.84-.27,6.07,6.07,0,0,1-2.23-2,2.47,2.47,0,0,1-.56-1.4,1.71,1.71,0,0,1,.47-1.11.37.37,0,0,1,.37-.19h.28c.09,0,.18,0,.28.19.09.37.37,1,.37,1.11s.09.19,0,.19,0,.19-.09.19-.1.18-.19.28-.09.09-.09.28a11.44,11.44,0,0,0,.74.93,4.2,4.2,0,0,0,1,.65.17.17,0,0,0,.27,0c.19-.19.38-.47.47-.56a.35.35,0,0,1,.28-.09,9.8,9.8,0,0,1,.93.46c.09.09.19.09.28.19A2.07,2.07,0,0,1,16.61,581.45Z" transform="translate(-4 -4.08)"/><path class="cls-7" d="M12.2,598.9c-.3,1.7-.7,3.3-1.8,4.1-.4-2.5.5-4.4.9-6.4-.7-1.1.1-3.5,1.5-2.9,1.8.7-1.5,4.3.7,4.8,2.4.4,3.3-4.1,1.9-5.5-2.1-2.1-6.1,0-5.6,3,.1.7.9,1,.3,2-1.3-.4-1.7-1.4-1.7-2.8a4.68,4.68,0,0,1,4.1-4.2c2.5-.2,4.9,1,5.2,3.3.3,2.7-1.2,5.6-3.9,5.4A3.46,3.46,0,0,1,12.2,598.9Z" transform="translate(-4 -4.08)"/><path d="M9.4,609.3V611H8.2v2H9.4v6h2.5v-6h1.7a11.69,11.69,0,0,0,.2-2H11.9v-1.4a.64.64,0,0,1,.5-.5h1.4V607H12C9.3,607,9.4,609,9.4,609.3Z" transform="translate(-4 -4.08)"/><path class="cls-8" d="M45.06,21.48l-.33.27a1.73,1.73,0,0,1-.88.4,5.14,5.14,0,0,1-1,0,2.48,2.48,0,0,1-1.33-.59,2.69,2.69,0,0,1-.8-1.12,3.49,3.49,0,0,1-.19-1.72A2.86,2.86,0,0,1,42,16.66a2.5,2.5,0,0,1,.87-.3,2.59,2.59,0,0,1,.92,0,2.24,2.24,0,0,1,1.12.5l.12.09.09,0c0-.14,0-.27,0-.39s0-.15.15-.15h1.16c.16,0,.19,0,.19.2V19c0,1,0,2,0,3a3.11,3.11,0,0,1-.48,1.75,2.27,2.27,0,0,1-1,.8,2.76,2.76,0,0,1-1,.27,7,7,0,0,1-1,0,8.21,8.21,0,0,1-1-.17,2.94,2.94,0,0,1-1-.48c-.11-.07-.13-.13,0-.24.2-.29.39-.6.59-.9.05-.08.09-.11.2,0a3.47,3.47,0,0,0,.78.37,2.42,2.42,0,0,0,.84.13,1.66,1.66,0,0,0,1.15-.39,1.44,1.44,0,0,0,.41-.73A4.72,4.72,0,0,0,45.06,21.48Zm-1.48-.66A1.58,1.58,0,1,0,42,19.19,1.53,1.53,0,0,0,43.58,20.82Z" transform="translate(-4 -4.08)"/><path class="cls-8" d="M45.26,11.66c-.19.14-.34.27-.51.38a1.8,1.8,0,0,1-.8.32,4.45,4.45,0,0,1-.5.05,2.52,2.52,0,0,1-1.5-.47,2.71,2.71,0,0,1-1.08-1.54,3.86,3.86,0,0,1-.1-1.51,2.55,2.55,0,0,1,.47-1.19,2.73,2.73,0,0,1,1-.89,2.17,2.17,0,0,1,.6-.22,3.53,3.53,0,0,1,.86-.07,2.11,2.11,0,0,1,1.44.55l.15.11V6.65h1.46s0,.07,0,.11c0,1.09,0,2.18,0,3.27a4.34,4.34,0,0,1,0,.51c0,.73,0,1.46,0,2.19a2.55,2.55,0,0,1-.21.75,2.42,2.42,0,0,1-.92,1.11,2.75,2.75,0,0,1-1.14.41,5,5,0,0,1-.76.07,4.36,4.36,0,0,1-1.48-.23,2.89,2.89,0,0,1-.93-.46c-.08-.06-.1-.1,0-.2.21-.3.4-.61.6-.92.05-.07.1-.11.2,0a2.44,2.44,0,0,0,1.06.45,4.36,4.36,0,0,0,1,0,1.16,1.16,0,0,0,.73-.36,1.46,1.46,0,0,0,.42-1C45.28,12.11,45.26,11.9,45.26,11.66ZM42.18,9.44c0,.15,0,.3.09.45a1.19,1.19,0,0,0,.12.29,1.49,1.49,0,0,0,1.25.84,1.43,1.43,0,0,0,.7-.13,1.48,1.48,0,0,0,.91-1.36,1.87,1.87,0,0,0-.13-.77,1.52,1.52,0,0,0-1.89-.82A1.66,1.66,0,0,0,42.18,9.44Z" transform="translate(-4 -4.08)"/><path class="cls-8" d="M36.09,12.47H34.7s-.08-.06-.09-.09,0-.2,0-.3a1.24,1.24,0,0,0,0-.16c-.18.14-.34.28-.51.4a1.65,1.65,0,0,1-.73.29,4.32,4.32,0,0,1-.62.05,2.18,2.18,0,0,1-1-.21,2.69,2.69,0,0,1-1.2-1,2.48,2.48,0,0,1-.41-1c0-.28-.1-.55-.13-.82a3.44,3.44,0,0,1,.18-1.19,2.8,2.8,0,0,1,.58-1.07,2.69,2.69,0,0,1,1.13-.74,2.89,2.89,0,0,1,.92-.18,2.31,2.31,0,0,1,1,.22c.26.12.5.29.77.45a.65.65,0,0,0,0-.16V4.3c0-.21,0-.21.21-.21h1.09c.15,0,.19,0,.19.18,0,2.3,0,4.59,0,6.89v1.31Zm-3-1.19a1.33,1.33,0,0,0,.76-.23A1.53,1.53,0,0,0,34.57,10a1.85,1.85,0,0,0-.3-1.49,1.53,1.53,0,0,0-1.64-.57,1.57,1.57,0,0,0-1.1,1.19,1.84,1.84,0,0,0,.1,1.2A1.62,1.62,0,0,0,33.07,11.28Z" transform="translate(-4 -4.08)"/><path class="cls-8" d="M61.79,21.75c0,.09,0,.16,0,.22v2.55c0,.13,0,.17-.18.17H60.44s-.08-.06-.11-.1a.17.17,0,0,1,0-.1V16.66c0-.22,0-.22.23-.22H61.6c.17,0,.18,0,.18.19V17h0a.86.86,0,0,0,.14-.13,2.09,2.09,0,0,1,1.43-.63,2.63,2.63,0,0,1,1.38.26A2.66,2.66,0,0,1,66,17.82a3.71,3.71,0,0,1,.36,1.79A3.11,3.11,0,0,1,66,21a2.73,2.73,0,0,1-1.26,1.25,2.79,2.79,0,0,1-1.28.25,2.52,2.52,0,0,1-1.21-.33,3.26,3.26,0,0,1-.36-.29Zm3.12-2.37a1.67,1.67,0,0,0-.57-1.33,1.46,1.46,0,0,0-1.72-.18,1.59,1.59,0,0,0-.79,1.05A1.79,1.79,0,0,0,62,20.28a1.48,1.48,0,0,0,1.41.8,1.4,1.4,0,0,0,.92-.37A1.64,1.64,0,0,0,64.91,19.38Z" transform="translate(-4 -4.08)"/><path class="cls-8" d="M57,17v-.44c0-.11,0-.14.14-.14H58.4c.11,0,.15,0,.15.15q0,2.79,0,5.58c0,.1,0,.14-.14.14h-1.2c-.14,0-.18-.06-.18-.19s0-.25,0-.38h0l-.27.23a2,2,0,0,1-.89.45,2.56,2.56,0,0,1-1,0,2.5,2.5,0,0,1-1.4-.68,2.9,2.9,0,0,1-.74-1.09,2.51,2.51,0,0,1-.15-.6,7.38,7.38,0,0,1-.07-.81,2.89,2.89,0,0,1,.42-1.57,2.61,2.61,0,0,1,1.22-1.17,2.91,2.91,0,0,1,1.24-.23,2.06,2.06,0,0,1,1.59.64Zm0,2.23a1.57,1.57,0,0,0-2.28-1.39A1.61,1.61,0,0,0,54,19a1.8,1.8,0,0,0,.11,1.15,1.52,1.52,0,0,0,1,.92,1.3,1.3,0,0,0,1-.06A1.71,1.71,0,0,0,57,19.25Z" transform="translate(-4 -4.08)"/><path class="cls-8" d="M67.79,13.9h1.5v3c.16-.13.3-.26.45-.36a2.8,2.8,0,0,1,1.16-.34,2.21,2.21,0,0,1,1.75.78,2.25,2.25,0,0,1,.4.84,5.29,5.29,0,0,1,.12,1.43v2.82c0,.06,0,.12,0,.2h-.54c-.26,0-.53,0-.79,0s-.18,0-.18-.17c0-1.11,0-2.21,0-3.32a1.14,1.14,0,0,0-1.41-1.13,1.08,1.08,0,0,0-.88.71,1.2,1.2,0,0,0-.08.42v3.31c0,.13,0,.18-.17.18-.39,0-.79,0-1.18,0-.11,0-.15,0-.15-.15V14S67.79,14,67.79,13.9Z" transform="translate(-4 -4.08)"/><path class="cls-8" d="M60.79,6.65h1.42v5.81H60.92c-.12,0-.16-.05-.15-.16s0-.26,0-.43l-.42.34a1.82,1.82,0,0,1-.89.38,3.73,3.73,0,0,1-.74.05,2.89,2.89,0,0,1-1.24-.41,3,3,0,0,1-1.1-1.42,3.4,3.4,0,0,1-.23-1.69,4.11,4.11,0,0,1,.26-.91,2.83,2.83,0,0,1,.79-1.14,2.11,2.11,0,0,1,1-.51A3.6,3.6,0,0,1,59,6.46a2.28,2.28,0,0,1,1.64.62.45.45,0,0,0,.12.06.74.74,0,0,0,0-.14c0-.1,0-.2,0-.3Zm-1.58,4.63a1.37,1.37,0,0,0,.87-.3,1.71,1.71,0,0,0,.68-1.41,1.77,1.77,0,0,0-.23-.92,1.5,1.5,0,0,0-1.79-.74,1.58,1.58,0,0,0-1.08,1.24,1.76,1.76,0,0,0,.2,1.34A1.59,1.59,0,0,0,59.21,11.28Z" transform="translate(-4 -4.08)"/><path class="cls-8" d="M83.66,16.44l-.46.65-.63.85c-.26.35-.51.71-.78,1a.24.24,0,0,0,0,.35l.93,1.34c.35.51.69,1,1,1.52l0,.1-.15,0H82.1a.23.23,0,0,1-.22-.11L80.8,20.59c-.13-.19-.25-.38-.39-.57a.26.26,0,0,0-.19-.09c-.14,0-.28,0-.43,0s-.16,0-.16.17v2.05c0,.13,0,.18-.18.18-.37,0-.75,0-1.12,0-.2,0-.2,0-.2-.19V13.91h1.3c.13,0,.16,0,.16.16v4.27c0,.22,0,.22.22.23s.21,0,.31,0a.4.4,0,0,0,.37-.21l.8-1.14.42-.62a.33.33,0,0,1,.28-.15c.5,0,1,0,1.51,0Z" transform="translate(-4 -4.08)"/><path class="cls-8" d="M86.61,22.51a3.76,3.76,0,0,1-2-.59,3.06,3.06,0,0,1-.39-.34c-.08-.06-.07-.12,0-.2.22-.24.45-.5.66-.75.06-.08.1-.08.17,0a2.38,2.38,0,0,0,.9.57.77.77,0,0,0,.26.07,6.77,6.77,0,0,0,.9,0,.54.54,0,0,0,.45-.48.53.53,0,0,0-.35-.55,8,8,0,0,0-.93-.34,4.45,4.45,0,0,1-1.31-.6,1.34,1.34,0,0,1-.53-.92c0-.1-.05-.19-.05-.28a1.69,1.69,0,0,1,.79-1.4,2.32,2.32,0,0,1,1.14-.36,2.58,2.58,0,0,1,.39,0,3.58,3.58,0,0,1,1.81.51,2.93,2.93,0,0,1,.41.38.11.11,0,0,1,0,.17c-.23.25-.45.5-.69.74a.18.18,0,0,1-.16,0,2,2,0,0,0-.65-.43,1.65,1.65,0,0,0-.73-.12,3.54,3.54,0,0,0-.45.08.5.5,0,0,0-.35.53.49.49,0,0,0,.31.37c.28.12.56.22.85.32s.82.27,1.21.45a1.33,1.33,0,0,1,.68.79,1.94,1.94,0,0,1,.11.63,1.7,1.7,0,0,1-1,1.55,2.47,2.47,0,0,1-1.1.26A1.41,1.41,0,0,0,86.61,22.51Z" transform="translate(-4 -4.08)"/><path class="cls-8" d="M52.2,5.11h1.39c.1,0,.09.07.09.13V6.41c0,.22,0,.23.23.23h1.22c.11,0,.15,0,.15.15,0,.33,0,.66,0,1,0,.12,0,.17-.18.17H53.87c-.12,0-.17,0-.17.16,0,.83,0,1.66,0,2.5a.64.64,0,0,0,.85.62l.37-.16c.14-.08.16-.08.24,0s.32.53.48.8c.06.09.09.17,0,.27a2.43,2.43,0,0,1-.89.42,2.13,2.13,0,0,1-1,0A1.67,1.67,0,0,1,52.58,12a2.17,2.17,0,0,1-.32-.77,4.05,4.05,0,0,1-.07-1.1c0-.64,0-1.28,0-1.92,0-.24,0-.24-.25-.24h-.65c-.11,0-.15,0-.15-.14V6.75c0-.09,0-.11.12-.11h.8c.1,0,.14,0,.14-.14,0-.4,0-.79,0-1.18C52.19,5.26,52.2,5.19,52.2,5.11Z" transform="translate(-4 -4.08)"/><path class="cls-8" d="M30.27,15.93H39.2v1.42H30.27Z" transform="translate(-4 -4.08)"/><path class="cls-8" d="M64,12.47V4.09H65.3c.14,0,.18,0,.18.18v8c0,.13,0,.18-.17.18Z" transform="translate(-4 -4.08)"/><path class="cls-8" d="M49.82,17c.21-.18.38-.35.56-.48a1.25,1.25,0,0,1,.72-.25,1.59,1.59,0,0,1,1,.2c.07,0,.12.08.07.18-.19.42-.37.84-.56,1.27l-.39-.14a.91.91,0,0,0-1.24.52,1.91,1.91,0,0,0-.13.62c0,1.06,0,2.11,0,3.16,0,.21,0,.21-.21.21H48.53c-.19,0-.2,0-.2-.21V17c0-.11,0-.23,0-.35s0-.2.19-.2h1.13c.14,0,.19.06.18.19Z" transform="translate(-4 -4.08)"/><path class="cls-8" d="M48.52,6.65H50c0,.06,0,.1,0,.15,0,1.84,0,3.68,0,5.51,0,.14,0,.17-.17.17H48.66c-.11,0-.15,0-.15-.15,0-1.85,0-3.69,0-5.54C48.51,6.75,48.52,6.71,48.52,6.65Z" transform="translate(-4 -4.08)"/><path class="cls-8" d="M39.33,12.47H37.89V6.66h1.44Z" transform="translate(-4 -4.08)"/><path class="cls-8" d="M74.9,16.44h1.43a1,1,0,0,1,0,.17c0,1.84,0,3.69,0,5.53,0,.14,0,.18-.19.18-.38,0-.75,0-1.13,0-.11,0-.14,0-.14-.14V16.57S74.9,16.49,74.9,16.44Z" transform="translate(-4 -4.08)"/><path class="cls-8" d="M76.48,14.77a.88.88,0,1,1-.87-.88A.88.88,0,0,1,76.48,14.77Z" transform="translate(-4 -4.08)"/><path class="cls-8" d="M49.24,4.08a.88.88,0,0,1,.9.89.84.84,0,0,1-.9.86.86.86,0,0,1-.87-.93A.91.91,0,0,1,49.24,4.08Z" transform="translate(-4 -4.08)"/><path class="cls-8" d="M37.76,5a.83.83,0,0,1,.86-.86.89.89,0,0,1,.85.91.85.85,0,0,1-.86.81A.81.81,0,0,1,37.76,5Z" transform="translate(-4 -4.08)"/><path class="cls-9" d="M25.62,267.92a8.54,8.54,0,0,0-13.43,10.3L11,282.64l4.53-1.18a8.48,8.48,0,0,0,4.07,1h0a8.53,8.53,0,0,0,6-14.57Zm-6,13.13h0a7.05,7.05,0,0,1-3.61-1l-.25-.15-2.69.7.72-2.61-.17-.27a7.09,7.09,0,1,1,6,3.32Zm3.89-5.31c-.21-.11-1.26-.62-1.46-.69s-.34-.11-.48.1-.55.7-.67.84-.25.16-.47.05A5.6,5.6,0,0,1,18.69,275a6.73,6.73,0,0,1-1.19-1.47c-.12-.22,0-.32.1-.44a6.36,6.36,0,0,0,.53-.73.37.37,0,0,0,0-.37c-.05-.11-.48-1.16-.66-1.59S17.11,270,17,270h-.4a.75.75,0,0,0-.57.27,2.37,2.37,0,0,0-.75,1.78,4.08,4.08,0,0,0,.87,2.2,9.5,9.5,0,0,0,3.64,3.22,12.78,12.78,0,0,0,1.22.45,2.89,2.89,0,0,0,1.34.09,2.18,2.18,0,0,0,1.44-1,1.8,1.8,0,0,0,.13-1C23.83,275.9,23.69,275.85,23.48,275.74Z" transform="translate(-4 -4.08)"/><path class="cls-10" d="M23.28,645a8.44,8.44,0,0,0-6-2.51,8.54,8.54,0,0,0-7.4,12.8l-1.21,4.43,4.52-1.19a8.56,8.56,0,0,0,4.08,1h0A8.55,8.55,0,0,0,25.78,651,8.43,8.43,0,0,0,23.28,645Zm-6,13.13h0a7.15,7.15,0,0,1-3.61-1l-.26-.16-2.68.71.72-2.62-.17-.27a7.09,7.09,0,1,1,6,3.33Zm3.89-5.32c-.22-.1-1.26-.62-1.46-.69s-.34-.11-.48.11-.55.69-.67.83-.25.16-.47.06a6.07,6.07,0,0,1-1.71-1.06,6.64,6.64,0,0,1-1.19-1.48c-.12-.21,0-.32.1-.43a6.36,6.36,0,0,0,.53-.73.42.42,0,0,0,0-.38c0-.1-.48-1.15-.66-1.58s-.35-.36-.48-.37h-.4a.77.77,0,0,0-.57.26,2.39,2.39,0,0,0-.75,1.78,4.17,4.17,0,0,0,.87,2.21,9.58,9.58,0,0,0,3.64,3.22,12.78,12.78,0,0,0,1.22.45,2.87,2.87,0,0,0,1.34.08,2.19,2.19,0,0,0,1.44-1,1.84,1.84,0,0,0,.13-1C21.49,653,21.35,652.91,21.14,652.8Z" transform="translate(-4 -4.08)"/><path class="cls-11" d="M17.37,135.48a8.19,8.19,0,0,0-8.18,8.18.36.36,0,1,0,.71,0,7.47,7.47,0,0,1,14.94,0,.36.36,0,1,0,.71,0A8.19,8.19,0,0,0,17.37,135.48Z" transform="translate(-4 -4.08)"/><path class="cls-11" d="M17.37,126.9a3.91,3.91,0,1,0,3.91,3.91A3.92,3.92,0,0,0,17.37,126.9Zm0,7.11a3.2,3.2,0,1,1,3.2-3.2A3.2,3.2,0,0,1,17.37,134Z" transform="translate(-4 -4.08)"/><path class="cls-3" d="M17.74,355.31a8.19,8.19,0,0,0-8.18,8.18.36.36,0,0,0,.72,0,7.47,7.47,0,1,1,14.93,0,.36.36,0,0,0,.72,0A8.19,8.19,0,0,0,17.74,355.31Z" transform="translate(-4 -4.08)"/><path class="cls-3" d="M17.74,346.73a3.91,3.91,0,1,0,3.92,3.91A3.92,3.92,0,0,0,17.74,346.73Zm0,7.11a3.2,3.2,0,1,1,3.21-3.2A3.2,3.2,0,0,1,17.74,353.84Z" transform="translate(-4 -4.08)"/><polygon class="cls-3" points="5.92 359.73 21.66 359.69 20.66 355.55 17.17 352.42 13.12 351.68 9.7 352.55 7.02 355.42 5.92 359.73"/><ellipse class="cls-3" cx="13.64" cy="346.49" rx="3.33" ry="3.35"/></svg>