<?xml version="1.0" encoding="UTF-8"?><!DOCTYPE svg PUBLIC "-//W3C//DTD SVG 1.1//EN" "http://www.w3.org/Graphics/SVG/1.1/DTD/svg11.dtd"><svg xmlns="http://www.w3.org/2000/svg" xmlns:xlink="http://www.w3.org/1999/xlink" height="623" viewBox="0 0 141 623" width="141"><svg height="12.2" viewBox="0 0 133 13" width="132.2" x="4" y="4"><path d="M2 8v1.2H1V.4h1v3.8c.5-.7 1.2-1.4 2.4-1.4 1.5 0 3 1.2 3 3.2s-1.5 3.2-3 3.2c-1.2.1-2-.5-2.4-1.2zm4.3-1.9c0-1.5-1-2.4-2.2-2.4s-2.2 1-2.2 2.4S3 8.5 4.1 8.5c1.3 0 2.2-.9 2.2-2.4zm2 4.7l.3-.7c.3.2.6.2 1 .2.6 0 .9-.3 1.3-1.2L8.1 3h1l2.3 5.2 2-5.2h1l-2.6 6.4c-.5 1.3-1.1 1.8-2.1 1.8-.6 0-.9-.2-1.4-.4zM23 .8h6.2v1.3h-4.8v2.3h4.2v1.3h-4.2v3.4H23V.8zM40.1.7h1.4l3.7 8.5h-1.6l-.9-2h-4l-.9 2h-1.5L40.1.7zm2.1 5.2l-1.5-3.4-1.4 3.4h2.9zM52.9 5c0-2.4 1.8-4.3 4.3-4.3 1.5 0 2.5.5 3.3 1.3l-.9 1.1c-.7-.6-1.4-1-2.4-1-1.6 0-2.8 1.3-2.8 3 0 1.6 1.2 3 2.8 3 1 0 1.7-.4 2.4-1.1l.9 1c-.9.9-1.8 1.5-3.4 1.5-2.3-.2-4.2-2.1-4.2-4.5zM69.5.8H71v8.4h-1.5V.8zm10.9 0h1.5v7.1h4.4v1.3h-5.9V.8zm14.7 0h1.5v8.4h-1.5V.8zm13 1.4h-2.7V.8h6.8v1.4h-2.7v7H108l.1-7zm15.4 3.7L120.2.8h1.7l2.4 3.7 2.4-3.7h1.7l-3.3 5v3.3h-1.5l-.1-3.2z" fill="#B1B9C1"/></svg><svg height="60" viewBox="0 0 60 60" width="60" x="4" y="21"><path fill="none" stroke="#000" stroke-width="2" stroke-miterlimit="10" d="M22.1 22l15.8 16m.1-15.9L22 37.9"/></svg><svg height="60" viewBox="0 0 60 60" width="60" x="4" y="85"><path fill="none" stroke="#FFF" stroke-width="2" stroke-miterlimit="10" d="M22.1 22l15.8 16m.1-15.9L22 37.9"/></svg><svg height="26" viewBox="-9 0 38 26" width="38" x="4" y="149"><path d="M21.2 7.2c0-.4-.4-.7-.8-.7h-4.1V4.9c0-2.7-2.2-4.9-4.9-4.9-2.6 0-4.8 2.2-4.8 4.9v1.6h-4c-.4 0-.8.3-.8.7L.1 25.1c0 .2.1.5.2.6.2.2.4.3.6.3H22c.2 0 .4-.1.6-.3.2-.2.2-.4.2-.6L21.2 7.2zM8.3 4.9c0-1.8 1.5-3.2 3.2-3.2s3.2 1.5 3.2 3.2v1.6H8.3V4.9zM1.8 24.4L3.3 8.1h3.3V10c-.5.3-.8.8-.8 1.4 0 .9.7 1.6 1.6 1.6S9 12.3 9 11.4c0-.6-.3-1.1-.8-1.4V8.1h6.5V10c-.5.3-.8.8-.8 1.4 0 .9.7 1.6 1.6 1.6.9 0 1.6-.7 1.6-1.6 0-.6-.3-1.1-.8-1.4V8.1h3.3l1.5 16.2H1.8z"/></svg><svg height="22" viewBox="-8 0 38 22" width="38" x="4" y="179"><path d="M21.1.9c-.6-.6-1.4-.9-2.2-.9-.9 0-1.7.3-2.3 1l-3.2 3.4L2.6 1.1.5 3.2c-.2.2-.3.5-.3.9 0 .3.1.6.3.8l.1.1 8.1 4.5-2.9 3.1c-.2.2-.4.4-.6.7l-3.5-.9-1.4 1.4c-.4.4-.4 1.1 0 1.5l.1.1 4 2.1.2.2 2.1 4 .1.1c.2.1.4.2.7.2.3 0 .5-.1.7-.3l1.4-1.4-.9-3.6c.2-.2.5-.3.7-.5l3.1-2.9 4.5 8.1v.1l.1.1c.2.2.5.3.8.3.3 0 .6-.1.8-.3l2.1-2.1-3.2-11L21 5.3c.6-.6 1-1.4 1-2.2 0-.8-.3-1.6-.9-2.2zM20 4.4l-3.9 3.7L19.4 19 18 20.4l-5.1-9.3-4.4 4.1c-.2.2-.5.4-.8.6l-.5.2 1 3.9-.6.6-1.9-3.7-.5-.5-3.7-1.9.6-.6 3.8 1 .2-.5c.1-.3.3-.6.6-.8l4.1-4.4L1.6 4 3 2.6l10.9 3.3 3.7-4c.4-.4.9-.6 1.4-.6.5 0 .9.2 1.2.5.3.3.5.8.5 1.2-.1.6-.3 1-.7 1.4z"/></svg><svg height="20" viewBox="-9 0 38 20" width="38" x="4" y="205"><path d="M18.9 8.9c-.1-.2-.2-.3-.4-.4L16 7.8l-.5-3.3c-.2-1.1-1.3-2-2.4-2h-1.6v-.7c0-.4-.3-.6-.6-.6H8.2c-.4 0-.6.3-.6.6v.6H6c-1.2 0-2.2.9-2.4 2L3 7.8l-2.5.7c-.2.1-.4.2-.4.4-.1.2-.1.4 0 .5l3.8 7.3c.1.2.3.3.6.3h10.1c.2 0 .5-.1.6-.3L19 9.4c0-.1 0-.3-.1-.5zM13 3.7c.5 0 1.1.5 1.2 1l.4 2.7-4.5-1.3V3.7H13zm-4.1 0v2.4L4.4 7.4l.4-2.7c.1-.5.6-1 1.2-1h2.9zM1.6 9.5l7.3-2.1v8.3h-4L1.6 9.5zm12.6 6.3h-4V7.4l7.3 2.1-3.3 6.3zm0 0"/></svg><svg height="18" viewBox="0 0 38 18" width="38" x="4" y="229"><path d="M37.3 9L33 4c-.1-.2-.3-.3-.6-.3h-3.6v-3c0-.4-.4-.7-.8-.7H12.6c-.4 0-.7.3-.7.7v1H4.7c-.4 0-.7.3-.7.7 0 .4.3.7.7.7h7.2v9.7H7.5c-.4 0-.7.3-.7.7s.3.7.7.7h4.3v.8c0 .4.3.7.7.7h1.6c.3 1.2 1.4 2.1 2.7 2.1s2.4-.9 2.7-2.1h10c.3 1.2 1.4 2.1 2.7 2.1s2.4-.9 2.7-2.1h1.7c.4 0 .7-.3.7-.7V9.5c.2-.2.1-.3 0-.5zm-20.4 7.5c-.7 0-1.3-.6-1.3-1.3s.6-1.3 1.3-1.3 1.3.6 1.3 1.3-.6 1.3-1.3 1.3zm2.7-2.1c-.3-1.2-1.4-2.1-2.7-2.1s-2.4.9-2.7 2.1h-.8V1.5h13.9v12.9h-7.7zm12.7 2.1c-.7 0-1.3-.6-1.3-1.3s.6-1.3 1.3-1.3c.7 0 1.3.6 1.3 1.3s-.6 1.3-1.3 1.3zm3.7-2.1h-1c-.3-1.2-1.4-2.1-2.7-2.1s-2.4.9-2.7 2.1h-.8V5.3H32l4 4.5v4.6zM5.1 12.9h-.4c-.4 0-.7.3-.7.7 0 .4.3.7.7.7h.4c.4 0 .7-.3.7-.7 0-.3-.3-.7-.7-.7z"/><path d="M8.7 7.3h-8c-.4 0-.7.3-.7.7 0 .4.3.7.7.7h8c.4 0 .7-.3.7-.7.1-.4-.2-.7-.7-.7z"/></svg><svg height="35" viewBox="0 0 35 35" width="35" x="4" y="251"><path fill="#FFF" d="M14 13v9l7-4.5z"/></svg><svg height="23" viewBox="0 0 25 23" width="25" x="4" y="290"><path d="M18.3.5c-2.8 0-4.8 1.4-5.8 2.5C11.5 2 9.6.5 6.7.5 2.8.5 0 4 0 8.2c0 6.4 6.4 11.3 12.1 14.2.3.1.6.1.9 0 5.6-2.9 12-7.8 12-14.2C25 4 22.2.5 18.3.5zm-5.8 19.9C7.7 17.9 2 13.5 2 8.2c0-3 1.9-5.7 4.8-5.7 2.3 0 4.1 1.4 4.9 2.6.2.3.5.4.8.4.3 0 .6-.2.8-.5 0 0 1.7-2.6 4.9-2.6 2.9 0 4.8 2.7 4.8 5.7 0 5.4-5.7 9.8-10.5 12.3z"/></svg><svg height="23" viewBox="0 0 25 23" width="25" x="4" y="317"><path d="M18.3.5c-2.8 0-4.8 1.4-5.8 2.5C11.5 2 9.6.5 6.7.5 2.8.5 0 4 0 8.2c0 6.4 6.4 11.3 12.1 14.2.3.1.6.1.9 0 5.6-2.9 12-7.8 12-14.2C25 4 22.2.5 18.3.5z"/></svg><svg height="22.4" viewBox="0 0 23 23" width="22.1" x="4" y="344"><path d="M15.1 11.2c1.9 0 3.5-1.6 3.5-3.5S17 4.2 15.1 4.2s-3.5 1.6-3.5 3.5 1.6 3.5 3.5 3.5zm0 1.8c-2.4 0-7 1.1-7 3.5v1.8h14v-1.8c0-2.4-4.7-3.5-7-3.5z"/></svg><svg height="16" viewBox="0 0 20 16" width="20" x="4" y="371"><path d="M8 12.5v-9L14 8m4-7.6c-.6-.2-4.3-.4-8-.4S2.6.2 2 .4C.4.9 0 4.4 0 8c0 3.6.4 7.1 2 7.6.6.2 4.3.4 8 .4s7.4-.2 8-.4c1.6-.5 2-4 2-7.6 0-3.6-.4-7.1-2-7.6z"/></svg><svg height="16" viewBox="0 0 18 16" width="18" x="4" y="391"><path d="M13.18 0A5.66 5.66 0 0 0 9 1.82 5.79 5.79 0 0 0 4.82 0C2 0 0 2.55 0 5.61c0 4.66 4.61 8.23 8.71 10.34a1 1 0 0 0 .65 0c4-2.11 8.64-5.68 8.64-10.34C18 2.55 16 0 13.18 0zM9 14.49c-3.46-1.82-7.56-5-7.56-8.88 0-2.18 1.37-4.15 3.46-4.15a4.38 4.38 0 0 1 3.52 1.89.65.65 0 0 0 .58.29.73.73 0 0 0 .58-.36 4.47 4.47 0 0 1 3.52-1.9c2.09 0 3.46 2 3.46 4.15 0 3.94-4.1 7.14-7.56 8.96z" data-name="heart outline"/></svg><svg height="17" viewBox="0 0 17 17" width="17" x="4" y="411"><path d="M12.3 0H4.7C2.1 0 0 2.1 0 4.7v7.6C0 14.9 2.1 17 4.7 17h7.6c2.6 0 4.7-2.1 4.7-4.7V4.7C17 2.1 14.9 0 12.3 0zm3.2 12.3c0 1.8-1.4 3.2-3.2 3.2H4.7c-1.8 0-3.2-1.4-3.2-3.2V4.7c0-1.8 1.4-3.2 3.2-3.2h7.6c1.8 0 3.2 1.4 3.2 3.2v7.6z"/><path d="M8.5 4.1c-2.4 0-4.4 2-4.4 4.4 0 2.4 2 4.4 4.4 4.4s4.4-2 4.4-4.4c0-2.4-2-4.4-4.4-4.4zm0 7.3c-1.6 0-2.9-1.3-2.9-2.9 0-1.6 1.3-2.9 2.9-2.9s2.9 1.3 2.9 2.9c0 1.6-1.3 2.9-2.9 2.9zm4.6-8.6c-.3 0-.6.1-.8.3-.2.3-.3.6-.3.8 0 .3.1.6.3.8.2.2.5.3.8.3.3 0 .6-.1.8-.3.2-.2.3-.5.3-.8 0-.3-.1-.6-.3-.8-.3-.1-.5-.3-.8-.3z"/></svg><svg height="16" viewBox="0 0 16 16" width="16" x="4" y="432"><path d="M16 12.4c0-.1-.3-.3-.9-.6-.1-.1-.3-.2-.6-.3-.3-.1-.5-.3-.7-.4-.2-.1-.4-.2-.6-.4 0 0-.1-.1-.3-.2-.2-.1-.3-.2-.4-.2-.1-.1-.2-.1-.3-.1-.2 0-.3.1-.6.3-.2.2-.4.5-.6.7-.2.3-.4.5-.6.7-.2.2-.4.3-.5.3-.1 0-.2 0-.3-.1-.1 0-.2-.1-.2-.1-.1 0-.1-.1-.3-.2-.1-.1-.2-.1-.2-.1-1-.6-1.9-1.2-2.7-2-.7-.7-1.4-1.6-2-2.7 0 0-.1-.1-.1-.2-.1 0-.2-.1-.2-.1 0-.1-.1-.1-.1-.2s-.1-.2-.1-.3c0-.1.1-.3.3-.5.3-.3.5-.5.8-.7.2-.1.5-.4.7-.6.2-.2.3-.4.3-.5 0-.1 0-.2-.1-.3 0-.2-.1-.3-.2-.5-.1-.1-.2-.2-.2-.3-.1-.1-.2-.4-.4-.6-.1-.2-.2-.4-.4-.7-.1-.3-.2-.5-.3-.6-.3-.5-.5-.8-.6-.9h-.2c-.2 0-.5 0-.8.1-.4.1-.6.2-.8.3C1.4.5 1 1 .6 1.7.2 2.5 0 3.2 0 3.9v.6c0 .2.1.4.1.7.1.2.1.4.2.5 0 .1.1.3.2.6s.2.5.2.6c.3.7.6 1.4.9 2 .6 1 1.4 2 2.4 3s2 1.9 3 2.4c.6.4 1.2.7 2 .9.1 0 .3.1.6.2s.5.2.6.2c.1 0 .3.1.5.2s.5.1.7.1h.6c.7 0 1.4-.2 2.1-.6.8-.4 1.2-.8 1.4-1.2.1-.2.2-.4.2-.8.1-.3.1-.6.1-.8.2 0 .2 0 .2-.1zm0 0"/></svg><svg height="16" viewBox="0 0 16 16" width="16" x="4" y="452"><path d="M13.3 3h-2V1.9c0-.5-.2-.9-.5-1.3S10.1 0 9.6 0H6.5C6 0 5.6.2 5.2.6c-.4.4-.6.8-.6 1.3V3h-2L.5 16h15L13.3 3zm-3.1 0H5.7V1.9c0-.2.1-.4.3-.5.2-.2.3-.2.5-.2h3.1c.2 0 .3.1.4.2.1.2.2.3.2.5V3zm0 0"/></svg><svg height="15.4" viewBox="0 0 12 16" width="12" x="4" y="472"><path d="M11.7 5.2c-.2-.8-.7-1.4-1.3-1.9-.9-.6-1.8-.8-2.6-.9-1.2-.2-2.2-.2-3.1-.1-.9.1-1.6.3-2.3.6-1.2.6-2 1.5-2.2 2.7 0 .6-.1 1.1-.2 1.7-.1 1.2 0 2.2.3 3.2s.8 1.6 1.5 2.1l.6.3c.1 0 .3.1.4.1.1 0 .1.1.1.1v2.3h.5l.1-.1 1.8-1.8.1-.1c.1-.1.1-.1.2-.1.6 0 1.2 0 1.8-.1.7 0 1.6-.1 2.4-.5.7-.3 1.3-.8 1.6-1.5.3-.7.5-1.4.6-2.3.1-1.3 0-2.6-.3-3.7zM9 11c-.2.3-.5.5-.8.7-.2.1-.5.1-.7 0-2-.8-3.6-2.2-4.6-4.1-.2-.5-.4-.9-.6-1.3V6c0-.7.5-1 1-1.2.2 0 .4 0 .5.2.4.4.7.8 1 1.3.1.2.1.4-.1.6 0 .1-.1.1-.1.1-.4.3-.5.5-.3 1 .4.8 1 1.3 1.8 1.7.2.1.4 0 .6-.1l.1-.1c.3-.5.8-.5 1.2-.2.3.2.6.4.8.6.4.4.4.6.2 1.1zM6.3 5.7H6c-.2 0-.3-.1-.3-.2 0-.2.1-.3.2-.3h.4c1.2 0 2.2 1 2.2 2.2v.4c0 .1-.1.2-.2.2-.2-.1-.3-.2-.3-.4v-.3c0-.9-.8-1.6-1.7-1.6zm1.4 1.7c0 .2-.1.3-.3.3-.2 0-.3-.1-.3-.3 0-.5-.4-.9-.9-.9-.1 0-.2-.1-.2-.2 0-.2.1-.3.3-.3.8 0 1.4.6 1.4 1.4zm1.6.6c0 .1-.1.2-.3.2h-.1c-.2 0-.3-.2-.2-.3 0-.2.1-.4.1-.6 0-1.4-1.1-2.5-2.5-2.5-.2 0-.4 0-.6.1-.2 0-.3-.1-.3-.2 0-.2.1-.3.2-.3.2-.1.5-.1.7-.1 1.7 0 3.1 1.4 3.1 3.1 0 .2 0 .4-.1.6z"/></svg><svg height="9.7" viewBox="0 0 16 10" width="15.2" x="4" y="492"><path d="M15.2 4.2h-1.4V2.8h-1.4v1.4H11v1.4h1.4V7h1.4V5.5h1.4M4.9 4.2v1.7h2.8c-.2.6-.9 2-2.8 2-1.7 0-3-1.4-3-3s1.3-3 3-3c1 0 1.6.4 1.9.8l1.3-1.2C7.3.5 6.2 0 4.9 0 2.1 0 0 2.1 0 4.9s2.1 4.9 4.9 4.9c2.8 0 4.6-1.9 4.6-4.7 0-.3 0-.6-.1-.8H4.9z"/></svg><svg height="15" viewBox="0 0 15 15" width="14.2" x="4" y="506"><path fill="#7D98A9" d="M7.1 15c.6 0 1.1-.5 1.1-1.1V9.8l6-3.8V4.5l-6 1.9V2.3l1.5-1.1V.1L7.1.8 4.5 0v1.1L6 2.3v4.1L0 4.5V6l6 3.7v4.1c0 .7.5 1.2 1.1 1.2z"/></svg><svg height="12" viewBox="0 0 14 12" width="14" x="4" y="525"><path d="M14 1.5c-.5.2-1.1.4-1.6.5.6-.4 1-.9 1.3-1.6-.6.3-1.2.6-1.8.7-.5-.6-1.3-.9-2.1-.9-1.7 0-3 1.2-3 2.8 0 .2 0 .4.1.7-2.4-.1-4.5-1.3-5.9-3-.3.4-.4.9-.4 1.4 0 1 .5 1.9 1.3 2.4-.5 0-.9-.1-1.3-.4 0 1.4 1 2.5 2.3 2.8-.3.2-.5.2-.8.2-.2 0-.4 0-.5-.1.3 1.2 1.4 2 2.6 2-1 .8-2.2 1.2-3.6 1.2h-.7c1.3.8 2.8 1.3 4.4 1.3 5.3 0 8.1-4.4 8.1-8.1V3c.7-.4 1.2-.9 1.6-1.5z" fill="#010002"/></svg><svg height="12" viewBox="0 0 14 12" width="14" x="4" y="541"><path d="M.4 5.8L3.6 7l1.2 4c.1.3.4.3.6.2l1.8-1.4c.2-.2.4-.2.6 0l3.2 2.3c.2.2.5 0 .6-.2L13.9.6c.1-.3-.2-.5-.5-.4l-13 5c-.4 0-.4.4 0 .6zm4.2.5l6.2-3.8c.1-.1.2.1.1.2L5.8 7.4c-.2.2-.3.4-.4.7l-.1 1.2c0 .2-.3.2-.3 0L4.3 7c-.1-.3 0-.5.3-.7z"/></svg><svg height="12.2" viewBox="0 0 12 13" width="12" x="4" y="557"><path d="M6 0C2.7 0 0 2.5 0 5.6c0 1.6.8 3.2 2.1 4.3v2.3L4.3 11c.5.2 1.1.2 1.7.2 3.3 0 6-2.5 6-5.6C12 2.5 9.3 0 6 0zm.6 7.5L5.1 5.8 2.3 7.4l3.1-3.3 1.5 1.5 2.7-1.5-3 3.4z"/></svg><svg height="12.1" viewBox="0 0 12 13" width="12" x="4" y="574"><path d="M10.3 1.8C9.1.6 7.6 0 6 0 2.7 0 0 2.7 0 6c0 1 .3 2 .7 2.9L0 11.7c0 .1 0 .2.1.3.1.1.1.1.2.1h.1l2.9-.8c.8.4 1.8.7 2.7.7 3.3 0 6-2.7 6-6 0-1.6-.6-3.1-1.7-4.2zM8.8 8c-.1.3-.7.6-1 .7-.2 0-.5 0-.8-.1-.3 0-.5-.1-.9-.3-1.4-.6-2.3-2-2.4-2.1-.1-.1-.6-.8-.6-1.5s.4-1 .5-1.2.3-.2.4-.2h.3c.1 0 .2 0 .3.2.1.4.4 1.1.4 1.2 0 .1.1.2 0 .2s0 .2-.1.2c-.1.1-.1.2-.2.3-.1.1-.1.1-.1.3.1.1.4.6.8 1 .5.5 1 .6 1.1.7.1.1.2.1.3 0 .2-.2.4-.5.5-.6s.2-.1.3-.1c.1 0 .8.4 1 .5.1.1.2.1.3.2 0 0 0 .3-.1.6z"/></svg><svg height="12" viewBox="0 0 10 12" width="10" x="4" y="591"><path d="M4.2 7.9c-.3 1.7-.7 3.3-1.8 4.1-.4-2.5.5-4.4.9-6.4-.7-1.1.1-3.5 1.5-2.9 1.8.7-1.5 4.3.7 4.8 2.4.4 3.3-4.1 1.9-5.5C5.3-.1 1.3 2 1.8 5c.1.7.9 1 .3 2C.8 6.6.4 5.6.4 4.2.5 1.9 2.5.3 4.5 0 7-.2 9.4 1 9.7 3.3 10 6 8.5 8.9 5.8 8.7c-.7-.1-1-.4-1.6-.8z" fill="#030104"/></svg><svg height="12" viewBox="0 0 6 12" width="6" x="4" y="607"><path d="M1.4 2.3V4H.2v2h1.2v6h2.5V6h1.7s.2-1 .2-2H3.9V2.6c0-.2.3-.5.5-.5h1.4V0H4C1.3 0 1.4 2 1.4 2.3z"/></svg></svg>