<svg id="Layer_1" data-name="Layer 1" xmlns="http://www.w3.org/2000/svg" width="103.34" height="978.45" viewBox="0 0 103.34 978.45"><defs><style>.cls-1,.cls-9{fill:#ec1e39;}.cls-1{stroke:#ec1e39;stroke-width:0.25px;}.cls-1,.cls-2,.cls-3{stroke-miterlimit:10;}.cls-2,.cls-3{fill:none;stroke-width:2px;}.cls-2{stroke:#000;}.cls-3{stroke:#fff;}.cls-12,.cls-4{fill:#fff;}.cls-5{fill:#c53a19;}.cls-6{fill:#7d98a9;}.cls-7{fill:#010002;}.cls-8{fill:#030104;}.cls-11,.cls-12,.cls-9{fill-rule:evenodd;}.cls-10{fill:#2f2f2f;}.cls-13{fill:#f44336;}</style></defs><title>sprite- [Recovered]</title><path class="cls-1" d="M9.57,11.51v1.12H8.63V4.38h.94V7.94a2.68,2.68,0,0,1,2.25-1.31,2.87,2.87,0,0,1,2.82,3,2.87,2.87,0,0,1-2.82,3A2.26,2.26,0,0,1,9.57,11.51Zm4-1.79a2.07,2.07,0,0,0-2.06-2.25A2.12,2.12,0,0,0,9.48,9.72,2.19,2.19,0,0,0,11.54,12,2,2,0,0,0,13.6,9.72Zm1.88,4.42.28-.66a1.54,1.54,0,0,0,.94.19c.56,0,.85-.29,1.22-1.13L15.29,6.82h.94l2.16,4.88,1.88-4.88h.94l-2.44,6c-.47,1.22-1,1.69-2,1.69A3.16,3.16,0,0,1,15.48,14.14Z" transform="translate(-4 -4.08)"/><path class="cls-2" d="M28.1,43,43.9,59M44,43.1,28,58.9" transform="translate(-4 -4.08)"/><path class="cls-3" d="M9.38,43.43l15.8,16m.1-15.9-16,15.8" transform="translate(-4 -4.08)"/><path d="M33.1,179.9a3.1,3.1,0,0,0-2.2-.9,2.9,2.9,0,0,0-2.3,1l-3.2,3.4-10.8-3.3-2.1,2.1a1.22,1.22,0,0,0-.3.9,1.14,1.14,0,0,0,.3.8l.1.1,8.1,4.5-2.9,3.1a4.35,4.35,0,0,0-.6.7l-3.5-.9-1.4,1.4a1.09,1.09,0,0,0,0,1.5l.1.1,4,2.1.2.2,2.1,4,.1.1a1.45,1.45,0,0,0,.7.2.91.91,0,0,0,.7-.3l1.4-1.4-.9-3.6c.2-.2.5-.3.7-.5l3.1-2.9,4.5,8.1v.1l.1.1a1.22,1.22,0,0,0,1.6,0l2.1-2.1-3.2-11,3.4-3.2a3.21,3.21,0,0,0,1-2.2A3.1,3.1,0,0,0,33.1,179.9ZM32,183.4l-3.9,3.7L31.4,198,30,199.4l-5.1-9.3-4.4,4.1a5.55,5.55,0,0,1-.8.6l-.5.2,1,3.9-.6.6-1.9-3.7-.5-.5-3.7-1.9.6-.6,3.8,1,.2-.5a1.56,1.56,0,0,1,.6-.8l4.1-4.4L13.6,183l1.4-1.4,10.9,3.3,3.7-4a2,2,0,0,1,1.4-.6,1.66,1.66,0,0,1,1.2.5,1.85,1.85,0,0,1,.5,1.2A2.35,2.35,0,0,1,32,183.4Z" transform="translate(-4 -4.08)"/><path d="M31.9,213.9a.78.78,0,0,0-.4-.4l-2.5-.7-.5-3.3a2.56,2.56,0,0,0-2.4-2H24.5v-.7a.58.58,0,0,0-.6-.6H21.2a.58.58,0,0,0-.6.6v.6H19a2.47,2.47,0,0,0-2.4,2l-.6,3.4-2.5.7c-.2.1-.4.2-.4.4a.45.45,0,0,0,0,.5l3.8,7.3a.6.6,0,0,0,.6.3H27.6a.71.71,0,0,0,.6-.3l3.8-7.3A1.09,1.09,0,0,0,31.9,213.9ZM26,208.7a1.39,1.39,0,0,1,1.2,1l.4,2.7-4.5-1.3v-2.4Zm-4.1,0v2.4l-4.5,1.3.4-2.7a1.29,1.29,0,0,1,1.2-1Zm-7.3,5.8,7.3-2.1v8.3h-4Zm12.6,6.3h-4v-8.4l7.3,2.1Z" transform="translate(-4 -4.08)"/><path d="M41.3,238,37,233a.6.6,0,0,0-.6-.3H32.8v-3a.77.77,0,0,0-.8-.7H16.6a.68.68,0,0,0-.7.7v1H8.7a.7.7,0,1,0,0,1.4h7.2v9.7H11.5a.7.7,0,1,0,0,1.4h4.3v.8a.68.68,0,0,0,.7.7h1.6a2.79,2.79,0,0,0,5.4,0h10a2.79,2.79,0,0,0,5.4,0h1.7a.68.68,0,0,0,.7-.7v-5.5C41.5,238.3,41.4,238.2,41.3,238Zm-20.4,7.5a1.3,1.3,0,1,1,1.3-1.3A1.32,1.32,0,0,1,20.9,245.5Zm2.7-2.1a2.79,2.79,0,0,0-5.4,0h-.8V230.5H31.3v12.9Zm12.7,2.1a1.3,1.3,0,1,1,1.3-1.3A1.32,1.32,0,0,1,36.3,245.5Zm3.7-2.1H39a2.79,2.79,0,0,0-5.4,0h-.8v-9.1H36l4,4.5ZM9.1,241.9H8.7a.7.7,0,1,0,0,1.4h.4a.68.68,0,0,0,.7-.7A.75.75,0,0,0,9.1,241.9Z" transform="translate(-4 -4.08)"/><path d="M12.7,236.3h-8a.7.7,0,1,0,0,1.4h8a.68.68,0,0,0,.7-.7C13.5,236.6,13.2,236.3,12.7,236.3Z" transform="translate(-4 -4.08)"/><path d="M16,383.5v-9l6,4.5m4-7.6a55.36,55.36,0,0,0-8-.4,55.36,55.36,0,0,0-8,.4c-1.6.5-2,4-2,7.6s.4,7.1,2,7.6a55.36,55.36,0,0,0,8,.4,55.36,55.36,0,0,0,8-.4c1.6-.5,2-4,2-7.6S27.6,371.9,26,371.4Z" transform="translate(-4 -4.08)"/><path d="M24,444.4q0-.15-.9-.6a1.63,1.63,0,0,0-.6-.3,4.35,4.35,0,0,1-.7-.4,2.09,2.09,0,0,1-.6-.4,1.24,1.24,0,0,0-.3-.2c-.2-.1-.3-.2-.4-.2a.37.37,0,0,0-.3-.1c-.2,0-.3.1-.6.3s-.4.5-.6.7a4.35,4.35,0,0,1-.6.7.91.91,0,0,1-.5.3.37.37,0,0,1-.3-.1.35.35,0,0,1-.2-.1c-.1,0-.1-.1-.3-.2a.31.31,0,0,0-.2-.1,13.5,13.5,0,0,1-2.7-2,11.84,11.84,0,0,1-2-2.7.35.35,0,0,1-.1-.2.35.35,0,0,1-.2-.1c0-.1-.1-.1-.1-.2s-.1-.2-.1-.3a.91.91,0,0,1,.3-.5,5,5,0,0,1,.8-.7,3.74,3.74,0,0,0,.7-.6.91.91,0,0,0,.3-.5.37.37,0,0,0-.1-.3c0-.2-.1-.3-.2-.5s-.2-.2-.2-.3a6.13,6.13,0,0,0-.4-.6,5.74,5.74,0,0,0-.4-.7,1.63,1.63,0,0,0-.3-.6,6.38,6.38,0,0,0-.6-.9h-.2a2.49,2.49,0,0,0-.8.1,3.39,3.39,0,0,0-.8.3c-.4.1-.8.6-1.2,1.3a4.87,4.87,0,0,0-.6,2.2v.6c0,.2.1.4.1.7s.1.4.2.5a3.93,3.93,0,0,0,.2.6,3.93,3.93,0,0,1,.2.6c.3.7.6,1.4.9,2a15.77,15.77,0,0,0,2.4,3,12.63,12.63,0,0,0,3,2.4,6.11,6.11,0,0,0,2,.9,3.93,3.93,0,0,1,.6.2,3.93,3.93,0,0,0,.6.2,1.69,1.69,0,0,1,.5.2,1.7,1.7,0,0,0,.7.1H20a4.2,4.2,0,0,0,2.1-.6,2.88,2.88,0,0,0,1.4-1.2,1.55,1.55,0,0,0,.2-.8,2.49,2.49,0,0,0,.1-.8C24,444.5,24,444.5,24,444.4Z" transform="translate(-4 -4.08)"/><path class="cls-4" d="M42.17,444.89q0-.15-.9-.6a1.63,1.63,0,0,0-.6-.3,4.35,4.35,0,0,1-.7-.4,2.09,2.09,0,0,1-.6-.4,1.24,1.24,0,0,0-.3-.2c-.2-.1-.3-.2-.4-.2a.37.37,0,0,0-.3-.1c-.2,0-.3.1-.6.3s-.4.5-.6.7a4.35,4.35,0,0,1-.6.7.91.91,0,0,1-.5.3.37.37,0,0,1-.3-.1.35.35,0,0,1-.2-.1c-.1,0-.1-.1-.3-.2a.31.31,0,0,0-.2-.1,13.5,13.5,0,0,1-2.7-2,11.84,11.84,0,0,1-2-2.7.35.35,0,0,0-.3-.3c0-.1-.1-.1-.1-.2s-.1-.2-.1-.3a.91.91,0,0,1,.3-.5,5,5,0,0,1,.8-.7,3.74,3.74,0,0,0,.7-.6.91.91,0,0,0,.3-.5.37.37,0,0,0-.1-.3c0-.2-.1-.3-.2-.5s-.2-.2-.2-.3a6.13,6.13,0,0,0-.4-.6,5.74,5.74,0,0,0-.4-.7,1.63,1.63,0,0,0-.3-.6,6.38,6.38,0,0,0-.6-.9h-.2a2.49,2.49,0,0,0-.8.1,3.39,3.39,0,0,0-.8.3c-.4.1-.8.6-1.2,1.3a4.87,4.87,0,0,0-.6,2.2v.6c0,.2.1.4.1.7s.1.4.2.5a3.93,3.93,0,0,0,.2.6,3.93,3.93,0,0,1,.2.6c.3.7.6,1.4.9,2a15.77,15.77,0,0,0,2.4,3,12.63,12.63,0,0,0,3,2.4,6.11,6.11,0,0,0,2,.9,3.93,3.93,0,0,1,.6.2,3.93,3.93,0,0,0,.6.2,1.69,1.69,0,0,1,.5.2,1.7,1.7,0,0,0,.7.1h.6a4.2,4.2,0,0,0,2.1-.6,2.88,2.88,0,0,0,1.4-1.2,1.55,1.55,0,0,0,.2-.8,2.49,2.49,0,0,0,.1-.8C42.17,445,42.17,445,42.17,444.89Z" transform="translate(-4 -4.08)"/><path class="cls-5" d="M64.51,444q0-.15-.9-.6a1.63,1.63,0,0,0-.6-.3,4.35,4.35,0,0,1-.7-.4,2.09,2.09,0,0,1-.6-.4,1.24,1.24,0,0,0-.3-.2c-.2-.1-.3-.2-.4-.2a.37.37,0,0,0-.3-.1c-.2,0-.3.1-.6.3s-.4.5-.6.7a4.35,4.35,0,0,1-.6.7.91.91,0,0,1-.5.3.37.37,0,0,1-.3-.1.35.35,0,0,1-.2-.1c-.1,0-.1-.1-.3-.2a.31.31,0,0,0-.2-.1,13.5,13.5,0,0,1-2.7-2,11.84,11.84,0,0,1-2-2.7.35.35,0,0,0-.3-.3c0-.1-.1-.1-.1-.2s-.1-.2-.1-.3a.91.91,0,0,1,.3-.5,5,5,0,0,1,.8-.7,3.74,3.74,0,0,0,.7-.6.91.91,0,0,0,.3-.5.37.37,0,0,0-.1-.3c0-.2-.1-.3-.2-.5s-.2-.2-.2-.3a6.13,6.13,0,0,0-.4-.6,5.74,5.74,0,0,0-.4-.7,1.63,1.63,0,0,0-.3-.6,6.38,6.38,0,0,0-.6-.9h-.2a2.49,2.49,0,0,0-.8.1,3.39,3.39,0,0,0-.8.3c-.4.1-.8.6-1.2,1.3a4.87,4.87,0,0,0-.6,2.2v.6c0,.2.1.4.1.7s.1.4.2.5a3.93,3.93,0,0,0,.2.6,3.93,3.93,0,0,1,.2.6c.3.7.6,1.4.9,2a15.77,15.77,0,0,0,2.4,3,12.63,12.63,0,0,0,3,2.4,6.11,6.11,0,0,0,2,.9,3.93,3.93,0,0,1,.6.2,3.93,3.93,0,0,0,.6.2,1.69,1.69,0,0,1,.5.2,1.7,1.7,0,0,0,.7.1h.6a4.2,4.2,0,0,0,2.1-.6,2.88,2.88,0,0,0,1.4-1.2,1.55,1.55,0,0,0,.2-.8,2.49,2.49,0,0,0,.1-.8C64.51,444.1,64.51,444.1,64.51,444Z" transform="translate(-4 -4.08)"/><path d="M19.49,477a3.55,3.55,0,0,0-1.25-1.82,5.64,5.64,0,0,0-2.51-.87,11,11,0,0,0-3-.1,7.45,7.45,0,0,0-2.21.58,3.56,3.56,0,0,0-2.12,2.6A10.18,10.18,0,0,1,8.23,479a8.14,8.14,0,0,0,.28,3.08,3.56,3.56,0,0,0,1.45,2l.58.29c.09,0,.28.09.38.09a.1.1,0,0,1,.1.1v2.21h.48l.09-.09L13.33,485l.09-.09c.1-.1.1-.1.2-.1a10.1,10.1,0,0,0,1.73-.1,5.18,5.18,0,0,0,2.31-.48,2.86,2.86,0,0,0,1.54-1.44,7.53,7.53,0,0,0,.58-2.21A10.89,10.89,0,0,0,19.49,477Zm-2.6,5.59a2.49,2.49,0,0,1-.77.67.81.81,0,0,1-.68,0A8.46,8.46,0,0,1,11,479.31c-.2-.48-.39-.86-.58-1.25v-.29c0-.67.48-1,1-1.15.19,0,.39,0,.48.19a6.24,6.24,0,0,1,1,1.25.47.47,0,0,1-.1.58.1.1,0,0,1-.1.1c-.38.29-.48.48-.29,1a3.65,3.65,0,0,0,1.74,1.64.63.63,0,0,0,.57-.1l.1-.1a.74.74,0,0,1,1.16-.19,6.43,6.43,0,0,1,.77.58A.78.78,0,0,1,16.89,482.59Zm-2.6-5.1H14c-.19,0-.29-.1-.29-.2s.1-.29.19-.29h.39a2.15,2.15,0,0,1,2.12,2.12v.39a.21.21,0,0,1-.2.19c-.19-.1-.28-.19-.28-.39V479A1.6,1.6,0,0,0,14.29,477.49Zm1.35,1.63a.29.29,0,0,1-.58,0,.86.86,0,0,0-.87-.86.21.21,0,0,1-.19-.2.26.26,0,0,1,.29-.29A1.32,1.32,0,0,1,15.64,479.12Zm1.54.58c0,.1-.1.19-.29.19h-.1c-.19,0-.29-.19-.19-.29s.1-.38.1-.57a2.39,2.39,0,0,0-2.41-2.41,1.19,1.19,0,0,0-.58.1c-.19,0-.29-.1-.29-.2s.1-.29.2-.29a1.72,1.72,0,0,1,.67-.09,3,3,0,0,1,3,3A1.31,1.31,0,0,1,17.18,479.7Z" transform="translate(-4 -4.08)"/><path d="M22.44,496.09H21.11v-1.33H19.78v1.33H18.45v1.33h1.33v1.33h1.33v-1.42h1.33m-9.78-1.24v1.62h2.66a2.7,2.7,0,0,1-2.66,1.9,2.85,2.85,0,1,1,0-5.7,2.14,2.14,0,0,1,1.8.76l1.24-1.14a3.75,3.75,0,0,0-3-1.43,4.66,4.66,0,1,0,0,9.31A4.16,4.16,0,0,0,17,497a1.75,1.75,0,0,0-.1-.76H12.66Z" transform="translate(-4 -4.08)"/><path class="cls-6" d="M14.72,520.6a1,1,0,0,0,1-1v-3.88l5.68-3.6v-1.42l-5.68,1.8v-3.88l1.42-1v-1.05l-2.46.67-2.46-.76v1l1.42,1.14v3.88L8,510.66v1.42l5.68,3.5v3.88A1.07,1.07,0,0,0,14.72,520.6Z" transform="translate(-4 -4.08)"/><path class="cls-7" d="M22,526.5a9.83,9.83,0,0,1-1.6.5,3.44,3.44,0,0,0,1.3-1.6,6.7,6.7,0,0,1-1.8.7,2.72,2.72,0,0,0-2.1-.9,2.85,2.85,0,0,0-3,2.8,2,2,0,0,0,.1.7,8.12,8.12,0,0,1-5.9-3,2.3,2.3,0,0,0-.4,1.4,2.81,2.81,0,0,0,1.3,2.4,2,2,0,0,1-1.3-.4,2.89,2.89,0,0,0,2.3,2.8,1.2,1.2,0,0,1-.8.2.75.75,0,0,1-.5-.1,2.67,2.67,0,0,0,2.6,2,5.58,5.58,0,0,1-3.6,1.2H7.9a8.39,8.39,0,0,0,4.4,1.3,8,8,0,0,0,8.1-8.1V528A4.63,4.63,0,0,0,22,526.5Z" transform="translate(-4 -4.08)"/><path d="M8.4,546.8l3.2,1.2,1.2,4a.4.4,0,0,0,.6.2l1.8-1.4a.38.38,0,0,1,.6,0l3.2,2.3c.2.2.5,0,.6-.2l2.3-11.3c.1-.3-.2-.5-.5-.4l-13,5C8,546.2,8,546.6,8.4,546.8Zm4.2.5,6.2-3.8c.1-.1.2.1.1.2l-5.1,4.7a1.61,1.61,0,0,0-.4.7l-.1,1.2a.15.15,0,1,1-.3,0l-.7-2.3C12.2,547.7,12.3,547.5,12.6,547.3Z" transform="translate(-4 -4.08)"/><path d="M14,557a5.46,5.46,0,0,0-5.63,5.26,5.39,5.39,0,0,0,2,4v2.16l2.06-1.13a4.38,4.38,0,0,0,1.6.19A5.27,5.27,0,1,0,14,557Zm.56,7-1.4-1.6-2.63,1.5,2.91-3.09,1.4,1.41,2.54-1.41Z" transform="translate(-4 -4.08)"/><path class="cls-8" d="M12.2,598.9c-.3,1.7-.7,3.3-1.8,4.1-.4-2.5.5-4.4.9-6.4-.7-1.1.1-3.5,1.5-2.9,1.8.7-1.5,4.3.7,4.8,2.4.4,3.3-4.1,1.9-5.5-2.1-2.1-6.1,0-5.6,3,.1.7.9,1,.3,2-1.3-.4-1.7-1.4-1.7-2.8a4.68,4.68,0,0,1,4.1-4.2c2.5-.2,4.9,1,5.2,3.3.3,2.7-1.2,5.6-3.9,5.4A3.46,3.46,0,0,1,12.2,598.9Z" transform="translate(-4 -4.08)"/><path d="M9.4,609.3V611H8.2v2H9.4v6h2.5v-6h1.7a11.69,11.69,0,0,0,.2-2H11.9v-1.4a.64.64,0,0,1,.5-.5h1.4V607H12C9.3,607,9.4,609,9.4,609.3Z" transform="translate(-4 -4.08)"/><path class="cls-9" d="M45.06,21.48l-.33.27a1.73,1.73,0,0,1-.88.4,5.14,5.14,0,0,1-1,0,2.48,2.48,0,0,1-1.33-.59,2.69,2.69,0,0,1-.8-1.12,3.49,3.49,0,0,1-.19-1.72A2.86,2.86,0,0,1,42,16.66a2.5,2.5,0,0,1,.87-.3,2.59,2.59,0,0,1,.92,0,2.24,2.24,0,0,1,1.12.5l.12.09.09,0c0-.14,0-.27,0-.39s0-.15.15-.15h1.16c.16,0,.19,0,.19.2V19c0,1,0,2,0,3a3.11,3.11,0,0,1-.48,1.75,2.27,2.27,0,0,1-1,.8,2.76,2.76,0,0,1-1,.27,7,7,0,0,1-1,0,8.21,8.21,0,0,1-1-.17,2.94,2.94,0,0,1-1-.48c-.11-.07-.13-.13,0-.24.2-.29.39-.6.59-.9.05-.08.09-.11.2,0a3.47,3.47,0,0,0,.78.37,2.42,2.42,0,0,0,.84.13,1.66,1.66,0,0,0,1.15-.39,1.44,1.44,0,0,0,.41-.73A4.72,4.72,0,0,0,45.06,21.48Zm-1.48-.66A1.58,1.58,0,1,0,42,19.19,1.53,1.53,0,0,0,43.58,20.82Z" transform="translate(-4 -4.08)"/><path class="cls-9" d="M45.26,11.66c-.19.14-.34.27-.51.38a1.8,1.8,0,0,1-.8.32,4.45,4.45,0,0,1-.5.05,2.52,2.52,0,0,1-1.5-.47,2.71,2.71,0,0,1-1.08-1.54,3.86,3.86,0,0,1-.1-1.51,2.55,2.55,0,0,1,.47-1.19,2.73,2.73,0,0,1,1-.89,2.17,2.17,0,0,1,.6-.22,3.53,3.53,0,0,1,.86-.07,2.11,2.11,0,0,1,1.44.55l.15.11V6.65h1.46s0,.07,0,.11c0,1.09,0,2.18,0,3.27a4.34,4.34,0,0,1,0,.51c0,.73,0,1.46,0,2.19a2.55,2.55,0,0,1-.21.75,2.42,2.42,0,0,1-.92,1.11,2.75,2.75,0,0,1-1.14.41,5,5,0,0,1-.76.07,4.36,4.36,0,0,1-1.48-.23,2.89,2.89,0,0,1-.93-.46c-.08-.06-.1-.1,0-.2.21-.3.4-.61.6-.92.05-.07.1-.11.2,0a2.44,2.44,0,0,0,1.06.45,4.36,4.36,0,0,0,1,0,1.16,1.16,0,0,0,.73-.36,1.46,1.46,0,0,0,.42-1C45.28,12.11,45.26,11.9,45.26,11.66ZM42.18,9.44c0,.15,0,.3.09.45a1.19,1.19,0,0,0,.12.29,1.49,1.49,0,0,0,1.25.84,1.43,1.43,0,0,0,.7-.13,1.48,1.48,0,0,0,.91-1.36,1.87,1.87,0,0,0-.13-.77,1.52,1.52,0,0,0-1.89-.82A1.66,1.66,0,0,0,42.18,9.44Z" transform="translate(-4 -4.08)"/><path class="cls-9" d="M36.09,12.47H34.7s-.08-.06-.09-.09,0-.2,0-.3a1.24,1.24,0,0,0,0-.16c-.18.14-.34.28-.51.4a1.65,1.65,0,0,1-.73.29,4.32,4.32,0,0,1-.62.05,2.18,2.18,0,0,1-1-.21,2.69,2.69,0,0,1-1.2-1,2.48,2.48,0,0,1-.41-1c0-.28-.1-.55-.13-.82a3.44,3.44,0,0,1,.18-1.19,2.8,2.8,0,0,1,.58-1.07,2.69,2.69,0,0,1,1.13-.74,2.89,2.89,0,0,1,.92-.18,2.31,2.31,0,0,1,1,.22c.26.12.5.29.77.45a.65.65,0,0,0,0-.16V4.3c0-.21,0-.21.21-.21h1.09c.15,0,.19,0,.19.18,0,2.3,0,4.59,0,6.89v1.31Zm-3-1.19a1.33,1.33,0,0,0,.76-.23A1.53,1.53,0,0,0,34.57,10a1.85,1.85,0,0,0-.3-1.49,1.53,1.53,0,0,0-1.64-.57,1.57,1.57,0,0,0-1.1,1.19,1.84,1.84,0,0,0,.1,1.2A1.62,1.62,0,0,0,33.07,11.28Z" transform="translate(-4 -4.08)"/><path class="cls-9" d="M61.79,21.75c0,.09,0,.16,0,.22v2.55c0,.13,0,.17-.18.17H60.44s-.08-.06-.11-.1a.17.17,0,0,1,0-.1V16.66c0-.22,0-.22.23-.22H61.6c.17,0,.18,0,.18.19V17h0a.86.86,0,0,0,.14-.13,2.09,2.09,0,0,1,1.43-.63,2.63,2.63,0,0,1,1.38.26A2.66,2.66,0,0,1,66,17.82a3.71,3.71,0,0,1,.36,1.79A3.11,3.11,0,0,1,66,21a2.73,2.73,0,0,1-1.26,1.25,2.79,2.79,0,0,1-1.28.25,2.52,2.52,0,0,1-1.21-.33,3.26,3.26,0,0,1-.36-.29Zm3.12-2.37a1.67,1.67,0,0,0-.57-1.33,1.46,1.46,0,0,0-1.72-.18,1.59,1.59,0,0,0-.79,1.05A1.79,1.79,0,0,0,62,20.28a1.48,1.48,0,0,0,1.41.8,1.4,1.4,0,0,0,.92-.37A1.64,1.64,0,0,0,64.91,19.38Z" transform="translate(-4 -4.08)"/><path class="cls-9" d="M57,17v-.44c0-.11,0-.14.14-.14H58.4c.11,0,.15,0,.15.15q0,2.79,0,5.58c0,.1,0,.14-.14.14h-1.2c-.14,0-.18-.06-.18-.19s0-.25,0-.38h0l-.27.23a2,2,0,0,1-.89.45,2.56,2.56,0,0,1-1,0,2.5,2.5,0,0,1-1.4-.68,2.9,2.9,0,0,1-.74-1.09,2.51,2.51,0,0,1-.15-.6,7.38,7.38,0,0,1-.07-.81,2.89,2.89,0,0,1,.42-1.57,2.61,2.61,0,0,1,1.22-1.17,2.91,2.91,0,0,1,1.24-.23,2.06,2.06,0,0,1,1.59.64Zm0,2.23a1.57,1.57,0,0,0-2.28-1.39A1.61,1.61,0,0,0,54,19a1.8,1.8,0,0,0,.11,1.15,1.52,1.52,0,0,0,1,.92,1.3,1.3,0,0,0,1-.06A1.71,1.71,0,0,0,57,19.25Z" transform="translate(-4 -4.08)"/><path class="cls-9" d="M67.79,13.9h1.5v3c.16-.13.3-.26.45-.36a2.8,2.8,0,0,1,1.16-.34,2.21,2.21,0,0,1,1.75.78,2.25,2.25,0,0,1,.4.84,5.29,5.29,0,0,1,.12,1.43v2.82c0,.06,0,.12,0,.2h-.54c-.26,0-.53,0-.79,0s-.18,0-.18-.17c0-1.11,0-2.21,0-3.32a1.14,1.14,0,0,0-1.41-1.13,1.08,1.08,0,0,0-.88.71,1.2,1.2,0,0,0-.08.42v3.31c0,.13,0,.18-.17.18-.39,0-.79,0-1.18,0-.11,0-.15,0-.15-.15V14S67.79,14,67.79,13.9Z" transform="translate(-4 -4.08)"/><path class="cls-9" d="M60.79,6.65h1.42v5.81H60.92c-.12,0-.16-.05-.15-.16s0-.26,0-.43l-.42.34a1.82,1.82,0,0,1-.89.38,3.73,3.73,0,0,1-.74.05,2.89,2.89,0,0,1-1.24-.41,3,3,0,0,1-1.1-1.42,3.4,3.4,0,0,1-.23-1.69,4.11,4.11,0,0,1,.26-.91,2.83,2.83,0,0,1,.79-1.14,2.11,2.11,0,0,1,1-.51A3.6,3.6,0,0,1,59,6.46a2.28,2.28,0,0,1,1.64.62.45.45,0,0,0,.12.06.74.74,0,0,0,0-.14c0-.1,0-.2,0-.3Zm-1.58,4.63a1.37,1.37,0,0,0,.87-.3,1.71,1.71,0,0,0,.68-1.41,1.77,1.77,0,0,0-.23-.92,1.5,1.5,0,0,0-1.79-.74,1.58,1.58,0,0,0-1.08,1.24,1.76,1.76,0,0,0,.2,1.34A1.59,1.59,0,0,0,59.21,11.28Z" transform="translate(-4 -4.08)"/><path class="cls-9" d="M83.66,16.44l-.46.65-.63.85c-.26.35-.51.71-.78,1a.24.24,0,0,0,0,.35l.93,1.34c.35.51.69,1,1,1.52l0,.1-.15,0H82.1a.23.23,0,0,1-.22-.11L80.8,20.59c-.13-.19-.25-.38-.39-.57a.26.26,0,0,0-.19-.09c-.14,0-.28,0-.43,0s-.16,0-.16.17v2.05c0,.13,0,.18-.18.18-.37,0-.75,0-1.12,0-.2,0-.2,0-.2-.19V13.91h1.3c.13,0,.16,0,.16.16v4.27c0,.22,0,.22.22.23s.21,0,.31,0a.4.4,0,0,0,.37-.21l.8-1.14.42-.62a.33.33,0,0,1,.28-.15c.5,0,1,0,1.51,0Z" transform="translate(-4 -4.08)"/><path class="cls-9" d="M86.61,22.51a3.76,3.76,0,0,1-2-.59,3.06,3.06,0,0,1-.39-.34c-.08-.06-.07-.12,0-.2.22-.24.45-.5.66-.75.06-.08.1-.08.17,0a2.38,2.38,0,0,0,.9.57.77.77,0,0,0,.26.07,6.77,6.77,0,0,0,.9,0,.54.54,0,0,0,.45-.48.53.53,0,0,0-.35-.55,8,8,0,0,0-.93-.34,4.45,4.45,0,0,1-1.31-.6,1.34,1.34,0,0,1-.53-.92c0-.1-.05-.19-.05-.28a1.69,1.69,0,0,1,.79-1.4,2.32,2.32,0,0,1,1.14-.36,2.58,2.58,0,0,1,.39,0,3.58,3.58,0,0,1,1.81.51,2.93,2.93,0,0,1,.41.38.11.11,0,0,1,0,.17c-.23.25-.45.5-.69.74a.18.18,0,0,1-.16,0,2,2,0,0,0-.65-.43,1.65,1.65,0,0,0-.73-.12,3.54,3.54,0,0,0-.45.08.5.5,0,0,0-.35.53.49.49,0,0,0,.31.37c.28.12.56.22.85.32s.82.27,1.21.45a1.33,1.33,0,0,1,.68.79,1.94,1.94,0,0,1,.11.63,1.7,1.7,0,0,1-1,1.55,2.47,2.47,0,0,1-1.1.26A1.41,1.41,0,0,0,86.61,22.51Z" transform="translate(-4 -4.08)"/><path class="cls-9" d="M52.2,5.11h1.39c.1,0,.09.07.09.13V6.41c0,.22,0,.23.23.23h1.22c.11,0,.15,0,.15.15,0,.33,0,.66,0,1,0,.12,0,.17-.18.17H53.87c-.12,0-.17,0-.17.16,0,.83,0,1.66,0,2.5a.64.64,0,0,0,.85.62l.37-.16c.14-.08.16-.08.24,0s.32.53.48.8c.06.09.09.17,0,.27a2.43,2.43,0,0,1-.89.42,2.13,2.13,0,0,1-1,0A1.67,1.67,0,0,1,52.58,12a2.17,2.17,0,0,1-.32-.77,4.05,4.05,0,0,1-.07-1.1c0-.64,0-1.28,0-1.92,0-.24,0-.24-.25-.24h-.65c-.11,0-.15,0-.15-.14V6.75c0-.09,0-.11.12-.11h.8c.1,0,.14,0,.14-.14,0-.4,0-.79,0-1.18C52.19,5.26,52.2,5.19,52.2,5.11Z" transform="translate(-4 -4.08)"/><path class="cls-9" d="M30.27,15.93H39.2v1.42H30.27Z" transform="translate(-4 -4.08)"/><path class="cls-9" d="M64,12.47V4.09H65.3c.14,0,.18,0,.18.18v8c0,.13,0,.18-.17.18Z" transform="translate(-4 -4.08)"/><path class="cls-9" d="M49.82,17c.21-.18.38-.35.56-.48a1.25,1.25,0,0,1,.72-.25,1.59,1.59,0,0,1,1,.2c.07,0,.12.08.07.18-.19.42-.37.84-.56,1.27l-.39-.14a.91.91,0,0,0-1.24.52,1.91,1.91,0,0,0-.13.62c0,1.06,0,2.11,0,3.16,0,.21,0,.21-.21.21H48.53c-.19,0-.2,0-.2-.21V17c0-.11,0-.23,0-.35s0-.2.19-.2h1.13c.14,0,.19.06.18.19Z" transform="translate(-4 -4.08)"/><path class="cls-9" d="M48.52,6.65H50c0,.06,0,.1,0,.15,0,1.84,0,3.68,0,5.51,0,.14,0,.17-.17.17H48.66c-.11,0-.15,0-.15-.15,0-1.85,0-3.69,0-5.54C48.51,6.75,48.52,6.71,48.52,6.65Z" transform="translate(-4 -4.08)"/><path class="cls-9" d="M39.33,12.47H37.89V6.66h1.44Z" transform="translate(-4 -4.08)"/><path class="cls-9" d="M74.9,16.44h1.43a1,1,0,0,1,0,.17c0,1.84,0,3.69,0,5.53,0,.14,0,.18-.19.18-.38,0-.75,0-1.13,0-.11,0-.14,0-.14-.14V16.57S74.9,16.49,74.9,16.44Z" transform="translate(-4 -4.08)"/><path class="cls-9" d="M76.48,14.77a.88.88,0,1,1-.87-.88A.88.88,0,0,1,76.48,14.77Z" transform="translate(-4 -4.08)"/><path class="cls-9" d="M49.24,4.08a.88.88,0,0,1,.9.89.84.84,0,0,1-.9.86.86.86,0,0,1-.87-.93A.91.91,0,0,1,49.24,4.08Z" transform="translate(-4 -4.08)"/><path class="cls-9" d="M37.76,5a.83.83,0,0,1,.86-.86.89.89,0,0,1,.85.91.85.85,0,0,1-.86.81A.81.81,0,0,1,37.76,5Z" transform="translate(-4 -4.08)"/><g id="Page-1"><g id="_022---Tape-Measure" data-name="022---Tape-Measure"><path id="Shape" d="M19.24,664a26.76,26.76,0,0,0-3.35-.18c-4,0-7.13,1.57-7.13,3.57v4.75c0,1.6,2,2.95,5,3.4-.83.6-1.71,1.22-2.63,1.85a.6.6,0,0,0-.26.47.61.61,0,0,0,.22.49l4,3.17a.6.6,0,0,0,.72,0c.67-.49,1.31-1,1.95-1.51s1.2-1,1.78-1.56h0c.56-.52,1.1-1,1.62-1.58l0,0h0c.38-.4.75-.8,1.09-1.19,1-1.14,2.23-2.55,2.46-4.29a7.07,7.07,0,0,0-1.81-6A6.27,6.27,0,0,0,19.24,664Zm-3.35.41c3.55,0,6.54,1.36,6.54,3,0,1.92-3.83,3-6.54,3-3.54,0-6.53-1.36-6.53-3S12.35,664.38,15.89,664.38Zm-6.53,7.73V668.8c1.09,1.26,3.57,2.12,6.53,2.12a12.13,12.13,0,0,0,4.58-.81,61.81,61.81,0,0,1-5.76,4.7V673.3a.31.31,0,0,0-.3-.3.3.3,0,0,0-.3.3V675a10.47,10.47,0,0,1-1.48-.29V673a.31.31,0,0,0-.3-.3.3.3,0,0,0-.3.3v1.49a7.4,7.4,0,0,1-1.19-.52v-1.86a.3.3,0,1,0-.59,0v1.47a1.94,1.94,0,0,1-.89-1.47ZM15.42,681l-4-3.18c.46-.31.94-.64,1.44-1a1.28,1.28,0,0,0,.89.19.68.68,0,0,1,.83.6,1.3,1.3,0,0,0,1.46,1.06.66.66,0,0,1,.55.12.68.68,0,0,1,.29.48,1.44,1.44,0,0,0,.17.45c-.54.44-1.1.87-1.66,1.28Zm8.7-9.78a4.38,4.38,0,0,1-.42,1.36l-.42-.6a.3.3,0,0,0-.41-.07.29.29,0,0,0-.07.42l.59.83a11.29,11.29,0,0,1-1,1.31l-.82-.94a.31.31,0,0,0-.29-.1.3.3,0,0,0-.22.2.31.31,0,0,0,.06.29l.88,1a3.23,3.23,0,0,1-.23.27c-.29.34-.6.67-.91,1l-1.25-1.07a.29.29,0,0,0-.29-.07.31.31,0,0,0-.2.23.3.3,0,0,0,.11.29l1.22,1c-.39.4-.8.79-1.21,1.18l-1.41-1.2a.28.28,0,0,0-.29,0,.28.28,0,0,0-.19.22.27.27,0,0,0,.1.28l1.35,1.16q-.63.57-1.29,1.11a.66.66,0,0,1-.06-.2A1.3,1.3,0,0,0,16,678.1a.71.71,0,0,1-.84-.6,1.28,1.28,0,0,0-1.46-1h-.27c3.39-2.41,7.43-5.52,9-7.62a2.27,2.27,0,0,0,.62-1.44,2.72,2.72,0,0,0-1.43-2.2,3.92,3.92,0,0,1,.9.6,6.53,6.53,0,0,1,1.62,5.46Z" transform="translate(-4 -4.08)"/><path id="Shape-2" data-name="Shape" d="M15.89,669.14c1.21,0,3.24-.35,3.76-1.45.36-.75-.26-1.52-.95-2a7,7,0,0,0-2.13-.88.82.82,0,0,0-.68.13.87.87,0,0,0-.27.33c-2.06.07-3.59.88-3.59,1.93,0,1.4,2.34,1.93,3.86,1.93Zm2.18-.95.1-2.11a2.12,2.12,0,0,1,.2.12c1.11.75,1.09,1.47-.3,2Zm-1.92-2.59h0a.22.22,0,0,1,.09-.16.23.23,0,0,1,.18,0,8,8,0,0,1,1.17.39l-.13,2.59a6.5,6.5,0,0,1-1.52.17Zm-.62.28-.19,2.64c-1.63-.12-2.71-.75-2.71-1.31S13.8,666,15.53,665.88Z" transform="translate(-4 -4.08)"/><path id="Shape-3" data-name="Shape" d="M16.79,666.76a.29.29,0,0,0-.3.3v.3a.3.3,0,0,0,.59,0v-.3A.29.29,0,0,0,16.79,666.76Z" transform="translate(-4 -4.08)"/><path id="Shape-4" data-name="Shape" d="M13.7,678.12a.29.29,0,0,0-.41,0,.28.28,0,0,0,0,.41l1.49,1.19a.3.3,0,1,0,.37-.46Z" transform="translate(-4 -4.08)"/></g></g><g id="Page-1-2" data-name="Page-1"><g id="_022---Tape-Measure-2" data-name="022---Tape-Measure"><path id="Shape-5" data-name="Shape" d="M15.7,684.09a17,17,0,0,0-2.25-.12c-2.7,0-4.8,1.06-4.8,2.4v3.2c0,1.08,1.35,2,3.35,2.29l-1.77,1.25a.39.39,0,0,0-.17.31.39.39,0,0,0,.15.33l2.67,2.13a.38.38,0,0,0,.48,0c.45-.32.89-.66,1.31-1s.82-.69,1.2-1h0c.38-.35.74-.71,1.09-1.07h0c.25-.27.5-.53.74-.8a6,6,0,0,0,1.65-2.89,4.74,4.74,0,0,0-1.22-4,4.26,4.26,0,0,0-2.46-.94Zm-2.25.28c2.38,0,4.4.92,4.4,2,0,1.3-2.58,2-4.4,2-2.39,0-4.4-.91-4.4-2S11.06,684.37,13.45,684.37Zm-4.4,5.2v-2.22a6.08,6.08,0,0,0,4.4,1.42,8.25,8.25,0,0,0,3.07-.54,42,42,0,0,1-3.87,3.16v-1a.2.2,0,0,0-.4,0v1.12a6.56,6.56,0,0,1-1-.2v-1.12a.2.2,0,1,0-.4,0v1a4.41,4.41,0,0,1-.8-.35v-1.25a.2.2,0,0,0-.4,0v1a1.33,1.33,0,0,1-.6-1Zm4.08,6-2.67-2.13,1-.68a.86.86,0,0,0,.59.13.45.45,0,0,1,.37.08.42.42,0,0,1,.19.32.87.87,0,0,0,1,.71.47.47,0,0,1,.56.41,1,1,0,0,0,.11.3c-.36.3-.73.58-1.11.86ZM19,689a3,3,0,0,1-.28.91l-.28-.4a.2.2,0,0,0-.28,0,.2.2,0,0,0-.05.28l.4.56a7.9,7.9,0,0,1-.64.88l-.56-.63a.2.2,0,0,0-.19-.07.18.18,0,0,0-.15.13.2.2,0,0,0,0,.2l.59.68-.15.18c-.2.23-.4.45-.61.67l-.84-.72a.19.19,0,0,0-.2,0,.21.21,0,0,0-.14.15.19.19,0,0,0,.08.19l.82.71c-.26.27-.54.54-.82.8l-.94-.81a.21.21,0,0,0-.2,0,.2.2,0,0,0-.13.15.19.19,0,0,0,.07.19l.91.78c-.28.26-.58.51-.87.75a.57.57,0,0,1,0-.14.88.88,0,0,0-1-.71.47.47,0,0,1-.38-.08.48.48,0,0,1-.19-.32.86.86,0,0,0-1-.71h-.18c2.28-1.62,5-3.71,6-5.13a1.51,1.51,0,0,0,.42-1,1.83,1.83,0,0,0-1-1.47,2.42,2.42,0,0,1,.6.4A4.39,4.39,0,0,1,19,689Z" transform="translate(-4 -4.08)"/><path id="Shape-6" data-name="Shape" d="M13.44,687.57c.82,0,2.18-.23,2.54-1,.23-.51-.18-1-.65-1.34a4.62,4.62,0,0,0-1.43-.6.55.55,0,0,0-.45.09.57.57,0,0,0-.19.22c-1.38,0-2.41.6-2.41,1.3,0,.94,1.57,1.3,2.59,1.3Zm1.47-.64.07-1.42.13.08c.75.51.73,1-.2,1.34Zm-1.29-1.74h0a.14.14,0,0,1,.06-.11.16.16,0,0,1,.12,0,7.3,7.3,0,0,1,.79.26l-.09,1.74a4.4,4.4,0,0,1-1,.12Zm-.42.19-.12,1.78c-1.11-.08-1.83-.51-1.83-.89S12,685.43,13.2,685.38Z" transform="translate(-4 -4.08)"/><path id="Shape-7" data-name="Shape" d="M14.05,686a.2.2,0,0,0-.2.2v.2a.2.2,0,1,0,.4,0v-.2A.2.2,0,0,0,14.05,686Z" transform="translate(-4 -4.08)"/><path id="Shape-8" data-name="Shape" d="M12,693.62a.2.2,0,1,0-.25.31l1,.8a.2.2,0,0,0,.28,0,.19.19,0,0,0,0-.28Z" transform="translate(-4 -4.08)"/></g></g><path id="Path_1" data-name="Path 1" class="cls-10" d="M43.31,467.33l-3.77-3.77a6.57,6.57,0,1,0-.65.66L42.66,468a.46.46,0,0,0,.32.13.46.46,0,0,0,.33-.79Zm-14.46-8.11a5.69,5.69,0,1,1,5.69,5.69A5.69,5.69,0,0,1,28.85,459.22Z" transform="translate(-4 -4.08)"/><path id="Path_1-2" data-name="Path 1" class="cls-5" d="M64.62,467.33l-3.76-3.77a6.57,6.57,0,1,0-.65.66L64,468a.46.46,0,0,0,.32.13.49.49,0,0,0,.33-.13A.46.46,0,0,0,64.62,467.33Zm-14.45-8.11a5.69,5.69,0,1,1,5.69,5.69A5.68,5.68,0,0,1,50.17,459.22Z" transform="translate(-4 -4.08)"/><path id="Path_1-3" data-name="Path 1" class="cls-4" d="M86.2,467.33l-3.77-3.77a6.57,6.57,0,1,0-.65.66L85.55,468a.48.48,0,0,0,.66,0A.48.48,0,0,0,86.2,467.33Zm-14.45-8.11a5.69,5.69,0,1,1,5.68,5.69A5.68,5.68,0,0,1,71.75,459.22Z" transform="translate(-4 -4.08)"/><g id="like"><path id="Path_6" data-name="Path 6" d="M25.35,397c-.25-2.78-2.22-4.79-4.67-4.79a4.65,4.65,0,0,0-4,2.29,4.5,4.5,0,0,0-3.89-2.29c-2.45,0-4.42,2-4.67,4.79a4.88,4.88,0,0,0,.15,1.82,7.7,7.7,0,0,0,2.39,4l6,5.46,6.12-5.45a7.84,7.84,0,0,0,2.39-4A5.09,5.09,0,0,0,25.35,397Zm-.79,1.66a7.2,7.2,0,0,1-2.19,3.65l-5.67,5.06-5.58-5.06a7.2,7.2,0,0,1-2.19-3.65,4.29,4.29,0,0,1-.13-1.56v0c.22-2.43,1.9-4.2,4-4.2a3.92,3.92,0,0,1,3.58,2.5l.3.72.31-.72a4,4,0,0,1,3.68-2.5c2.11,0,3.79,1.77,4,4.23A4.29,4.29,0,0,1,24.56,398.62Z" transform="translate(-4 -4.08)"/></g><g id="like-2" data-name="like"><path id="Path_6-2" data-name="Path 6" d="M32.6,299.55c-.36-4-3.18-6.87-6.7-6.87A6.65,6.65,0,0,0,20.19,296a6.43,6.43,0,0,0-5.58-3.29c-3.52,0-6.34,2.89-6.7,6.87a7.19,7.19,0,0,0,.21,2.61,11.2,11.2,0,0,0,3.43,5.72l8.63,7.83L29,307.88a11.2,11.2,0,0,0,3.43-5.72A7.19,7.19,0,0,0,32.6,299.55Zm-1.14,2.39a10.18,10.18,0,0,1-3.14,5.23l-8.13,7.26-8-7.25a10.32,10.32,0,0,1-3.14-5.24,6.28,6.28,0,0,1-.2-2.24v-.05c.31-3.48,2.73-6,5.75-6a5.6,5.6,0,0,1,5.14,3.58l.43,1,.44-1a5.79,5.79,0,0,1,5.28-3.58c3,0,5.44,2.53,5.76,6.07A6.28,6.28,0,0,1,31.46,301.94Z" transform="translate(-4 -4.08)"/></g><path d="M32.6,326.32c-.36-4-3.18-6.87-6.7-6.87a6.65,6.65,0,0,0-5.71,3.29,6.43,6.43,0,0,0-5.58-3.29c-3.52,0-6.34,2.88-6.7,6.87a7.12,7.12,0,0,0,.21,2.6,11.23,11.23,0,0,0,3.43,5.73l8.63,7.83L29,334.65a11.23,11.23,0,0,0,3.43-5.73A7.12,7.12,0,0,0,32.6,326.32Z" transform="translate(-4 -4.08)"/><g id="like-3" data-name="like"><path id="Path_6-3" data-name="Path 6" class="cls-5" d="M31.3,81.79C31,78,28.29,75.27,25,75.27a6.35,6.35,0,0,0-5.42,3.12,6.12,6.12,0,0,0-5.28-3.12c-3.35,0-6,2.74-6.36,6.52a6.63,6.63,0,0,0,.2,2.47,10.65,10.65,0,0,0,3.25,5.43l8.18,7.43,8.33-7.43a10.58,10.58,0,0,0,3.25-5.43A6.63,6.63,0,0,0,31.3,81.79Zm-1.08,2.26a9.73,9.73,0,0,1-3,5l-7.72,6.87L12,89a9.68,9.68,0,0,1-3-5,5.84,5.84,0,0,1-.19-2.12v-.05c.29-3.3,2.59-5.7,5.46-5.7a5.28,5.28,0,0,1,4.86,3.39l.42,1,.41-1a5.48,5.48,0,0,1,5-3.39c2.86,0,5.16,2.4,5.46,5.75A5.63,5.63,0,0,1,30.22,84.05Z" transform="translate(-4 -4.08)"/></g><g id="like-4" data-name="like"><path id="Path_6-4" data-name="Path 6" class="cls-5" d="M81.93,162c-.24-2.67-2.13-4.61-4.49-4.61a4.47,4.47,0,0,0-3.83,2.21,4.29,4.29,0,0,0-3.73-2.21c-2.36,0-4.25,1.94-4.49,4.61a4.66,4.66,0,0,0,.14,1.74,7.5,7.5,0,0,0,2.3,3.84l5.78,5.25,5.88-5.25a7.5,7.5,0,0,0,2.3-3.84A4.66,4.66,0,0,0,81.93,162Zm-.76,1.6a6.8,6.8,0,0,1-2.11,3.5L73.61,172l-5.35-4.85a6.93,6.93,0,0,1-2.11-3.51,4.23,4.23,0,0,1-.13-1.5v0a4.09,4.09,0,0,1,3.86-4,3.74,3.74,0,0,1,3.44,2.4l.29.7.3-.7a3.85,3.85,0,0,1,3.53-2.4c2,0,3.65,1.7,3.86,4.06A4.26,4.26,0,0,1,81.17,163.61Z" transform="translate(-4 -4.08)"/></g><g id="like-5" data-name="like"><path id="Path_6-5" data-name="Path 6" class="cls-4" d="M107.31,132.05c-.24-2.67-2.13-4.6-4.49-4.6a4.43,4.43,0,0,0-3.82,2.2,4.33,4.33,0,0,0-3.74-2.2c-2.36,0-4.25,1.93-4.49,4.6a4.93,4.93,0,0,0,.14,1.75,7.48,7.48,0,0,0,2.3,3.83L99,142.88l5.88-5.25a7.48,7.48,0,0,0,2.3-3.83A4.71,4.71,0,0,0,107.31,132.05Zm-.76,1.6a6.87,6.87,0,0,1-2.1,3.51L99,142l-5.36-4.86a6.89,6.89,0,0,1-2.11-3.51,4.23,4.23,0,0,1-.13-1.5v0c.21-2.34,1.83-4,3.86-4a3.77,3.77,0,0,1,3.44,2.4l.29.7.3-.7a3.85,3.85,0,0,1,3.53-2.4c2,0,3.65,1.7,3.86,4.07A4,4,0,0,1,106.55,133.65Z" transform="translate(-4 -4.08)"/></g><g id="like-6" data-name="like"><path id="Path_6-6" data-name="Path 6" d="M87.27,132.05c-.24-2.67-2.12-4.6-4.49-4.6a4.43,4.43,0,0,0-3.82,2.2,4.33,4.33,0,0,0-3.74-2.2c-2.36,0-4.25,1.93-4.49,4.6a4.93,4.93,0,0,0,.14,1.75,7.48,7.48,0,0,0,2.3,3.83L79,142.88l5.88-5.25a7.48,7.48,0,0,0,2.3-3.83A4.51,4.51,0,0,0,87.27,132.05Zm-.76,1.6a6.87,6.87,0,0,1-2.1,3.51L79,142l-5.36-4.86a6.81,6.81,0,0,1-2.1-3.51,4,4,0,0,1-.14-1.5v0a4.08,4.08,0,0,1,3.85-4,3.77,3.77,0,0,1,3.44,2.4l.3.7.29-.7a3.86,3.86,0,0,1,3.53-2.4c2,0,3.65,1.7,3.86,4.07A4,4,0,0,1,86.51,133.65Z" transform="translate(-4 -4.08)"/></g><path class="cls-5" d="M31.3,105.45c-.34-3.78-3-6.52-6.35-6.52a6.33,6.33,0,0,0-5.42,3.12,6.12,6.12,0,0,0-5.28-3.12c-3.35,0-6,2.74-6.36,6.52a6.65,6.65,0,0,0,.2,2.47,10.65,10.65,0,0,0,3.25,5.43l8.18,7.43,8.33-7.43a10.58,10.58,0,0,0,3.25-5.43A6.65,6.65,0,0,0,31.3,105.45Z" transform="translate(-4 -4.08)"/><g id="user"><path id="Path_5" data-name="Path 5" d="M20.63,137l0,0-.33-.15-.37-.13-.3-.1-.47-.12-.17,0h0l-.28-.05h-.06l-.24,0-.28,0a6.14,6.14,0,0,0-1.05,0h-.25l-.32,0h0l-.21,0-.24,0-.45.11-.33.11-.08,0c-.23.08-.45.18-.67.28l-.06,0h0a7.42,7.42,0,0,0-4.22,6.68v.19l0,.45H24.93l0-.44c0-.07,0-.13,0-.2A7.43,7.43,0,0,0,20.63,137Zm-9.78,6.65a6.71,6.71,0,0,1,3.84-6l.07,0h0l.55-.22.06,0,.31-.1.4-.1.22,0,.17,0h0l.31,0,.23,0a5.24,5.24,0,0,1,1,0l.23,0,.18,0h.09l.26.05h0l.14,0,.42.11.28.09a2.19,2.19,0,0,1,.33.12l.32.13h0a6.71,6.71,0,0,1,3.91,6Zm4.9-8.25.17.07.11,0,.14.05a5.13,5.13,0,0,0,1.34.21h0a3.71,3.71,0,0,0,.47,0l.15,0,.11,0,.19,0,.14,0,.12,0,.18,0,.12,0,.09,0,.22-.08.08,0,0,0,.29-.14.07,0c.1-.06.21-.12.32-.2l.17-.12.19-.15a4.6,4.6,0,0,0,1.68-3.52v0a4.62,4.62,0,0,0-9.24-.29v.06c0,.08,0,.16,0,.23A4.63,4.63,0,0,0,15.75,135.36Zm-2.09-4.44v-.06a3.9,3.9,0,0,1,7.79.21v0a3.88,3.88,0,0,1-1.42,3l-.18.13-.12.1-.27.16-.06,0-.24.12-.1,0-.17.06-.12,0-.07,0-.13,0-.15,0-.09,0-.14,0-.14,0-.1,0-.37,0h0a3.75,3.75,0,0,1-1.16-.18l-.1,0-.13,0-.13,0a3.91,3.91,0,0,1-2.38-3.59C13.65,131,13.66,131,13.66,130.92Z" transform="translate(-4 -4.08)"/></g><g id="user-2" data-name="user"><path id="Path_5-2" data-name="Path 5" class="cls-5" d="M40.63,137l0,0-.33-.15-.37-.13-.3-.1-.47-.12-.17,0h0l-.28-.05h-.06l-.24,0-.28,0a6.14,6.14,0,0,0-1,0h-.25l-.32,0h0l-.21,0-.24,0-.45.11-.33.11-.08,0c-.23.08-.45.18-.67.28l-.06,0h0a7.42,7.42,0,0,0-4.22,6.68v.19l0,.45H44.93l0-.44c0-.07,0-.13,0-.2A7.43,7.43,0,0,0,40.63,137Zm-9.78,6.65a6.71,6.71,0,0,1,3.84-6l.07,0h0l.55-.22.06,0,.31-.1.4-.1.22,0,.17,0h0l.31,0,.23,0a5.24,5.24,0,0,1,1,0l.23,0,.18,0h.09l.26.05h0l.14,0,.42.11.28.09a2.19,2.19,0,0,1,.33.12l.32.13h0a6.71,6.71,0,0,1,3.91,6Zm4.9-8.25.17.07.11,0,.14.05a5.13,5.13,0,0,0,1.34.21h0a3.71,3.71,0,0,0,.47,0l.15,0,.11,0,.19,0,.14,0,.12,0,.18,0,.12,0,.09,0,.22-.08.08,0,0,0,.29-.14.07,0c.1-.06.21-.12.32-.2l.17-.12.19-.15a4.6,4.6,0,0,0,1.68-3.52v0a4.62,4.62,0,0,0-9.24-.29v.06c0,.08,0,.16,0,.23A4.63,4.63,0,0,0,35.75,135.36Zm-2.09-4.44v-.06a3.9,3.9,0,0,1,7.79.21v0a3.88,3.88,0,0,1-1.42,3l-.18.13-.12.1-.27.16-.06,0-.24.12-.1,0-.17.06-.12,0-.07,0-.13,0-.15,0-.09,0-.14,0-.14,0-.1,0-.37,0h0a3.75,3.75,0,0,1-1.16-.18l-.1,0-.13,0-.13,0a3.91,3.91,0,0,1-2.38-3.59C33.65,131,33.66,131,33.66,130.92Z" transform="translate(-4 -4.08)"/></g><g id="user-3" data-name="user"><path id="Path_5-3" data-name="Path 5" class="cls-4" d="M60.42,137l0,0-.33-.15-.38-.13-.3-.1-.47-.12-.16,0h0l-.28-.05h-.06l-.24,0-.28,0a6.14,6.14,0,0,0-1.05,0h-.26l-.32,0h0l-.21,0-.24,0-.45.11-.34.11-.07,0c-.23.08-.46.18-.68.28l0,0h0a7.43,7.43,0,0,0-4.23,6.68,1.15,1.15,0,0,0,0,.19l0,.45H64.72l0-.44v-.2A7.42,7.42,0,0,0,60.42,137Zm-9.79,6.65a6.73,6.73,0,0,1,3.84-6l.08,0h0c.17-.08.36-.15.55-.22l.06,0,.31-.1.4-.1.21,0,.18,0h0l.31,0,.24,0a5.24,5.24,0,0,1,1,0l.23,0,.18,0h.08l.26.05h0l.14,0,.42.11.27.09a2,2,0,0,1,.34.12l.31.13h0a6.72,6.72,0,0,1,3.91,6H50.63Zm4.91-8.25.16.07.12,0,.14.05a5,5,0,0,0,1.34.21h0a3.55,3.55,0,0,0,.46,0l.16,0,.11,0,.19,0,.14,0,.12,0,.18,0,.11,0,.1,0,.21-.08.08,0,0,0,.29-.14.06,0a2.9,2.9,0,0,0,.33-.2l.16-.12.19-.15A4.57,4.57,0,0,0,62,131.14v0a4.62,4.62,0,0,0-9.24-.29v.06c0,.08,0,.16,0,.23A4.61,4.61,0,0,0,55.54,135.36Zm-2.09-4.44v-.06a3.9,3.9,0,0,1,7.79.21v0a3.89,3.89,0,0,1-1.43,3l-.17.13-.12.1-.28.16-.05,0-.25.12-.09,0-.17.06-.12,0-.07,0-.14,0-.14,0-.09,0-.15,0-.13,0-.11,0-.36,0h0a3.85,3.85,0,0,1-1.16-.18l-.09,0-.14,0-.12,0a3.89,3.89,0,0,1-2.38-3.59A1.15,1.15,0,0,1,53.45,130.92Z" transform="translate(-4 -4.08)"/></g><path class="cls-5" d="M21.71,357.84l0,0-.32-.13-.35-.13-.29-.1-.45-.11-.15,0h0l-.27,0h-.05l-.23,0-.28,0a8.18,8.18,0,0,0-1,0H18l-.3,0h0l-.21,0-.22,0-.43.11-.32.1-.07,0-.64.26-.06,0a7.1,7.1,0,0,0-4,6.37v.18l0,.43H25.8l0-.42c0-.07,0-.13,0-.19A7.08,7.08,0,0,0,21.71,357.84Z" transform="translate(-4 -4.08)"/><path class="cls-5" d="M17.05,356.32l.16.06.12,0,.13.05a4.55,4.55,0,0,0,1.27.2h0a3.15,3.15,0,0,0,.44,0l.15,0h.11l.18,0,.13,0,.12,0,.17,0,.11,0,.09,0,.2-.08.08,0,0,0,.28-.13.06,0,.31-.19.16-.12.18-.14a4.38,4.38,0,0,0,1.6-3.35v0a4.4,4.4,0,0,0-8.8-.27V352c0,.08,0,.15,0,.22A4.41,4.41,0,0,0,17.05,356.32Z" transform="translate(-4 -4.08)"/><path d="M21.82,455.58H19.51v-.13a3.53,3.53,0,0,0-7,0v.13H10.14a.37.37,0,0,0-.37.34v9.7h0A2.5,2.5,0,0,0,12.42,468h7.13a2.5,2.5,0,0,0,2.64-2.34h0v-9.69A.38.38,0,0,0,21.82,455.58Zm-8.61-.13a2.77,2.77,0,0,1,5.53,0v.13H13.21Z" transform="translate(-4 -4.08)"/><g id="Group_3" data-name="Group 3"><path id="Path_4" data-name="Path 4" d="M18.17,160.72v9.73a0,0,0,0,1,0,0h0a2.54,2.54,0,0,0,2.67,2.35H28a2.54,2.54,0,0,0,2.67-2.35v-9.78a.38.38,0,0,0-.38-.34H28v-.13a3.55,3.55,0,0,0-7.1,0v.13H18.55A.38.38,0,0,0,18.17,160.72ZM28,172.09H20.84a1.8,1.8,0,0,1-1.91-1.56l-.05-9.38h2v1.69a.39.39,0,0,0,.39.38.38.38,0,0,0,.38-.38v-1.69h5.58v1.69a.38.38,0,0,0,.38.38.37.37,0,0,0,.38-.38h0v-1.69h2l0,9.37A1.79,1.79,0,0,1,28,172.09Zm-.8-11.71H21.64v-.13a2.79,2.79,0,0,1,5.57,0Z" transform="translate(-4 -4.08)"/></g><g id="Group_3-2" data-name="Group 3"><path id="Path_4-2" data-name="Path 4" class="cls-5" d="M46,160.72v9.73a0,0,0,0,1,0,0h0a2.54,2.54,0,0,0,2.67,2.35h7.18a2.54,2.54,0,0,0,2.67-2.35v-9.78a.39.39,0,0,0-.38-.34H55.81v-.13a3.55,3.55,0,0,0-7.1,0v.13H46.38A.38.38,0,0,0,46,160.72Zm9.85,11.37H48.67a1.8,1.8,0,0,1-1.91-1.56l0-9.38h2v1.69a.39.39,0,0,0,.39.38.38.38,0,0,0,.38-.38v-1.69h5.58v1.69a.38.38,0,0,0,.38.38.37.37,0,0,0,.38-.38h0v-1.69h2l0,9.37A1.8,1.8,0,0,1,55.85,172.09Zm-.8-11.71H49.47v-.13a2.79,2.79,0,0,1,5.57,0Z" transform="translate(-4 -4.08)"/></g><path d="M26.74,700h-12a7.11,7.11,0,0,0-7.1,7.1v12a7.11,7.11,0,0,0,7.1,7.1h12a7.11,7.11,0,0,0,7.09-7.1v-12A7.11,7.11,0,0,0,26.74,700Zm5.56,19.12a5.57,5.57,0,0,1-5.56,5.56h-12a5.57,5.57,0,0,1-5.56-5.56v-12a5.56,5.56,0,0,1,5.56-5.56h12a5.57,5.57,0,0,1,5.56,5.56Z" transform="translate(-4 -4.08)"/><path d="M20.73,706a7.17,7.17,0,1,0,7.17,7.17A7.18,7.18,0,0,0,20.73,706Zm0,12.8a5.63,5.63,0,1,1,5.63-5.63A5.64,5.64,0,0,1,20.73,718.78Z" transform="translate(-4 -4.08)"/><path d="M28.07,703.44a2.12,2.12,0,1,0,2.11,2.11A2.12,2.12,0,0,0,28.07,703.44Zm0,2.7a.59.59,0,0,1-.58-.59.58.58,0,1,1,1.16,0A.59.59,0,0,1,28.07,706.14Z" transform="translate(-4 -4.08)"/><path class="cls-4" d="M21.18,620.64H13.46a4.57,4.57,0,0,0-4.57,4.56v7.73a4.57,4.57,0,0,0,4.57,4.56h7.72a4.56,4.56,0,0,0,4.56-4.56V625.2A4.56,4.56,0,0,0,21.18,620.64Zm3.58,12.29a3.58,3.58,0,0,1-3.58,3.57H13.46a3.57,3.57,0,0,1-3.58-3.57V625.2a3.57,3.57,0,0,1,3.58-3.57h7.72a3.58,3.58,0,0,1,3.58,3.57Z" transform="translate(-4 -4.08)"/><path class="cls-4" d="M17.32,624.46a4.61,4.61,0,1,0,4.61,4.6A4.61,4.61,0,0,0,17.32,624.46Zm0,8.22a3.62,3.62,0,1,1,3.62-3.62A3.62,3.62,0,0,1,17.32,632.68Z" transform="translate(-4 -4.08)"/><path class="cls-4" d="M22,622.82a1.36,1.36,0,1,0,1.36,1.36A1.36,1.36,0,0,0,22,622.82Zm0,1.73a.37.37,0,0,1-.38-.37.38.38,0,0,1,.75,0A.37.37,0,0,1,22,624.55Z" transform="translate(-4 -4.08)"/><path d="M20.16,411H12.43a4.57,4.57,0,0,0-4.56,4.56v7.73a4.56,4.56,0,0,0,4.56,4.56h7.73a4.56,4.56,0,0,0,4.56-4.56v-7.73A4.56,4.56,0,0,0,20.16,411Zm3.58,12.29a3.58,3.58,0,0,1-3.58,3.57H12.43a3.57,3.57,0,0,1-3.57-3.57v-7.73A3.57,3.57,0,0,1,12.43,412h7.73a3.58,3.58,0,0,1,3.58,3.57Z" transform="translate(-4 -4.08)"/><path d="M16.3,414.84a4.61,4.61,0,1,0,4.61,4.61A4.62,4.62,0,0,0,16.3,414.84Zm0,8.23a3.62,3.62,0,1,1,3.62-3.62A3.63,3.63,0,0,1,16.3,423.07Z" transform="translate(-4 -4.08)"/><path d="M21,413.2a1.37,1.37,0,1,0,1.36,1.36A1.36,1.36,0,0,0,21,413.2Zm0,1.74a.38.38,0,1,1,0-.75.38.38,0,0,1,0,.75Z" transform="translate(-4 -4.08)"/><path class="cls-11" d="M19.89,274.2c-.19-.1-1.11-.55-1.29-.61s-.29-.1-.42.09-.48.61-.59.74-.22.14-.41,0a5,5,0,0,1-1.51-.93,5.7,5.7,0,0,1-1.05-1.3c-.11-.19,0-.28.08-.38a4.58,4.58,0,0,0,.47-.65.32.32,0,0,0,0-.33c-.05-.09-.42-1-.58-1.39s-.31-.32-.42-.32H13.8a.7.7,0,0,0-.5.23,2.1,2.1,0,0,0-.66,1.57,3.63,3.63,0,0,0,.77,1.95,8.32,8.32,0,0,0,3.21,2.83,9.12,9.12,0,0,0,1.07.4,2.57,2.57,0,0,0,1.18.07,1.93,1.93,0,0,0,1.27-.89,1.5,1.5,0,0,0,.11-.89C20.2,274.34,20.08,274.29,19.89,274.2Z" transform="translate(-4 -4.08)"/><path d="M16.66,264.23a8.5,8.5,0,0,0-8.49,8.49,8.41,8.41,0,0,0,1.29,4.5c-.34,1.17-1,3.39-1,3.42a.33.33,0,0,0,.09.32.31.31,0,0,0,.32.07l3.36-1a8.49,8.49,0,1,0,4.38-15.77Zm0,16.33a7.83,7.83,0,0,1-4.16-1.19.26.26,0,0,0-.17-.05h-.1l-2.93.91c.21-.79.6-2.2.82-3a.29.29,0,0,0,0-.27,7.84,7.84,0,1,1,6.58,3.57Z" transform="translate(-4 -4.08)"/><path class="cls-11" d="M16.22,580.5c-.12-.06-.74-.37-.85-.41s-.2-.06-.28.07l-.4.49c-.07.08-.15.09-.27,0a3.71,3.71,0,0,1-1-.62,3.53,3.53,0,0,1-.69-.87c-.07-.12,0-.19,0-.25a5,5,0,0,0,.32-.43.21.21,0,0,0,0-.22c0-.06-.28-.68-.38-.93s-.2-.21-.28-.21h-.24a.44.44,0,0,0-.33.16,1.37,1.37,0,0,0-.44,1,2.41,2.41,0,0,0,.51,1.29A5.48,5.48,0,0,0,14,581.52a7.21,7.21,0,0,0,.72.27,1.63,1.63,0,0,0,.78,0,1.29,1.29,0,0,0,.85-.59,1.07,1.07,0,0,0,.07-.59C16.43,580.59,16.35,580.56,16.22,580.5Z" transform="translate(-4 -4.08)"/><path d="M14.07,573.87a5.66,5.66,0,0,0-4.79,8.64c-.22.78-.62,2.26-.63,2.27a.23.23,0,0,0,.06.22.23.23,0,0,0,.21,0l2.24-.69a5.65,5.65,0,1,0,2.91-10.49Zm0,10.86a5.18,5.18,0,0,1-2.76-.79.27.27,0,0,0-.12,0h-.06l-2,.6.56-2a.25.25,0,0,0,0-.17,5.22,5.22,0,1,1,4.37,2.37Z" transform="translate(-4 -4.08)"/><path class="cls-12" d="M20.38,652.11c-.19-.09-1.12-.55-1.3-.62s-.3-.09-.43.1-.49.62-.6.75-.22.14-.42,0a5,5,0,0,1-1.53-.94A5.73,5.73,0,0,1,15,650.12c-.11-.19,0-.29.08-.39a4.8,4.8,0,0,0,.48-.66.35.35,0,0,0,0-.33c0-.09-.43-1-.58-1.42s-.32-.32-.43-.32H14.2a.71.71,0,0,0-.51.24,2.15,2.15,0,0,0-.67,1.59,3.71,3.71,0,0,0,.78,2,8.51,8.51,0,0,0,3.26,2.88,11.22,11.22,0,0,0,1.09.41,2.66,2.66,0,0,0,1.2.07,1.94,1.94,0,0,0,1.29-.91,1.53,1.53,0,0,0,.11-.9C20.7,652.26,20.57,652.21,20.38,652.11Z" transform="translate(-4 -4.08)"/><path class="cls-4" d="M17.11,642a8.63,8.63,0,0,0-8.62,8.62,8.55,8.55,0,0,0,1.31,4.56c-.35,1.19-1,3.45-1,3.47a.36.36,0,0,0,.09.33.33.33,0,0,0,.33.07l3.42-1a8.61,8.61,0,0,0,13.05-7.38A8.63,8.63,0,0,0,17.11,642Zm0,16.57a7.94,7.94,0,0,1-4.22-1.21.41.41,0,0,0-.18-.05l-.1,0-3,.91c.22-.8.61-2.23.84-3a.32.32,0,0,0,0-.27,8,8,0,1,1,6.68,3.62Z" transform="translate(-4 -4.08)"/><path class="cls-13" d="M9,742.67a1.19,1.19,0,0,0-1.68,1.68L32.6,769.68,7.26,795a1.2,1.2,0,0,0,0,1.68,1.21,1.21,0,0,0,1.69,0l0,0,26.17-26.18a1.2,1.2,0,0,0,0-1.68Z" transform="translate(-4 -4.08)"/><path d="M8.11,797.05a1.19,1.19,0,0,1-.85-2L32.6,769.68,7.26,744.35A1.19,1.19,0,0,1,9,742.67l26.17,26.17a1.18,1.18,0,0,1,0,1.68L9,796.7A1.22,1.22,0,0,1,8.11,797.05Z" transform="translate(-4 -4.08)"/><path class="cls-4" d="M34.08,923.22a1.19,1.19,0,0,0,1.2-1.18,1.23,1.23,0,0,0-.35-.85L9.44,895.86l25.49-25.33a1.19,1.19,0,0,0,0-1.69,1.22,1.22,0,0,0-1.7,0L6.9,895a1.18,1.18,0,0,0,0,1.68l26.33,26.17A1.19,1.19,0,0,0,34.08,923.22Z" transform="translate(-4 -4.08)"/><path d="M34.08,982.54a1.19,1.19,0,0,0,1.2-1.19,1.23,1.23,0,0,0-.35-.85L9.44,955.17l25.49-25.33a1.18,1.18,0,0,0,0-1.68,1.2,1.2,0,0,0-1.7,0L6.9,954.33a1.18,1.18,0,0,0,0,1.68l26.33,26.18A1.23,1.23,0,0,0,34.08,982.54Z" transform="translate(-4 -4.08)"/><path class="cls-4" d="M8.11,864.83a1.19,1.19,0,0,1-1.2-1.18,1.23,1.23,0,0,1,.35-.85L32.6,837.47,7.26,812.14A1.2,1.2,0,0,1,9,810.45l26.17,26.18a1.18,1.18,0,0,1,0,1.68L9,864.48A1.18,1.18,0,0,1,8.11,864.83Z" transform="translate(-4 -4.08)"/></svg>