<?xml version="1.0" encoding="utf-8"?>
<!-- Generator: Adobe Illustrator 24.3.0, SVG Export Plug-In . SVG Version: 6.00 Build 0)  -->
<svg version="1.1" id="Layer_1" xmlns="http://www.w3.org/2000/svg" xmlns:xlink="http://www.w3.org/1999/xlink" x="0px" y="0px"
	 viewBox="0 0 19.1 20.2" style="enable-background:new 0 0 19.1 20.2;" xml:space="preserve">
<style type="text/css">
	.st0{fill:#EC1E39;stroke:#EC1E39;stroke-width:0.25;stroke-miterlimit:10;}
	.st1{fill:none;stroke:#000000;stroke-width:2;stroke-miterlimit:10;}
	.st2{fill:none;stroke:#FFFFFF;stroke-width:2;stroke-miterlimit:10;}
	.st3{fill:#FFFFFF;}
	.st4{fill:#C53A19;}
	.st5{fill:#7D98A9;}
	.st6{fill:#010002;}
	.st7{fill:#030104;}
	.st8{fill-rule:evenodd;clip-rule:evenodd;fill:#EC1E39;}
	.st9{fill:#2F2F2F;}
	.st10{fill-rule:evenodd;clip-rule:evenodd;}
	.st11{fill-rule:evenodd;clip-rule:evenodd;fill:#FFFFFF;}
	.st12{fill:#F44336;}
	.st13{fill:#B1B1B1;}
</style>
<g id="Group_3">
	<path id="Path_4" d="M3.6,6.1v9.7l0,0l0,0c0.1,1.4,1.3,2.4,2.7,2.4h7.2c1.4,0.1,2.6-1,2.7-2.4V6.1c0-0.2-0.2-0.3-0.4-0.3h-2.3V5.6
		c0-2-1.6-3.6-3.5-3.6S6.3,3.7,6.3,5.6v0.1H3.9C3.7,5.8,3.6,5.9,3.6,6.1C3.6,6.1,3.6,6.1,3.6,6.1z M13.4,17.5H6.2
		c-0.9,0.1-1.8-0.6-1.9-1.6l0-9.4h2v1.7c0,0.2,0.2,0.4,0.4,0.4c0.2,0,0.4-0.2,0.4-0.4l0,0V6.6h5.6v1.7c0,0.2,0.2,0.4,0.4,0.4
		c0,0,0,0,0,0c0.2,0,0.4-0.2,0.4-0.4c0,0,0,0,0,0l0,0V6.6h2v9.4C15.3,16.9,14.4,17.6,13.4,17.5C13.4,17.5,13.4,17.5,13.4,17.5z
		 M12.6,5.8H7V5.7C7.1,4.1,8.5,3,10,3.1c1.4,0.1,2.5,1.2,2.6,2.6L12.6,5.8z"/>
</g>
</svg>
