<?xml version="1.0" encoding="utf-8"?>
<!-- Generator: Adobe Illustrator 24.3.0, SVG Export Plug-In . SVG Version: 6.00 Build 0)  -->
<svg version="1.1" id="Layer_1" xmlns="http://www.w3.org/2000/svg" xmlns:xlink="http://www.w3.org/1999/xlink" x="0px" y="0px"
	 viewBox="0 0 29.6 24.2" style="enable-background:new 0 0 29.6 24.2;" xml:space="preserve">
<style type="text/css">
	.st0{fill:#EC1E39;stroke:#EC1E39;stroke-width:0.25;stroke-miterlimit:10;}
	.st1{fill:none;stroke:#000000;stroke-width:2;stroke-miterlimit:10;}
	.st2{fill:none;stroke:#FFFFFF;stroke-width:2;stroke-miterlimit:10;}
	.st3{fill:#FFFFFF;}
	.st4{fill:#C53A19;}
	.st5{fill:#7D98A9;}
	.st6{fill:#010002;}
	.st7{fill:#030104;}
	.st8{fill-rule:evenodd;clip-rule:evenodd;fill:#EC1E39;}
	.st9{fill:#2F2F2F;}
	.st10{fill-rule:evenodd;clip-rule:evenodd;}
	.st11{fill-rule:evenodd;clip-rule:evenodd;fill:#FFFFFF;}
	.st12{fill:#F44336;}
	.st13{fill:#B1B1B1;}
</style>
<g id="like-2">
	<path id="Path_6-2" d="M27.2,8c-0.4-4-3.2-6.9-6.7-6.9c-2.4,0-4.5,1.3-5.7,3.3c-1.1-2-3.3-3.3-5.6-3.3C5.7,1.2,2.9,4.1,2.5,8
		c-0.1,0.9,0,1.8,0.2,2.6c0.5,2.2,1.7,4.2,3.4,5.7l8.6,7.8l8.8-7.9c1.7-1.5,2.9-3.5,3.4-5.7C27.3,9.8,27.3,8.9,27.2,8z M26.1,10.4
		c-0.5,2-1.6,3.8-3.1,5.2l-8.1,7.3l-8-7.3c-1.6-1.4-2.6-3.2-3.1-5.2C3.5,9.7,3.4,8.9,3.5,8.2v0c0.3-3.5,2.7-6,5.8-6
		c2.3,0,4.3,1.5,5.1,3.6l0.4,1l0.4-1c0.9-2.1,3-3.6,5.3-3.6c3,0,5.4,2.5,5.8,6.1C26.4,8.9,26.3,9.7,26.1,10.4z"/>
</g>
</svg>
